<?xml version="1.0" encoding="iso-8859-1"?>
<!-- Generator: Adobe Illustrator 19.0.0, SVG Export Plug-In . SVG Version: 6.00 Build 0)  -->
<svg version="1.1" id="Capa_1" xmlns="http://www.w3.org/2000/svg" xmlns:xlink="http://www.w3.org/1999/xlink" x="0px" y="0px"
	 viewBox="0 0 512 512" style="enable-background:new 0 0 512 512;" xml:space="preserve">
<path style="fill:#399AEA;" d="M497.407,381.947H11.454C5.128,381.947,0,376.819,0,370.493v-38.309h512v35.17
	C512,375.413,505.466,381.947,497.407,381.947z"/>
<path style="fill:#61AFF6;" d="M497.407,381.947H363.381V180.092h84.932c4.424,0,8.665,1.772,11.774,4.919l47.137,47.719
	c3.06,3.098,4.776,7.276,4.776,11.631v122.994C512,375.413,505.466,381.947,497.407,381.947z"/>
<path style="fill:#399AEA;" d="M507.224,232.73l-47.137-47.719c-3.109-3.148-7.35-4.919-11.774-4.919h-57.102
	c4.424,0,8.665,1.772,11.774,4.919l47.137,47.719c3.06,3.098,4.776,7.276,4.776,11.631v137.587h42.509
	c8.06,0,14.593-6.534,14.593-14.593V244.359C512,240.006,510.284,235.827,507.224,232.73z"/>
<path style="fill:#33D8DD;" d="M391.767,280.15v-62.718c0-3.775,3.06-6.835,6.835-6.835h41.91c1.827,0,3.578,0.732,4.863,2.032
	l36.267,36.714c1.264,1.279,1.972,3.005,1.972,4.803v26.004c0,3.775-3.06,6.835-6.835,6.835h-78.177
	C394.827,286.985,391.767,283.925,391.767,280.15z"/>
<circle style="fill:#3D6687;" cx="434.31" cy="377.04" r="44.857"/>
<circle style="fill:#CCCBCA;" cx="434.31" cy="377.04" r="17.331"/>
<path style="fill:#FFC06C;" d="M0,353.447h363.381V98.286c0-4.52-3.664-8.184-8.184-8.184H8.184C3.664,90.102,0,93.766,0,98.286
	V353.447z"/>
<path style="fill:#EDA558;" d="M355.198,90.102H306.28v263.344h57.102V98.286C363.381,93.766,359.717,90.102,355.198,90.102z"/>
<circle style="fill:#3D6687;" cx="89.71" cy="377.04" r="44.857"/>
<circle style="fill:#CCCBCA;" cx="89.71" cy="377.04" r="17.331"/>
<path style="fill:#FF4C4C;" d="M216.234,184.202h-72.946c-3.398,0-6.153-2.755-6.153-6.153V90.102h85.252v87.947
	C222.387,181.449,219.632,184.202,216.234,184.202z"/>
<g>
	<path style="fill:#FFFFFF;" d="M241.963,319.511h80.801c4.254,0,7.703-3.448,7.703-7.703s-3.449-7.703-7.703-7.703h-80.801
		c-4.254,0-7.703,3.449-7.703,7.703S237.708,319.511,241.963,319.511z"/>
	<path style="fill:#FFFFFF;" d="M241.963,275.003h80.801c4.254,0,7.703-3.449,7.703-7.703s-3.449-7.703-7.703-7.703h-80.801
		c-4.254,0-7.703,3.448-7.703,7.703S237.708,275.003,241.963,275.003z"/>
</g>
<g>
</g>
<g>
</g>
<g>
</g>
<g>
</g>
<g>
</g>
<g>
</g>
<g>
</g>
<g>
</g>
<g>
</g>
<g>
</g>
<g>
</g>
<g>
</g>
<g>
</g>
<g>
</g>
<g>
</g>
</svg>
