<svg height="464pt" viewBox="0 0 464 464" width="464pt" xmlns="http://www.w3.org/2000/svg"><path d="m96 160h272v272h-272zm0 0" fill="#ffc14d"/><path d="m464 464h-64v-304h-336v304h-64v-464h464zm0 0" fill="#4398d1"/><path d="m424 272h16v16h-16zm0 0" fill="#88b337"/><path d="m424 304h16v16h-16zm0 0" fill="#88b337"/><path d="m128 48h208v64h-208zm0 0" fill="#87ced9"/><path d="m128 48h208v16h-208zm0 0" fill="#71c4d1"/><path d="m224 72h16v16h-16zm0 0" fill="#5eb3d1"/><path d="m256 72h16v16h-16zm0 0" fill="#e3584b"/><g fill="#5eb3d1"><path d="m288 72h16v16h-16zm0 0"/><path d="m192 72h16v16h-16zm0 0"/><path d="m160 72h16v16h-16zm0 0"/></g><path d="m64 464 32-32v-272h-32zm0 0" fill="#2e7db3"/><path d="m368 160v272l32 32v-304zm0 0" fill="#2e7db3"/><path d="m120 216h16v48h-16zm0 0" fill="#ffda94"/><path d="m120 184h16v16h-16zm0 0" fill="#ffda94"/><path d="m96 160h272v24h-272zm0 0" fill="#ffb730"/><path d="m224 160h16v272h-16zm0 0" fill="#f79d1e"/></svg>