<svg id="Capa_1" enable-background="new 0 0 512 512" height="512" viewBox="0 0 512 512" width="512" xmlns="http://www.w3.org/2000/svg"><g><path d="m271.99 452-.04 45.01c-.01 8.28-6.72 14.99-15 14.99h-44.95c-8.28 0-15-6.72-15-15v-30l6.949-15z" fill="#3f4a4a"/><path d="m503.026 452 8.946 15-.022 30.01c-.01 8.28-6.72 14.99-15 14.99h-44.95c-8.28 0-15-6.72-15-15v-45z" fill="#2d2d2d"/><path d="m197 422v45h315v-45l-15-15h-285z" fill="#ff415b"/><path d="m512 422v45h-157.5v-60h142.5z" fill="#d10050"/><path d="m512 371.028c0-27.189-15.428-52.09-39.163-64.469l-15.249-83.261c-1.305-7.124-7.512-12.298-14.754-12.298h-176.667c-7.242 0-13.45 5.174-14.754 12.298l-15.249 83.261c-23.736 12.379-39.164 37.28-39.164 64.469v50.972h315z" fill="#ff6c6c"/><path d="m512 371.03v50.97h-157.5v-211h88.33c7.25 0 13.45 5.17 14.76 12.3l15.25 83.26c23.73 12.38 39.16 37.28 39.16 64.47z" fill="#ff415b"/><path d="m135.5 235.03v163.69c-9.525-3.734-20.409-3.652-30 .41v-164.1c9.92 1.29 20.07 1.29 30 0z" fill="#e1ebf0"/><path d="m135.5 235.03v163.69c-4.77-1.87-9.88-2.78-15-2.71v-160.01c5.02 0 10.04-.32 15-.97z" fill="#cadee5"/><circle cx="120.5" cy="120.5" fill="#6aa9ff" r="120.5"/><path d="m241 120.5c0 66.44-54.06 120.5-120.5 120.5v-241c66.44 0 120.5 54.06 120.5 120.5z" fill="#2880ea"/><circle cx="120.5" cy="120.5" fill="#f3faff" r="90.5"/><path d="m211 120.5c0 49.9-40.6 90.5-90.5 90.5v-181c49.9 0 90.5 40.6 90.5 90.5z" fill="#f3faff"/><path d="m129.525 61h-30c-8.284 0-15 6.716-15 15v90c0 8.284 6.716 15 15 15s15-6.716 15-15v-15h15c24.813 0 45-20.187 45-45s-20.187-45-45-45zm0 60h-15v-30h15c8.271 0 15 6.729 15 15s-6.729 15-15 15z" fill="#6aa9ff"/><path d="m129.52 61h-9.02v30h9.02c8.28 0 15 6.73 15 15s-6.72 15-15 15h-9.02v30h9.02c24.82 0 45-20.19 45-45s-20.18-45-45-45z" fill="#2880ea"/><path d="m278.669 241h151.662l11.172 61h-174.006z" fill="#9fcafc"/><path d="m441.5 302h-87v-61h75.83z" fill="#6aa9ff"/><circle cx="242" cy="377" fill="#ffde55" r="15"/><circle cx="467" cy="377" fill="#f4b73b" r="15"/><path d="m407 362h-105c-8.284 0-15 6.716-15 15s6.716 15 15 15h105c8.284 0 15-6.716 15-15s-6.716-15-15-15z" fill="#ff415b"/><path d="m422 377c0 8.28-6.72 15-15 15h-52.5v-30h52.5c8.28 0 15 6.72 15 15z" fill="#d10050"/><path d="m121 391c-24.813 0-45 20.187-45 45v61c0 8.284 6.716 15 15 15h60c8.284 0 15-6.716 15-15v-61c0-24.813-20.187-45-45-45z" fill="#cadee5"/><path d="m166 436v61c0 8.28-6.72 15-15 15h-30.5v-121h.5c24.81 0 45 20.19 45 45z" fill="#b4d0d8"/></g></svg>