<?xml version="1.0" encoding="iso-8859-1"?>
<!-- Generator: Adobe Illustrator 19.0.0, SVG Export Plug-In . SVG Version: 6.00 Build 0)  -->
<svg version="1.1" id="Capa_1" xmlns="http://www.w3.org/2000/svg" xmlns:xlink="http://www.w3.org/1999/xlink" x="0px" y="0px"
	 viewBox="0 0 512.002 512.002" style="enable-background:new 0 0 512.002 512.002;" xml:space="preserve">
<path style="fill:#7A869A;" d="M128.302,85.686l149.34,149.34l-20.151,21.85l-20.153,22.274l-78.913-78.912L86.513,128.75
	c-0.425-0.425-0.425-0.849-0.425-0.849L69.329,72.11l4.455,1.06L128.302,85.686z"/>
<path style="fill:#5C697C;" d="M73.784,73.17l183.707,183.707l-20.153,22.274l-78.913-78.912L86.513,128.75
	c-0.425-0.425-0.425-0.849-0.425-0.849L69.329,72.11L73.784,73.17z"/>
<path style="fill:#E9336D;" d="M277.644,277.03l-0.212,0.212c-33.73,35.001-25.244,80.398-0.212,105.429l106.84,107.293
	c29.274,29.274,76.579,29.487,106.066,0c29.062-29.062,29.274-76.792,0-106.066l-106.84-107.293
	C358.042,251.786,312.645,243.3,277.644,277.03z"/>
<path style="fill:#FFAF3E;" d="M341.919,320.092L447.274,425.9c5.939,5.939,5.728,15.485,0,21.213
	c-2.97,2.97-6.788,4.668-10.607,4.666c-4.031-0.211-7.636-1.696-10.607-4.666L320.706,341.305c-5.728-5.728-5.94-15.273,0-21.213
	C326.434,314.364,336.191,314.364,341.919,320.092z"/>
<path style="fill:#D9E3ED;" d="M140.394,58.746c4.88,3.181,5.303,9.545,1.485,13.363l-69.368,69.368
	c-3.818,3.818-10.182,3.395-12.94-1.484L2.099,48.646c-3.394-5.939-2.758-13.364,2.547-18.244L30.313,4.735
	c4.879-5.303,12.516-6.151,18.243-2.545L140.394,58.746z"/>
<path style="fill:#B12E65;" d="M277.432,277.242l0.212-0.212l212.481,212.935c-29.487,29.487-76.792,29.274-106.066,0
	l-106.84-107.293C252.188,357.64,243.702,312.243,277.432,277.242z"/>
<path style="fill:#B8C7D5;" d="M17.586,17.462l89.716,89.225l-34.79,34.79c-3.818,3.818-10.182,3.395-12.94-1.484L2.099,48.646
	c-3.394-5.939-2.758-13.364,2.547-18.244L17.586,17.462z"/>
<path style="fill:#FF9500;" d="M320.706,320.092l126.568,127.022c-2.97,2.97-6.788,4.668-10.607,4.666
	c-4.031-0.211-7.636-1.696-10.607-4.666L320.706,341.305C314.978,335.577,314.766,326.032,320.706,320.092z"/>
<path style="fill:#D9E3ED;" d="M485.608,153.6c-16.8,16.8-39.901,26.4-63.6,26.4c-9.3,0-14.7-1.201-23.699-2.701L177.295,398.301
	l1.199,7.8C188.395,461.6,145.795,512,89.994,512c-9,0-17.699-1.199-26.1-3.898c-6-1.802-8.099-9.6-3.6-14.101l29.9-29.7V422h-42.5
	l-29.7,29.702c-4.501,4.499-12.301,2.399-14.101-3.6c-9.6-31.501-1.199-66,22.5-89.702c16.8-16.8,39.901-26.4,63.6-26.4
	c9.3,0,14.7,1.201,23.701,2.701L334.708,113.7l-1.201-7.8c-5.099-29.099,4.2-58.799,24.901-79.499c16.8-17.1,39.6-26.4,63.6-26.4
	c9,0,17.701,1.199,26.1,3.9c6,1.8,8.101,9.6,3.6,14.099l-29.9,29.7V90h42.499l29.702-29.7c4.499-4.501,12.299-2.401,14.099,3.6
	C517.708,95.4,509.308,129.899,485.608,153.6z"/>
<path style="fill:#B8C7D5;" d="M485.608,153.6c-16.8,16.8-39.901,26.4-63.6,26.4c-9.3,0-14.7-1.201-23.699-2.701L177.295,398.301
	l1.199,7.8C188.395,461.6,145.795,512,89.994,512c-9,0-17.699-1.199-26.1-3.898c-6-1.802-8.099-9.6-3.6-14.101l29.9-29.7V422
	L421.808,90h42.499l29.702-29.7c4.499-4.501,12.299-2.401,14.099,3.6C517.708,95.4,509.308,129.899,485.608,153.6z"/>
<g>
</g>
<g>
</g>
<g>
</g>
<g>
</g>
<g>
</g>
<g>
</g>
<g>
</g>
<g>
</g>
<g>
</g>
<g>
</g>
<g>
</g>
<g>
</g>
<g>
</g>
<g>
</g>
<g>
</g>
</svg>
