<svg id="Capa_1" enable-background="new 0 0 497 497" height="512" viewBox="0 0 497 497" width="512" xmlns="http://www.w3.org/2000/svg"><g><path d="m67.071 452c0 19.33 15.67 35 35 35h246.021c19.33 0 35-5.67 35-25v-427c0-19.33-15.67-35-35-35h-256.021c-19.33 0-35 15.67-35 35v69.885l49.63 128.64-49.63 98.833v63.837z" fill="#f7f7f7"/><path d="m358.092 0h-30c19.33 0 35 15.67 35 35v427c0 19.33-15.67 32-35 32h20c19.33 0 35-12.67 35-32l10-65.805v-63.835l-10-156.763 10-110.848v-29.749c0-19.33-15.67-35-35-35z" fill="#e9e9e9"/><path d="m371.092 104.885h-314.021v227.473h97.613l91.083-10 45.713 10h71.612l8-71.566z" fill="#a4c6f6"/><path d="m57.071 396.195v65.805c0 19.33 15.67 35 35 35h256.021c19.33 0 35-15.67 35-35v-65.805z" fill="#6f6571"/><path d="m393.092 462v-65.805h-30v65.805c0 19.33-15.67 35-35 35h30c19.33 0 35-15.67 35-35z" fill="#5d5360"/><circle cx="225.082" cy="446.598" fill="#f7f7f7" r="20.686"/><path d="m90.1 371.777c-4.142 0-7.5-3.358-7.5-7.5 0-4.142 3.358-7.5 7.5-7.5 4.142 0 7.5 3.358 7.5 7.5 0 4.142-3.358 7.5-7.5 7.5z" fill="#a4c6f6"/><path d="m363.092 104.89h30v227.47h-30z" fill="#8ab4f5"/><path d="m176.274 371.777h-62.074c-4.142 0-7.5-3.358-7.5-7.5s3.358-7.5 7.5-7.5h62.074c4.142 0 7.5 3.358 7.5 7.5s-3.358 7.5-7.5 7.5z" fill="#ffe187"/><path d="m291.48 332.358h-136.796v-41.352c0-37.775 30.623-68.398 68.398-68.398 37.775 0 68.398 30.623 68.398 68.398z" fill="#ff8086"/><circle cx="223.082" cy="181.027" fill="#ffda9f" r="41.581"/><path d="m419.927 73.823v80.752c0 5.012-4.063 9.074-9.074 9.074h-45.75c-1.158 0-2.272.443-3.114 1.237l-29.883 28.196c-2.894 2.731-7.651.679-7.651-3.3v-21.596c0-2.506-2.031-4.537-4.537-4.537h-19.893c-5.012 0-9.074-4.063-9.074-9.074v-80.752c0-5.012 4.063-9.074 9.074-9.074h110.828c5.011 0 9.074 4.063 9.074 9.074z" fill="#ffe187"/><path d="m439.929 73.82v80.76c0 5.01-4.06 9.07-9.08 9.07h-25.32c5.01 0 9.08-4.06 9.08-9.07v-80.76c0-5.01-4.07-9.07-9.08-9.07h25.32c5.02 0 9.08 4.06 9.08 9.07z" fill="#ffd26f"/><path d="m351.442 136.022c-.575.575-1.508.575-2.083 0l-19.926-19.926c-3.605-3.605-5.562-7.599-5.657-11.55-.08-3.333 1.167-6.461 3.514-8.808 2.346-2.347 5.473-3.527 8.808-3.514 5.103.02 10.623 4.084 13.064 6.115.725.603 1.783.622 2.501.01 3.787-3.227 9.578-6.114 13.148-6.215 3.349-.093 6.479 1.143 8.821 3.484 2.342 2.342 3.579 5.475 3.484 8.821-.113 3.979-2.1 8.01-5.747 11.657z" fill="#ff8086"/><g><path d="m407.105 140.657c-4.143 0-7.5-3.358-7.5-7.5v-30.489h-1.975c-4.143 0-7.5-3.358-7.5-7.5s3.357-7.5 7.5-7.5h9.475c4.143 0 7.5 3.358 7.5 7.5v37.989c0 4.142-3.357 7.5-7.5 7.5z" fill="#ff8086"/></g></g></svg>