<svg id="Layer_1" enable-background="new 0 0 512 512" height="512" viewBox="0 0 512 512" width="512" xmlns="http://www.w3.org/2000/svg"><g><path d="m442.473 351.103-94.888-227.731c-4.584-11.001-20.169-11.001-24.753 0l-94.888 227.731c-31.892 76.542 24.345 160.897 107.265 160.897s139.157-84.355 107.264-160.897z" fill="#9be8fd"/><path d="m290.431 351.103 76.021-182.451-18.867-45.28c-4.584-11.001-20.169-11.001-24.753 0l-94.888 227.731c-31.892 76.542 24.344 160.897 107.265 160.897 10.927 0 21.384-1.478 31.243-4.196-64.961-17.913-103.711-90.245-76.021-156.701z" fill="#62ddfc"/><path d="m193.098 255.104-56.287-135.088c-2.719-6.526-11.964-6.526-14.683 0l-56.287 135.088c-18.918 45.404 14.441 95.443 63.628 95.443s82.548-50.039 63.629-95.443z" fill="#9be8fd"/><path d="m108.706 253.446 41.851-100.442-13.745-32.989c-2.719-6.526-11.964-6.526-14.684 0l-56.287 135.089c-18.918 45.404 14.441 95.443 63.629 95.443 8.539 0 16.6-1.511 23.994-4.241-38.331-10.783-61.135-53.554-44.758-92.86z" fill="#62ddfc"/><path d="m262.387 80.607-32.412-77.789c-1.566-3.758-6.889-3.758-8.455 0l-32.412 77.788c-10.894 26.145 8.315 54.959 36.639 54.959s47.534-28.813 36.64-54.958z" fill="#9be8fd"/><path d="m230.316 80.607 16.036-38.486-16.377-39.303c-1.566-3.758-6.889-3.758-8.455 0l-32.412 77.788c-10.894 26.145 8.315 54.959 36.639 54.959 7.681 0 14.682-2.132 20.604-5.742-15.915-9.702-23.975-30.161-16.035-49.216z" fill="#62ddfc"/><g><path d="m374.324 465.486c-2.465-3.483-1.64-8.305 1.843-10.77 25.416-17.988 39.378-52.998 25.15-87.145-1.641-3.939.221-8.463 4.16-10.104 3.939-1.642 8.462.221 10.104 4.16 17.248 41.395.372 83.861-30.486 105.701-3.483 2.465-8.306 1.641-10.771-1.842z" fill="#c9f0fe"/></g><g><path d="m141.866 316.979c-2.465-3.483-1.64-8.305 1.843-10.77 11.342-8.028 17.602-23.668 11.241-38.933-1.641-3.939.222-8.463 4.16-10.104 3.938-1.64 8.462.221 10.104 4.16 9.232 22.159.54 45.374-16.578 57.49-3.481 2.464-8.304 1.64-10.77-1.843z" fill="#c9f0fe"/></g></g></svg>