<svg id="Layer_1" enable-background="new 0 0 512 512" height="512" viewBox="0 0 512 512" width="512" xmlns="http://www.w3.org/2000/svg"><circle cx="256" cy="403.113" fill="#4588ff" r="47.692"/><path d="m497.765 161.343c-68.729-68.727-157.115-100.148-241.765-100.148s-173.036 31.421-241.765 100.148c-18.994 19.016-18.907 48.462-.177 67.271 23.39 23.65 54.014 14.236 67.727.064 46.554-46.492 108.419-72.096 174.215-72.096s127.661 25.604 174.215 72.096c13.713 14.172 44.337 23.586 67.727-.064 18.73-18.808 18.817-48.254-.177-67.271z" fill="#02d9ff"/><path d="m393.733 265.353c-39.429-39.419-90.312-57.05-137.733-57.05s-98.304 17.63-137.733 57.05c-19.237 19.236-18.854 48.818.192 67.663 18.911 18.782 48.334 18.703 67.24-.203 18.778-18.777 43.744-29.118 70.3-29.118s51.522 10.341 70.3 29.118c18.906 18.906 48.33 18.985 67.24.203 19.047-18.845 19.43-48.427.194-67.663z" fill="#23b0ff"/><path d="m303.692 403.113c0-26.297-21.395-47.692-47.692-47.692v95.384c26.297 0 47.692-21.395 47.692-47.692z" fill="#5f5dff"/><path d="m497.942 228.614c18.73-18.809 18.817-48.254-.177-67.271-68.729-68.727-157.115-100.148-241.765-100.148v95.388c65.797 0 127.661 25.604 174.215 72.096 13.714 14.172 44.337 23.586 67.727-.065z" fill="#23b0ff"/><path d="m393.54 333.016c19.046-18.845 19.429-48.427.192-67.663-39.429-39.42-90.312-57.05-137.733-57.05v95.392c26.556 0 51.522 10.341 70.3 29.118 18.907 18.906 48.331 18.985 67.241.203z" fill="#4588ff"/></svg>