<svg height="512" viewBox="0 0 64 64" width="512" xmlns="http://www.w3.org/2000/svg"><g id="AC"><rect fill="#d4effc" height="30" rx="5" width="64" y="10"/><path d="m0 32v3a5.006 5.006 0 0 0 5 5h54a5.006 5.006 0 0 0 5-5v-3z" fill="#ade1fa"/><path d="m64 32v3a5 5 0 0 1 -5 5h-13v-8z" fill="#86d1ef"/><path d="m18 32v8h-13a5 5 0 0 1 -5-5v-3z" fill="#86d1ef"/><path d="m6 10v5a3 3 0 0 0 3 3h46a3 3 0 0 0 3-3v-5z" fill="#ade1fa"/><path d="m41 29h-18a1 1 0 0 1 0-2h18a1 1 0 0 1 0 2z" fill="#ade1fa"/><path d="m58 37h-3a1 1 0 0 1 0-2h3a1 1 0 0 1 0 2z" fill="#6ebbe5"/><g fill="#ade1fa"><path d="m33 54a1 1 0 0 1 -1-1 2.585 2.585 0 0 0 -.781-1.875 4.615 4.615 0 0 1 0-6.25 2.585 2.585 0 0 0 .781-1.875 1 1 0 0 1 2 0 4.529 4.529 0 0 1 -1.219 3.125 2.641 2.641 0 0 0 0 3.75 4.529 4.529 0 0 1 1.219 3.125 1 1 0 0 1 -1 1z"/><path d="m39 54a1 1 0 0 1 -1-1 2.585 2.585 0 0 0 -.781-1.875 4.615 4.615 0 0 1 0-6.25 2.585 2.585 0 0 0 .781-1.875 1 1 0 0 1 2 0 4.529 4.529 0 0 1 -1.219 3.125 2.641 2.641 0 0 0 0 3.75 4.529 4.529 0 0 1 1.219 3.125 1 1 0 0 1 -1 1z"/><path d="m45 54a1 1 0 0 1 -1-1 2.585 2.585 0 0 0 -.781-1.875 4.615 4.615 0 0 1 0-6.25 2.585 2.585 0 0 0 .781-1.875 1 1 0 0 1 2 0 4.529 4.529 0 0 1 -1.219 3.125 2.641 2.641 0 0 0 0 3.75 4.529 4.529 0 0 1 1.219 3.125 1 1 0 0 1 -1 1z"/><path d="m51 54a1 1 0 0 1 -1-1 2.585 2.585 0 0 0 -.781-1.875 4.615 4.615 0 0 1 0-6.25 2.585 2.585 0 0 0 .781-1.875 1 1 0 0 1 2 0 4.529 4.529 0 0 1 -1.219 3.125 2.641 2.641 0 0 0 0 3.75 4.529 4.529 0 0 1 1.219 3.125 1 1 0 0 1 -1 1z"/><path d="m15 54a1 1 0 0 1 -1-1 2.585 2.585 0 0 0 -.781-1.875 4.615 4.615 0 0 1 0-6.25 2.585 2.585 0 0 0 .781-1.875 1 1 0 0 1 2 0 4.529 4.529 0 0 1 -1.219 3.125 2.641 2.641 0 0 0 0 3.75 4.529 4.529 0 0 1 1.219 3.125 1 1 0 0 1 -1 1z"/><path d="m21 54a1 1 0 0 1 -1-1 2.585 2.585 0 0 0 -.781-1.875 4.615 4.615 0 0 1 0-6.25 2.585 2.585 0 0 0 .781-1.875 1 1 0 0 1 2 0 4.529 4.529 0 0 1 -1.219 3.125 2.641 2.641 0 0 0 0 3.75 4.529 4.529 0 0 1 1.219 3.125 1 1 0 0 1 -1 1z"/><path d="m27 54a1 1 0 0 1 -1-1 2.585 2.585 0 0 0 -.781-1.875 4.615 4.615 0 0 1 0-6.25 2.585 2.585 0 0 0 .781-1.875 1 1 0 0 1 2 0 4.529 4.529 0 0 1 -1.219 3.125 2.641 2.641 0 0 0 0 3.75 4.529 4.529 0 0 1 1.219 3.125 1 1 0 0 1 -1 1z"/></g></g></svg>