<svg id="Capa_1" enable-background="new 0 0 497 497" height="512" viewBox="0 0 497 497" width="512" xmlns="http://www.w3.org/2000/svg"><g><g fill="#9d91a0"><path d="m59.314 296.511c-4.142 0-7.5 3.733-7.5 8.339v151.965c0 4.606 3.358 8.339 7.5 8.339s7.5-3.733 7.5-8.339v-151.964c0-4.606-3.358-8.34-7.5-8.34z"/><path d="m437.686 296.511c-4.142 0-7.5 3.733-7.5 8.339v151.965c0 4.606 3.358 8.339 7.5 8.339s7.5-3.733 7.5-8.339v-151.964c0-4.606-3.358-8.34-7.5-8.34z"/></g><path d="m408.5 472.5h-320v-312.5c0-88.365 71.634-160 160-160 88.365 0 160 71.634 160 160z" fill="#eae9eb"/><path d="m268.5 61.011v411.489h100v-312.5c0-52.174-33.473-96.672-80.07-113.161-9.729-3.443-19.93 3.852-19.93 14.172z" fill="#b5e9ff"/><path d="m228.5 271.129v-210.118c0-10.32-10.201-17.615-19.93-14.172-46.597 16.489-80.07 60.987-80.07 113.161v312.5h100v-160" fill="#b5e9ff"/><path d="m248.5 0c-5.06 0-10.061.246-15 .706 81.33 7.563 145 75.988 145 159.294v312.5h30v-312.5c0-88.366-71.634-160-160-160z" fill="#dad9db"/><path d="m288.43 46.839c-6.606-2.337-13.426.278-17.126 5.427 39.765 19.566 67.196 60.504 67.196 107.734v312.5h30v-312.5c0-52.174-33.472-96.672-80.07-113.161z" fill="#93ddfe"/><path d="m208.57 46.839c-4.416 1.562-8.712 3.379-12.874 5.427 1.749 2.434 2.805 5.432 2.805 8.745v210.118 41.371 160h30v-160-41.371-210.118c-.001-10.32-10.202-17.615-19.931-14.172z" fill="#93ddfe"/><path d="m228.5 312.5v-41.371" fill="#b5e9ff"/><path d="m175.512 232.32c-2.378-.254-4.701-.2-6.937.125-3.903.566-7.775-.821-10.612-3.561-4.936-4.767-11.652-7.701-19.057-7.701-7.404 0-14.121 2.934-19.057 7.701-2.837 2.74-6.709 4.127-10.612 3.561-2.236-.324-4.56-.379-6.938-.125-12.712 1.356-22.959 11.589-24.299 24.303-1.739 16.494 11.147 30.426 27.287 30.426h67.239c16.14 0 29.027-13.933 27.286-30.428-1.34-12.713-11.588-22.945-24.3-24.301z" fill="#9bdead"/><path d="m30.003 482v-15.833c0-8.284 6.716-15 15-15h406.994c8.284 0 15 6.716 15 15v15.833c0 8.284-6.716 15-15 15h-406.994c-8.284 0-15-6.716-15-15z" fill="#9d91a0"/><path d="m451.997 451.167h-30c8.284 0 15 6.716 15 15v15.833c0 8.284-6.716 15-15 15h30c8.284 0 15-6.716 15-15v-15.833c0-8.285-6.716-15-15-15z" fill="#877d89"/><path d="m432.702 310.167h16.128c10.033 0 18.167-8.133 18.167-18.167s-8.134-18.167-18.167-18.167h-400.66c-10.033 0-18.167 8.133-18.167 18.167s8.134 18.167 18.167 18.167h237.668" fill="#9d91a0"/><path d="m199.813 256.622c-1.341-12.713-11.589-22.945-24.301-24.301-2.378-.253-4.701-.2-6.937.125-3.903.566-7.775-.821-10.612-3.561-4.936-4.767-11.652-7.701-19.057-7.701-5.537 0-10.689 1.642-15 4.462 1.454.952 2.812 2.036 4.057 3.238 2.837 2.74 6.477 7.846 9.359 10.539 2.991 2.795 5.812 2.644 8.19 2.897 12.712 1.356 22.96 1.588 24.301 14.301 1.74 16.495-11.146 30.428-27.286 30.428h30c16.14 0 29.026-13.933 27.286-30.427z" fill="#86d69a"/><path d="m285.837 310.167h146.865" fill="#9d91a0"/><path d="m188.575 330.115h-99.337c-11.046 0-20-8.954-20-20v-21.264c0-8.284 6.716-15 15-15h109.337c8.284 0 15 6.716 15 15v21.264c0 11.046-8.954 20-20 20z" fill="#dc9465"/><path d="m321.488 232.32c2.378-.254 4.701-.2 6.937.125 3.903.566 7.775-.821 10.612-3.561 4.936-4.767 11.652-7.701 19.057-7.701 7.404 0 14.121 2.934 19.057 7.701 2.837 2.74 6.709 4.127 10.612 3.561 2.236-.324 4.56-.379 6.938-.125 12.712 1.356 22.959 11.589 24.299 24.303 1.739 16.494-11.147 30.426-27.287 30.426-9.848 0-57.391 0-67.239 0-16.14 0-29.027-13.933-27.286-30.428 1.34-12.713 11.588-22.945 24.3-24.301z" fill="#9bdead"/><path d="m419 256.623c-1.34-12.713-11.588-22.946-24.299-24.303-2.379-.253-4.702-.2-6.938.125-3.903.566-7.775-.821-10.612-3.561-4.936-4.767-11.652-7.701-19.057-7.701-5.537 0-10.689 1.642-15 4.462 1.454.952 2.812 2.036 4.057 3.238 2.837 2.74 6.84 7.315 9.82 9.898 3.205 2.778 5.352 3.285 7.73 3.538 12.712 1.357 22.959 1.589 24.299 14.303 1.739 16.494-11.147 30.426-27.286 30.426h30c16.139.001 29.025-13.931 27.286-30.425z" fill="#86d69a"/><path d="m308.425 330.115h99.337c11.046 0 20-8.954 20-20v-21.264c0-8.284-6.716-15-15-15h-109.337c-8.284 0-15 6.716-15 15v21.264c0 11.046 8.954 20 20 20z" fill="#dc9465"/><g fill="#d78c57"><path d="m193.575 273.851h-30c8.284 0 15 6.716 15 15v21.264c0 11.045-8.954 20-20 20h30c11.046 0 20-8.955 20-20v-21.264c0-8.284-6.715-15-15-15z"/><path d="m412.762 273.851h-30c8.284 0 15 6.716 15 15v21.264c0 11.045-8.954 20-20 20h30c11.046 0 20-8.955 20-20v-21.264c0-8.284-6.716-15-15-15z"/></g></g></svg>