<svg height="512pt" viewBox="-28 0 512 512" width="512pt" xmlns="http://www.w3.org/2000/svg"><path d="m452 512h-452v-508c0-2.210938 1.789062-4 4-4h448c2.210938 0 4 1.789062 4 4v504c0 2.210938-1.789062 4-4 4zm0 0" fill="#fbe1a8"/><path d="m452 512h-26.949219v-512h26.949219c2.210938 0 4 1.789062 4 4v504c0 2.210938-1.789062 4-4 4zm0 0" fill="#f2cf91"/><path d="m31.234375 30.90625h116.796875v333.777344h-116.796875zm0 0" fill="#b5fcff"/><path d="m117.128906 30.90625h30.902344v333.777344h-30.902344zm0 0" fill="#8cf2ff"/><path d="m178.9375 30.90625h245.828125v333.777344h-245.828125zm0 0" fill="#af8164"/><path d="m148.03125 23.40625h-116.796875c-4.140625 0-7.5 3.355469-7.5 7.5v333.777344c0 4.140625 3.359375 7.5 7.5 7.5h116.796875c4.144531 0 7.5-3.359375 7.5-7.5v-333.777344c0-4.144531-3.355469-7.5-7.5-7.5zm-9.5 333.777344h-97.796875c-1.105469 0-2-.894532-2-2v-314.777344c0-1.105469.894531-2 2-2h97.796875c1.105469 0 2 .894531 2 2v314.777344c0 1.105468-.894531 2-2 2zm0 0" fill="#eabf7e"/><path d="m424.765625 23.40625h-245.828125c-4.140625 0-7.5 3.355469-7.5 7.5v333.777344c0 4.140625 3.359375 7.5 7.5 7.5h245.828125c4.140625 0 7.5-3.359375 7.5-7.5v-333.777344c0-4.144531-3.359375-7.5-7.5-7.5zm-9.5 333.777344h-226.828125c-1.105469 0-2-.894532-2-2v-314.777344c0-1.105469.894531-2 2-2h226.828125c1.105469 0 2 .894531 2 2v314.777344c0 1.105468-.898437 2-2 2zm0 0" fill="#eabf7e"/><path d="m243.453125 405.890625h181.3125v72.113281h-181.3125zm0 0" fill="#eabf7e"/><path d="m31.234375 405.890625h181.3125v72.113281h-181.3125zm0 0" fill="#eabf7e"/><g fill="#af8164"><path d="m424.765625 398.390625h-181.3125c-4.144531 0-7.5 3.359375-7.5 7.5v72.113281c0 4.140625 3.355469 7.5 7.5 7.5h181.3125c4.140625 0 7.5-3.359375 7.5-7.5v-72.113281c0-4.140625-3.359375-7.5-7.5-7.5zm-9.5 72.113281h-162.3125c-1.105469 0-2-.894531-2-2v-53.113281c0-1.105469.894531-2 2-2h162.3125c1.105469 0 2 .894531 2 2v53.113281c0 1.105469-.898437 2-2 2zm0 0"/><path d="m212.546875 398.390625h-181.3125c-4.140625 0-7.5 3.359375-7.5 7.5v72.113281c0 4.140625 3.359375 7.5 7.5 7.5h181.3125c4.144531 0 7.5-3.359375 7.5-7.5v-72.113281c0-4.140625-3.359375-7.5-7.5-7.5zm-9.5 72.113281h-162.3125c-1.105469 0-2-.894531-2-2v-53.113281c0-1.105469.894531-2 2-2h162.3125c1.105469 0 2 .894531 2 2v53.113281c0 1.105469-.894531 2-2 2zm0 0"/><path d="m126.011719 434.449219h-10.300781c-4.144532 0-7.5 3.355469-7.5 7.5 0 4.140625 3.355468 7.5 7.5 7.5h10.300781c4.144531 0 7.5-3.359375 7.5-7.5 0-4.144531-3.359375-7.5-7.5-7.5zm0 0"/><path d="m339.261719 434.449219h-10.304688c-4.140625 0-7.5 3.355469-7.5 7.5 0 4.140625 3.359375 7.5 7.5 7.5h10.304688c4.140625 0 7.5-3.359375 7.5-7.5 0-4.144531-3.359375-7.5-7.5-7.5zm0 0"/></g><path d="m343.277344 128.257812h-86.535156c-8.53125 0-15.453126-6.917968-15.453126-15.453124 0-8.535157 6.917969-15.453126 15.453126-15.453126h86.535156c8.535156 0 15.453125 6.917969 15.453125 15.453126 0 8.535156-6.917969 15.453124-15.453125 15.453124zm0 0" fill="#6d6670"/><path d="m343.277344 97.351562h-30.90625c8.535156 0 15.453125 6.917969 15.453125 15.453126 0 8.535156-6.917969 15.453124-15.453125 15.453124h30.90625c8.535156 0 15.453125-6.917968 15.453125-15.453124 0-8.535157-6.917969-15.453126-15.453125-15.453126zm0 0" fill="#5b545f"/><path d="m343.277344 97.351562h-86.535156c-8.53125 0-15.453126-6.917968-15.453126-15.453124 0-8.535157 6.917969-15.453126 15.453126-15.453126h86.535156c8.535156 0 15.453125 6.917969 15.453125 15.453126 0 8.535156-6.917969 15.453124-15.453125 15.453124zm0 0" fill="#ffd659"/><path d="m343.277344 66.445312h-30.90625c8.535156 0 15.453125 6.921876 15.453125 15.453126 0 8.535156-6.917969 15.453124-15.453125 15.453124h30.90625c8.535156 0 15.453125-6.917968 15.453125-15.453124 0-8.53125-6.917969-15.453126-15.453125-15.453126zm0 0" fill="#ffbd54"/><path d="m261.519531 124.5c-4.144531 0-7.5 3.359375-7.5 7.5v27.660156c0 4.140625 3.355469 7.5 7.5 7.5 4.140625 0 7.5-3.359375 7.5-7.5v-27.660156c0-4.140625-3.359375-7.5-7.5-7.5zm0 0" fill="#e9eef2"/><path d="m300.9375 123.054688c-3.820312.449218-6.585938 3.90625-6.585938 7.753906v27.039062c0 3.851563 2.765626 7.304688 6.585938 7.757813 4.550781.535156 8.414062-3.003907 8.414062-7.445313v-27.660156c0-4.441406-3.863281-7.984375-8.414062-7.445312zm0 0" fill="#e9eef2"/><path d="m342.773438 124.5c-4.144532 0-7.5 3.359375-7.5 7.5v27.660156c0 4.140625 3.355468 7.5 7.5 7.5 4.140624 0 7.5-3.359375 7.5-7.5v-27.660156c0-4.140625-3.359376-7.5-7.5-7.5zm0 0" fill="#e9eef2"/><path d="m186.4375 120.757812h230.828125v15h-230.828125zm0 0" fill="#bfc7d1"/><path d="m454.582031 214.382812-28.507812 31.027344c-1.535157 1.671875-4.125 1.769532-5.78125.21875l-14.878907-13.9375c-2.613281-2.449218-6.867187-.578125-6.867187 3.019532v78.628906c0 2.277344-1.832031 4.121094-4.089844 4.121094h-104.214843c-2.257813 0-4.089844-1.84375-4.089844-4.121094v-78.625c0-3.597656-4.253906-5.46875-6.867188-3.019532l-14.871094 13.933594c-1.652343 1.550782-4.242187 1.453125-5.777343-.21875l-28.515625-31.023437c-1.539063-1.675781-1.4375-4.289063.230468-5.835938l54.628907-50.707031c.757812-.703125 1.746093-1.089844 2.769531-1.089844h109.203125c1.023437 0 2.011719.386719 2.765625 1.089844l54.632812 50.710938c1.664063 1.542968 1.765626 4.15625.230469 5.828124zm0 0" fill="#6d6670"/><path d="m416.285156 214.382812-28.507812 31.027344c-1.535156 1.671875-4.125 1.769532-5.78125.21875l-14.878906-13.9375c-2.613282-2.449218-6.867188-.578125-6.867188 3.019532v78.628906c0 2.277344-1.828125 4.121094-4.085938 4.121094h-104.21875c-2.257812 0-4.085937-1.84375-4.085937-4.121094v-78.625c0-3.597656-4.257813-5.46875-6.871094-3.019532l-14.867187 13.933594c-1.65625 1.550782-4.246094 1.453125-5.78125-.21875l-28.515625-31.023437c-1.539063-1.675781-1.433594-4.289063.230469-5.835938l54.632812-50.707031c.753906-.703125 1.742188-1.089844 2.765625-1.089844h109.203125c1.027344 0 2.015625.386719 2.769531 1.089844l54.628907 50.710938c1.664062 1.542968 1.765624 4.15625.230468 5.828124zm0 0" fill="#ffd659"/><path d="m373.582031 214.382812-28.507812 31.027344c-1.535157 1.671875-4.125 1.769532-5.777344.21875l-14.882813-13.9375c-2.613281-2.449218-6.867187-.578125-6.867187 3.019532v78.628906c0 2.277344-1.828125 4.121094-4.085937 4.121094h-104.21875c-2.257813 0-4.085938-1.84375-4.085938-4.121094v-78.625c0-3.597656-4.253906-5.46875-6.871094-3.019532l-14.867187 13.933594c-1.65625 1.550782-4.242188 1.453125-5.78125-.21875l-28.515625-31.023437c-1.535156-1.675781-1.433594-4.289063.230468-5.835938l54.632813-50.707031c.753906-.703125 1.742187-1.089844 2.769531-1.089844h109.199219c1.027344 0 2.015625.386719 2.769531 1.089844l54.632813 50.710938c1.660156 1.542968 1.765625 4.15625.226562 5.828124zm0 0" fill="#fe5e70"/><path d="m264.664062 186.632812h-6.628906c-16.375 0-29.648437-13.273437-29.648437-29.648437v-.230469h65.929687v.230469c0 16.375-13.273437 29.648437-29.652344 29.648437zm0 0" fill="#d43b4c"/></svg>