<svg id="Capa_1" enable-background="new 0 0 497 497" height="512" viewBox="0 0 497 497" width="512" xmlns="http://www.w3.org/2000/svg"><g><g><path d="m288.812 175.974c-4.142 0-7.5-3.357-7.5-7.5v-14.668c0-4.143 3.358-7.5 7.5-7.5s7.5 3.357 7.5 7.5v14.668c0 4.142-3.357 7.5-7.5 7.5z" fill="#b9acac"/></g><path d="m330.01 183.74v10.91h-82.4v-10.91c0-8.43 6.83-15.27 15.26-15.27h51.88c8.43 0 15.26 6.84 15.26 15.27z" fill="#eaf6ff"/><path d="m330.01 183.74v10.91h-23.13v-10.91c0-8.43-6.83-15.27-15.26-15.27h23.13c8.43 0 15.26 6.84 15.26 15.27z" fill="#c8effe"/><path d="m330.01 194.65v61.12c0 13.01-10.54 23.56-23.55 23.56l-19.078 7.644-16.222-7.644c-13 0-23.55-10.55-23.55-23.56v-61.12z" fill="#fd3581"/><path d="m330.01 194.65v61.12c0 13.01-10.54 23.56-23.55 23.56l-11.256 4.51-11.874-4.51c13.01 0 23.55-10.55 23.55-23.56v-61.12z" fill="#fe0364"/><g><path d="m348.137 202.155h-118.65c-4.142 0-7.5-3.357-7.5-7.5s3.358-7.5 7.5-7.5h118.65c4.142 0 7.5 3.357 7.5 7.5s-3.358 7.5-7.5 7.5z" fill="#b9acac"/></g><g><path d="m483.864 259.233h-35.994l3.089-15h32.905c4.142 0 7.5 3.357 7.5 7.5s-3.358 7.5-7.5 7.5z" fill="#766e6e"/></g><path d="m450.96 244.233v11.544c0 13.008-10.545 23.553-23.543 23.553l-17.657 4.735-17.647-4.735c-13.008 0-23.553-10.545-23.553-23.553v-5.097c0-3.561 2.886-6.447 6.447-6.447z" fill="#766e6e"/><path d="m450.96 244.23v11.55c0 13-10.55 23.55-23.54 23.55l-12.025 3.224-13.125-3.224c12.99 0 23.54-10.55 23.54-23.55v-11.55z" fill="#5b5555"/><path d="m129.949 279.325-23.779 7.649-23.777-7.649c-14.275 0-25.847-11.572-25.847-25.847v-44.34h99.25v44.34c0 14.275-11.572 25.847-25.847 25.847z" fill="#e49280"/><path d="m155.8 209.14v44.34c0 14.27-11.58 25.85-25.85 25.85l-15.346 4.931-11.264-4.931c14.27 0 25.85-11.58 25.85-25.85v-44.34z" fill="#dd7f66"/><path d="m168.051 216.638h-123.76c-4.142 0-7.5-3.357-7.5-7.5s3.358-7.5 7.5-7.5h123.76c4.142 0 7.5 3.357 7.5 7.5s-3.358 7.5-7.5 7.5z" fill="#dd7f66"/><path d="m212.34 279.33 9.647 108.05-9.647 106.38h-201.88c-5.78 0-10.46-4.68-10.46-10.46v-193.52c0-5.77 4.68-10.45 10.46-10.45z" fill="#ffd15b"/><path d="m212.34 279.33 9.647 108.05-9.647 106.38h-25.9v-214.43z" fill="#ffc344"/><path d="m0 379.04h212.34v15h-212.34z" fill="#ffc344"/><path d="m129.186 330.831h-46.029c-4.142 0-7.5-3.357-7.5-7.5v-16.711c0-4.143 3.358-7.5 7.5-7.5s7.5 3.357 7.5 7.5v9.211h31.029v-9.211c0-4.143 3.358-7.5 7.5-7.5s7.5 3.357 7.5 7.5v16.711c0 4.143-3.358 7.5-7.5 7.5z" fill="#fea613"/><path d="m129.186 438.09h-46.029c-4.142 0-7.5-3.357-7.5-7.5v-16.711c0-4.143 3.358-7.5 7.5-7.5s7.5 3.357 7.5 7.5v9.211h31.029v-9.211c0-4.143 3.358-7.5 7.5-7.5s7.5 3.357 7.5 7.5v16.711c0 4.142-3.358 7.5-7.5 7.5z" fill="#fea613"/><path d="m497 421.36v61.941c0 5.777-4.683 10.459-10.459 10.459h-274.201v-72.4l137.923-12.001z" fill="#fea613"/><path d="m497 421.36v61.941c0 5.777-4.683 10.459-10.459 10.459h-24.217c5.308-2.173 8.776-7.34 8.776-13.076v-59.324z" fill="#fe9901"/><path d="m497 353.4v67.96h-284.66v-67.96l124.507-10.489z" fill="#eaf6ff"/><path d="m497 353.4v67.96h-25.9v-67.96l4.757-1.385z" fill="#c8effe"/><path d="m402.461 48.402-47.79 8.444-47.79-8.444v-34.702c0-5.776 4.683-10.459 10.459-10.459h74.661c5.776 0 10.459 4.683 10.459 10.459v34.702z" fill="#766e6e"/><path d="m402.46 13.699v34.701l-18.087 3.198-5.563-3.198v-45.16h13.191c5.776 0 10.459 4.683 10.459 10.459z" fill="#5b5555"/><path d="m447.58 76.28-92.909 7.033-92.911-7.033c1.48-1.98 3.59-4 6.63-5.75l38.49-22.13h95.58l38.5 22.13c.02.01.03.02.05.03 3.01 1.74 5.1 3.75 6.57 5.72z" fill="#b9acac"/><path d="m447.58 76.28-14.087 1.066-6.183-1.066-48.5-27.88h23.65l38.5 22.13c.02.01.03.02.05.03 3.01 1.74 5.1 3.75 6.57 5.72z" fill="#9e9797"/><path d="m212.34 13.699v79.021l-106.169 9.176-106.171-9.176v-79.021c0-5.776 4.683-10.459 10.459-10.459h30.49l65.222 7.055 65.222-7.055h30.488c5.776 0 10.459 4.683 10.459 10.459z" fill="#ffd15b"/><path d="m212.34 13.699v79.021l-16.28 1.407-3.73-1.407v-80.894c0-3.949-2.58-7.434-6.357-8.586h15.908c5.776 0 10.459 4.683 10.459 10.459z" fill="#ffc344"/><path d="m212.34 92.72v13.56c0 6.93-5.62 12.55-12.55 12.55h-187.24c-6.93 0-12.55-5.62-12.55-12.55v-13.56z" fill="#e49280"/><path d="m212.34 92.72v13.56c0 6.93-5.62 12.55-12.55 12.55h-20.01c6.93 0 12.55-5.62 12.55-12.55v-13.56z" fill="#dd7f66"/><path d="m450.96 85.38v.04 21.14c0 6.77-5.49 12.27-12.27 12.27h-168.04c-6.78 0-12.27-5.5-12.27-12.27v-21.14s0-.01 0-.04c0-.44.09-4.67 3.38-9.1h185.82c3.29 4.43 3.38 8.66 3.38 9.1z" fill="#766e6e"/><path d="m450.96 85.38v.04 21.14c0 6.77-5.49 12.27-12.27 12.27h-23.65c6.78 0 12.27-5.5 12.27-12.27v-30.28h20.27c3.29 4.43 3.38 8.66 3.38 9.1z" fill="#5b5555"/><path d="m497 289.789v63.611h-284.66v-74.07h274.201c5.776 0 10.459 4.683 10.459 10.459z" fill="#fea613"/><path d="m497 289.789v63.611h-25.9v-63.521c0-4.521-2.616-8.633-6.711-10.549h22.152c5.776 0 10.459 4.683 10.459 10.459z" fill="#fe9901"/><path d="m171.393 3.24h-130.444v48.262c0 5.987 4.854 10.841 10.841 10.841h108.763c5.987 0 10.841-4.854 10.841-10.841v-48.262z" fill="#eaf6ff"/><path d="m171.39 3.24v48.26c0 5.99-4.85 10.84-10.84 10.84h-22.15c5.99 0 10.84-4.85 10.84-10.84v-48.26z" fill="#c8effe"/><g fill="#766e6e"><circle cx="275.449" cy="306.62" r="7.5"/><circle cx="329.347" cy="306.62" r="7.5"/><circle cx="383.245" cy="306.62" r="7.5"/><circle cx="437.144" cy="306.62" r="7.5"/></g></g></svg>