<svg id="Capa_1" enable-background="new 0 0 497 497" height="512" viewBox="0 0 497 497" width="512" xmlns="http://www.w3.org/2000/svg"><g><path d="m390.71 438.858-83.2 15.98-21.678-74.565 21.678-74.565h16.86s66.34 27.91 66.34 133.15z" fill="#77718c"/><path d="m189.49 305.708 21.678 74.565-21.678 74.565-83.2-15.98c0-105.24 66.34-133.15 66.34-133.15z" fill="#77718c"/><path d="m307.51 305.708v149.13l-59.01 12.88-59.01-12.88v-149.13z" fill="#eaeaea"/><path d="m211.168 459.569 17.868-110.735h38.928l17.868 110.735z" fill="#fc5c70"/><path d="m224.711 315.708v31.965c0 13.138 10.65 23.789 23.789 23.789s23.789-10.65 23.789-23.789v-31.965z" fill="#ff6f7f"/><path d="m59.61 189.314c0-104.154 84.736-188.89 188.89-188.89s188.891 84.736 188.891 188.89z" fill="#77718c"/><path d="m126.565 182.776c0-85.964 57.186-158.56 135.587-181.855-4.51-.324-9.061-.497-13.652-.497-104.154 0-188.89 84.736-188.89 188.89h67.08c-.074-2.171-.125-4.348-.125-6.538z" fill="#6a647f"/><circle cx="403.39" cy="189.314" fill="#ffbd86" r="40.593"/><path d="m353 76.356c-11.587-10.723-28.047-14.219-43.198-9.777-18.226 5.343-39.108 8.377-61.302 8.377s-43.076-3.035-61.302-8.377c-15.151-4.441-31.61-.946-43.198 9.777-30.373 28.109-49.391 68.31-49.391 112.958 0 84.991 68.899 143.89 153.89 143.89s153.89-58.899 153.89-143.89c.001-44.648-19.016-84.849-49.389-112.958z" fill="#fed2a4"/><path d="m366.5 175.751c0 24.985-20.323 45.319-45.308 45.319s-45.308-20.334-45.308-45.319 20.323-45.308 45.308-45.308c24.985.001 45.308 20.323 45.308 45.308z" fill="#ffd7b6"/><path d="m223.655 175.751c0 26.383-21.46 47.854-47.842 47.854s-47.854-21.471-47.854-47.854 21.471-47.842 47.854-47.842 47.842 21.459 47.842 47.842z" fill="#ffd7b6"/><g fill="#423e4f"><path d="m176.928 163.622c-4.142 0-7.5 3.358-7.5 7.5v13.753c0 4.142 3.358 7.5 7.5 7.5s7.5-3.358 7.5-7.5v-13.753c0-4.142-3.358-7.5-7.5-7.5z"/><path d="m320.072 163.622c-4.143 0-7.5 3.358-7.5 7.5v13.753c0 4.142 3.357 7.5 7.5 7.5s7.5-3.358 7.5-7.5v-13.753c0-4.142-3.358-7.5-7.5-7.5z"/><path d="m269.892 207.987c-3.125-2.722-7.862-2.396-10.582.727-2.729 3.132-6.669 4.928-10.81 4.928s-8.081-1.796-10.811-4.928c-2.722-3.123-7.458-3.448-10.582-.727-3.123 2.721-3.448 7.458-.727 10.581 5.579 6.402 13.641 10.074 22.119 10.074s16.539-3.671 22.118-10.074c2.723-3.122 2.397-7.86-.725-10.581z"/></g><path d="m187.84 322.381c-37.667-34.668-61.275-84.376-61.275-139.604 0-44.406 15.263-85.245 40.822-117.567-8.614 1.289-16.79 5.042-23.387 11.147-20.946 19.384-36.488 44.521-44.12 72.898-1.955-.346-4.039-.534-6.271-.534-22.419 0-40.593 18.174-40.593 40.594 0 22.419 18.174 40.593 40.593 40.593 2.307 0 4.455-.203 6.467-.572 12.439 43.78 45.131 76.936 87.764 93.045z" fill="#ffbd86"/><path d="m321.192 119.352c-28.06 0-51.39 20.6-55.69 47.46-5.36-2.19-11.14-3.35-17-3.35-5.87 0-11.65 1.16-17.01 3.35-4.3-26.86-27.63-47.46-55.68-47.46-31.1 0-56.41 25.3-56.41 56.4s25.31 56.41 56.41 56.41c28.41 0 51.97-21.13 55.83-48.5 4.95-3.37 10.83-5.2 16.86-5.2 6.02 0 11.91 1.83 16.85 5.2 3.86 27.37 27.42 48.5 55.84 48.5 31.1 0 56.4-25.31 56.4-56.41s-25.3-56.4-56.4-56.4zm-145.38 97.81c-22.83 0-41.41-18.58-41.41-41.41s18.58-41.4 41.41-41.4 41.4 18.57 41.4 41.4-18.57 41.41-41.4 41.41zm145.38 0c-22.83 0-41.4-18.58-41.4-41.41s18.57-41.4 41.4-41.4 41.4 18.57 41.4 41.4-18.57 41.41-41.4 41.41z" fill="#423e4f"/><path d="m324.511 382.331c-19.95 0-36.123 16.173-36.123 36.123 0 11.267 9.134 20.401 20.401 20.401l15.722 14.452 15.722-14.452c11.267 0 20.401-9.134 20.401-20.401 0-19.95-16.173-36.123-36.123-36.123z" fill="#fed2a4"/><path d="m172.489 382.331c19.95 0 36.123 16.173 36.123 36.123 0 11.267-9.134 20.401-20.401 20.401l-15.722 14.452-15.722-14.452c-11.267 0-20.401-9.134-20.401-20.401 0-19.95 16.173-36.123 36.123-36.123z" fill="#fed2a4"/><path d="m471.654 438.854h-446.308c-13.998 0-25.346 11.348-25.346 25.346v15.886c0 9.107 7.383 16.49 16.49 16.49h464.02c9.107 0 16.49-7.383 16.49-16.49v-15.886c0-13.998-11.348-25.346-25.346-25.346z" fill="#e8a882"/><g><path d="m79.561 438.854h-54.215c-13.998 0-25.346 11.348-25.346 25.346v15.886c0 9.107 7.383 16.49 16.49 16.49h89.392c-13.14-16.457-22.382-36.162-26.321-57.722z" fill="#e3986d"/></g></g></svg>