<svg id="Capa_1" enable-background="new 0 0 511.998 511.998" height="512" viewBox="0 0 511.998 511.998" width="512" xmlns="http://www.w3.org/2000/svg"><g><path d="m91.59 249.827h366.865v231.898h-366.865z" fill="#ffd086"/><path d="m53.543 249.827h41.701v231.898h-41.701z" fill="#ffc365"/><path d="m238.128 306.596h-35.568c-4.872 0-8.822 3.95-8.822 8.822v89.638c0 4.872 3.95 8.822 8.822 8.822h35.567c4.872 0 8.822-3.95 8.822-8.822v-89.638c.001-4.872-3.949-8.822-8.821-8.822z" fill="#00d2fc"/><path d="m222.706 405.056v-89.638c0-4.872 3.95-8.822 8.822-8.822h-28.967c-4.872 0-8.822 3.95-8.822 8.822v89.638c0 4.872 3.95 8.822 8.822 8.822h28.967c-4.873 0-8.822-3.95-8.822-8.822z" fill="#00c2fb"/><path d="m324.857 306.596h-35.567c-4.872 0-8.822 3.95-8.822 8.822v89.638c0 4.872 3.95 8.822 8.822 8.822h35.567c4.872 0 8.822-3.95 8.822-8.822v-89.638c0-4.872-3.95-8.822-8.822-8.822z" fill="#00d2fc"/><path d="m309.435 405.056v-89.638c0-4.872 3.95-8.822 8.822-8.822h-28.967c-4.872 0-8.822 3.95-8.822 8.822v89.638c0 4.872 3.95 8.822 8.822 8.822h28.967c-4.873 0-8.822-3.95-8.822-8.822z" fill="#00c2fb"/><path d="m411.586 306.596h-35.567c-4.872 0-8.822 3.95-8.822 8.822v89.638c0 4.872 3.95 8.822 8.822 8.822h35.567c4.872 0 8.822-3.95 8.822-8.822v-89.638c0-4.872-3.95-8.822-8.822-8.822z" fill="#00d2fc"/><path d="m396.164 405.056v-89.638c0-4.872 3.95-8.822 8.822-8.822h-28.967c-4.872 0-8.822 3.95-8.822 8.822v89.638c0 4.872 3.95 8.822 8.822 8.822h28.967c-4.873 0-8.822-3.95-8.822-8.822z" fill="#00c2fb"/><path d="m153.809 306.596h-15.916l-2.384 1.332-4.059 5.201v168.595h31.18v-166.306c.001-4.872-3.949-8.822-8.821-8.822z" fill="#e39b74"/><path d="m142.114 306.596h-41.701c-4.872 0-8.822 3.95-8.822 8.822v166.307h41.701v-166.307c-.001-4.872 3.949-8.822 8.822-8.822z" fill="#dd8858"/><g><path d="m319.013 235.788c-4.204 0-7.612-3.407-7.612-7.612v-40.348h-35.013c-4.204 0-7.612-3.407-7.612-7.612s3.408-7.612 7.612-7.612h42.625c4.204 0 7.612 3.407 7.612 7.612v47.96c-.001 4.204-3.409 7.612-7.612 7.612z" fill="#dd8858"/></g><g><path d="m385.487 235.788c-4.204 0-7.612-3.407-7.612-7.612v-47.96c0-4.204 3.408-7.612 7.612-7.612h42.625c4.204 0 7.612 3.407 7.612 7.612s-3.408 7.612-7.612 7.612h-35.013v40.348c-.001 4.204-3.409 7.612-7.612 7.612z" fill="#dd8858"/></g><g><path d="m352.25 235.788c-4.204 0-7.612-3.407-7.612-7.612v-69.972c0-4.204 3.408-7.612 7.612-7.612s7.612 3.407 7.612 7.612v69.972c-.001 4.204-3.409 7.612-7.612 7.612z" fill="#dd8858"/></g><g><path d="m352.25 160.117c-4.204 0-7.612-3.407-7.612-7.612v-68.272c0-4.204 3.408-7.612 7.612-7.612s7.612 3.407 7.612 7.612v68.272c-.001 4.204-3.409 7.612-7.612 7.612z" fill="#dd8858"/></g><g><path d="m276.388 235.788c-4.204 0-7.612-3.407-7.612-7.612v-90.726c0-4.204 3.408-7.612 7.612-7.612s7.612 3.407 7.612 7.612v90.726c0 4.204-3.408 7.612-7.612 7.612z" fill="#e39b74"/></g><g><path d="m428.111 235.788c-4.204 0-7.612-3.407-7.612-7.612v-90.726c0-4.204 3.408-7.612 7.612-7.612s7.612 3.407 7.612 7.612v90.726c0 4.204-3.408 7.612-7.612 7.612z" fill="#e39b74"/></g><g><path d="m384.387 161.571h-64.275c-4.204 0-7.612-3.407-7.612-7.612s3.408-7.612 7.612-7.612h64.275c4.204 0 7.612 3.407 7.612 7.612s-3.408 7.612-7.612 7.612z" fill="#e39b74"/></g><g><path d="m352.25 47.529c-4.204 0-7.612-3.407-7.612-7.612v-20.867c0-4.204 3.408-7.612 7.612-7.612s7.612 3.407 7.612 7.612v20.868c-.001 4.204-3.409 7.611-7.612 7.611z" fill="#e39b74"/></g><g><path d="m116.157 24.837c-4.204 0-7.612-3.407-7.612-7.612v-9.613c0-4.204 3.408-7.612 7.612-7.612s7.612 3.407 7.612 7.612v9.614c-.001 4.203-3.409 7.611-7.612 7.611z" fill="#ffd086"/></g><g><path d="m116.157 144.214c-4.204 0-7.612-3.407-7.612-7.612v-9.614c0-4.204 3.408-7.612 7.612-7.612s7.612 3.407 7.612 7.612v9.614c-.001 4.204-3.409 7.612-7.612 7.612z" fill="#ffd086"/></g><g><path d="m77.349 40.911c-1.948 0-3.896-.743-5.382-2.229l-6.798-6.798c-2.973-2.973-2.973-7.792 0-10.765 2.972-2.971 7.792-2.971 10.764 0l6.798 6.798c2.973 2.973 2.973 7.792 0 10.765-1.486 1.486-3.434 2.229-5.382 2.229z" fill="#ffd086"/></g><g><path d="m161.762 125.324c-1.948 0-3.896-.743-5.382-2.229l-6.798-6.798c-2.973-2.973-2.973-7.792 0-10.764 2.973-2.973 7.792-2.972 10.764-.001l6.798 6.798c2.973 2.972 2.973 7.792 0 10.764-1.486 1.486-3.434 2.23-5.382 2.23z" fill="#ffd086"/></g><g><path d="m61.275 79.719h-9.614c-4.204 0-7.612-3.407-7.612-7.612s3.408-7.612 7.612-7.612h9.614c4.204 0 7.612 3.407 7.612 7.612s-3.408 7.612-7.612 7.612z" fill="#ffd086"/></g><g><path d="m180.652 79.719h-9.614c-4.204 0-7.612-3.407-7.612-7.612s3.408-7.612 7.612-7.612h9.614c4.204 0 7.612 3.407 7.612 7.612s-3.408 7.612-7.612 7.612z" fill="#ffd086"/></g><g><path d="m70.552 125.324c-1.948 0-3.896-.743-5.382-2.229-2.973-2.973-2.973-7.792 0-10.765l6.798-6.798c2.972-2.971 7.792-2.971 10.764 0 2.973 2.973 2.973 7.792 0 10.765l-6.798 6.798c-1.486 1.485-3.434 2.229-5.382 2.229z" fill="#ffd086"/></g><g><path d="m154.964 40.911c-1.948 0-3.896-.743-5.382-2.23-2.972-2.972-2.972-7.792 0-10.764l6.798-6.798c2.973-2.971 7.792-2.972 10.764.001 2.973 2.972 2.973 7.791 0 10.764l-6.798 6.798c-1.486 1.486-3.435 2.229-5.382 2.229z" fill="#ffd086"/></g><path d="m352.25 35.857c-31.309 0-58.303 18.465-70.692 45.098-1.769 3.803 1.039 8.157 5.234 8.157h37.709l4.215-3.187h23.534z" fill="#ef6060"/><path d="m352.25 35.857v50.068h24.673l3.076 3.187h37.709c4.194 0 7.003-4.354 5.234-8.157-12.39-26.633-39.384-45.098-70.692-45.098z" fill="#f67b7b"/><path d="m363.328 41.657h-1.883l-8.965 15.598-5.328 19.367-2.03 9.811 1.536 2.679h33.339c-2.696-21.548-8.832-38.899-16.669-47.455z" fill="#c9f0fe"/><path d="m352.25 35.857c-12.916 0-23.875 22.31-27.749 53.254h22.158c2.697-21.548 8.833-38.898 16.67-47.455-3.418-3.731-7.157-5.799-11.079-5.799z" fill="#9be8fd"/><g><path d="m136.752 402.673c-4.204 0-7.612-3.407-7.612-7.612v-7.865c0-4.204 3.408-7.612 7.612-7.612s7.612 3.407 7.612 7.612v7.865c-.001 4.204-3.409 7.612-7.612 7.612z" fill="#eaae8e"/></g><g><path d="m238.128 421.489h-35.568c-9.061 0-16.433-7.372-16.433-16.433v-89.639c0-9.061 7.372-16.433 16.433-16.433h35.568c9.061 0 16.434 7.372 16.434 16.433v89.639c-.001 9.062-7.373 16.433-16.434 16.433zm-35.568-107.282c-.667 0-1.21.543-1.21 1.21v89.639c0 .667.543 1.21 1.21 1.21h35.568c.667 0 1.211-.543 1.211-1.21v-89.639c0-.667-.543-1.21-1.211-1.21z" fill="#6b7ed9"/></g><g><path d="m324.857 421.489h-35.567c-9.061 0-16.434-7.372-16.434-16.433v-89.639c0-9.061 7.372-16.433 16.434-16.433h35.568c9.061 0 16.433 7.372 16.433 16.433v89.639c-.001 9.062-7.372 16.433-16.434 16.433zm-35.567-107.282c-.667 0-1.211.543-1.211 1.21v89.639c0 .667.543 1.21 1.211 1.21h35.568c.667 0 1.21-.543 1.21-1.21v-89.639c0-.667-.543-1.21-1.21-1.21z" fill="#6b7ed9"/></g><g><path d="m411.586 421.489h-35.567c-9.061 0-16.434-7.372-16.434-16.433v-89.639c0-9.061 7.372-16.433 16.434-16.433h35.567c9.061 0 16.434 7.372 16.434 16.433v89.639c0 9.062-7.373 16.433-16.434 16.433zm-35.567-107.282c-.668 0-1.211.543-1.211 1.21v89.639c0 .667.543 1.21 1.211 1.21h35.567c.667 0 1.211-.543 1.211-1.21v-89.639c0-.667-.543-1.21-1.211-1.21z" fill="#6b7ed9"/></g><g><path d="m241.7 367.849h-42.625c-4.204 0-7.612-3.407-7.612-7.612 0-4.204 3.408-7.612 7.612-7.612h42.625c4.204 0 7.612 3.407 7.612 7.612-.001 4.204-3.409 7.612-7.612 7.612z" fill="#6b7ed9"/></g><g><path d="m327.964 367.849h-42.371c-4.204 0-7.612-3.407-7.612-7.612 0-4.204 3.408-7.612 7.612-7.612h42.371c4.204 0 7.612 3.407 7.612 7.612-.001 4.204-3.409 7.612-7.612 7.612z" fill="#6b7ed9"/></g><g><path d="m415.327 367.849h-42.963c-4.204 0-7.612-3.407-7.612-7.612 0-4.204 3.408-7.612 7.612-7.612h42.963c4.204 0 7.612 3.407 7.612 7.612 0 4.204-3.408 7.612-7.612 7.612z" fill="#6b7ed9"/></g><path d="m128.924 49.925h-3.453l-8.249 9.226-3.237 11.903 2.171 12.216 4.699 8.144 8.069 2.874c7.666-4.422 12.829-12.696 12.829-22.182s-5.163-17.759-12.829-22.181z" fill="#ffc365"/><path d="m116.095 72.107c0-9.486 5.164-17.76 12.829-22.182-3.759-2.168-8.116-3.415-12.768-3.415-14.137 0-25.597 11.46-25.597 25.597s11.46 25.597 25.597 25.597c4.651 0 9.009-1.247 12.768-3.415-7.665-4.422-12.829-12.697-12.829-22.182z" fill="#ffa90f"/><path d="m496.934 475.661h-444.795l-3.95 2.257-3.637 3.045v21.735l.93 4.652 4.398 3.975 1.958.673h445.095c6.218 0 11.259-5.041 11.259-11.258v-13.82c0-6.218-5.04-11.259-11.258-11.259z" fill="#92df93"/><path d="m45.507 500.74v-13.82c0-6.218 5.041-11.258 11.259-11.258h-41.702c-6.218 0-11.259 5.041-11.259 11.258v13.82c0 6.218 5.041 11.258 11.259 11.258h41.701c-6.217 0-11.258-5.041-11.258-11.258z" fill="#73d578"/><path d="m472.288 218.808h-396.321c-2.136 1.344-3.844 2.433-3.844 2.433l-3.721 5.413v22.665l3.679 4.059s3.201.95 5.986 1.766h394.222c6.218 0 11.258-5.041 11.258-11.258v-13.82c-.001-6.218-5.041-11.258-11.259-11.258z" fill="#62ddfc"/><path d="m70.153 243.886v-13.82c0-6.218 5.041-11.258 11.258-11.258h-41.701c-6.218 0-11.258 5.041-11.258 11.258v13.82c0 6.218 5.041 11.258 11.258 11.258h41.701c-6.217 0-11.258-5.04-11.258-11.258z" fill="#00d2fc"/></g></svg>