<svg height="512" viewBox="0 0 64 64" width="512" xmlns="http://www.w3.org/2000/svg"><g id="tv"><path d="m57 8v28a1.0029 1.0029 0 0 1 -1 1h-18l-2.19 2h-7.68l-2.13-2h-18a1.0029 1.0029 0 0 1 -1-1v-28a1.0029 1.0029 0 0 1 1-1h48a1.0029 1.0029 0 0 1 1 1z" fill="#333"/><path d="m40 7a50.7835 50.7835 0 0 1 -11.29 32h-.58l-2.13-2h-18a1.0029 1.0029 0 0 1 -1-1v-28a1.0029 1.0029 0 0 1 1-1z" fill="#4d4d4d"/><path d="m9 9h46v26h-46z" fill="#4279bd"/><path d="m39.95 9a50.5827 50.5827 0 0 1 -8.32 26h-22.63v-26z" fill="#65a8dc"/><path d="m15.85 37-2.55 4.82a2.0018 2.0018 0 0 1 -3.54-1.87l1.56-2.95z" fill="#333"/><path d="m53.4 42.65a1.9953 1.9953 0 0 1 -2.7-.83l-2.55-4.82h4.53l1.56 2.95a1.9988 1.9988 0 0 1 -.84 2.7z" fill="#333"/><path d="m58 47v9a2.0059 2.0059 0 0 1 -2 2h-48a2.0059 2.0059 0 0 1 -2-2v-9a1.0029 1.0029 0 0 1 1-1h50a1.0029 1.0029 0 0 1 1 1z" fill="#d38a54"/><path d="m34.11 46a36.0507 36.0507 0 0 1 -5.17 12h-20.94a2.0059 2.0059 0 0 1 -2-2v-9a1.0029 1.0029 0 0 1 1-1z" fill="#eaa16e"/><path d="m47 47.17v10.83h-29v-10.83a1.0942 1.0942 0 0 1 1-1.17h27a1.0942 1.0942 0 0 1 1 1.17z" fill="#ad6036"/><path d="m34.11 46a36.0507 36.0507 0 0 1 -5.17 12h-10.94v-10.83a1.0942 1.0942 0 0 1 1-1.17z" fill="#d38a54"/><path d="m33 47.17v10.83h-2v-10.83a1.0124 1.0124 0 1 1 2 0z" fill="#8e4c2f"/><path d="m33 47.17v2.69a36.1766 36.1766 0 0 1 -2 4.65v-7.34a1.0124 1.0124 0 1 1 2 0z" fill="#ad6036"/><rect fill="#eaa16e" height="6" rx="2" width="56" x="4" y="42"/><path d="m34.77 42a35.0019 35.0019 0 0 1 -1.18 6h-27.59a2.0059 2.0059 0 0 1 -2-2v-2a2.0059 2.0059 0 0 1 2-2z" fill="#ffc48f"/><path d="m28 54a1 1 0 0 1 -1-1v-2a1 1 0 0 1 2 0v2a1 1 0 0 1 -1 1z" fill="#ad6036"/><path d="m36 54a1 1 0 0 1 -1-1v-2a1 1 0 0 1 2 0v2a1 1 0 0 1 -1 1z" fill="#8e4c2f"/></g></svg>