<?xml version="1.0" encoding="iso-8859-1"?>
<!-- Generator: Adobe Illustrator 19.0.0, SVG Export Plug-In . SVG Version: 6.00 Build 0)  -->
<svg version="1.1" id="Capa_1" xmlns="http://www.w3.org/2000/svg" xmlns:xlink="http://www.w3.org/1999/xlink" x="0px" y="0px"
	 viewBox="0 0 512 512" style="enable-background:new 0 0 512 512;" xml:space="preserve">
<g>
	<path style="fill:#606C7C;" d="M104.529,498.092c0,7.681,6.227,13.908,13.908,13.908c7.682,0,13.908-6.227,13.908-13.908
		c0-3.694,0-14.281,0-18.029h-27.817C104.529,484.033,104.529,494.119,104.529,498.092z"/>
	<path style="fill:#606C7C;" d="M379.691,480.062v4.121v9.787v4.121c0,7.681,6.227,13.908,13.908,13.908
		c7.682,0,13.908-6.227,13.908-13.908v-4.121c0-1.075,0-10.403,0-13.908H379.691z"/>
</g>
<path style="fill:#E6E6E6;" d="M405.45,0H106.96C89.781,0,75.725,14.056,75.725,31.235v20.793c0,18.667,0,436.906,0,419.793
	c0,6.8,5.563,12.363,12.363,12.363h335.86c6.8,0,12.363-5.563,12.363-12.363c0-23.251,0-395.816,0-418.591V30.861
	C436.311,13.888,422.423,0,405.45,0z"/>
<path style="fill:#CCCCCC;" d="M104.011,471.82c0-23.293,0-396.975,0-419.793V31.234C104.011,14.056,118.067,0,135.246,0H106.96
	C89.781,0,75.725,14.056,75.725,31.234v20.793c0,22.821,0,396.5,0,419.793c0,6.799,5.563,12.363,12.363,12.363h28.286
	C109.575,484.183,104.011,478.62,104.011,471.82z"/>
<circle style="fill:#A5E4F2;" cx="256.017" cy="282.41" r="102.74"/>
<path style="fill:#7DDBF4;" d="M215.224,305.964c-23.55-40.79-15.947-91.015,15.422-123.132
	c-8.903,2.274-17.648,5.785-25.997,10.606c-49.139,28.37-65.975,91.204-37.605,140.343s91.204,65.975,140.343,37.605
	c8.349-4.82,15.762-10.637,22.183-17.211C286.071,365.282,238.774,346.754,215.224,305.964z"/>
<path style="fill:#51C6E5;" d="M75.725,455.369c0,4.264,0,12.346,0,16.452c0,6.8,5.563,12.363,12.363,12.363h335.86
	c6.8,0,12.363-5.563,12.363-12.363c0-4.145,0-12.242,0-16.452H75.725z"/>
<path style="fill:#34B3D1;" d="M116.373,484.183c-6.799-0.001-12.362-5.564-12.362-12.363c0-4.145,0-12.242,0-16.452H75.725v7.212
	c0.701,5.564-2.412,14.152,5.463,19.484c1.271,0.861,2.408,1.317,3.54,1.64C85.799,484.009,87.112,484.017,116.373,484.183z"/>
<rect x="75.727" y="87.93" style="fill:#606C7C;" width="360.59" height="28.815"/>
<g>
	<rect x="75.727" y="87.93" style="fill:#4E5B68;" width="28.29" height="28.815"/>
	<rect x="184.767" y="87.93" style="fill:#4E5B68;" width="136.19" height="28.815"/>
</g>
<path style="fill:#606C7C;" d="M358.345,322.595c-2.511,0-4.85-0.763-6.806-2.062c-15.154,37.918-52.259,64.779-95.521,64.779
	c-56.695,0-102.819-46.125-102.819-102.819c0-56.695,46.125-102.819,102.819-102.819c43.262,0,80.367,26.861,95.521,64.779
	c1.956-1.299,4.295-2.061,6.806-2.061h22.003c-16.965-52.474-66.282-90.534-124.33-90.534c-72.033,0-130.636,58.603-130.636,130.636
	S183.985,413.13,256.018,413.13c58.048,0,107.365-38.061,124.33-90.534L358.345,322.595L358.345,322.595z"/>
<path style="fill:#4E5B68;" d="M279.778,399.22c-72.033,0-130.636-58.603-130.636-130.636c0-43.134,21.019-81.446,53.346-105.249
	c-45.415,20.483-77.105,66.188-77.105,119.157c0,72.033,58.603,130.636,130.636,130.636c28.941,0,55.71-9.465,77.383-25.456
	C317.03,395.075,298.883,399.22,279.778,399.22z"/>
<path style="fill:#CDF3F9;" d="M314.657,250.116c-2.463,0-4.884-1.175-6.381-3.359c-11.829-17.262-31.365-27.566-52.258-27.566
	c-4.267,0-7.727-3.459-7.727-7.727s3.459-7.727,7.727-7.727c25.993,0,50.294,12.816,65.006,34.283
	c2.413,3.52,1.515,8.33-2.006,10.742C317.683,249.678,316.162,250.116,314.657,250.116z"/>
<path style="fill:#5FBBE0;" d="M256.018,385.312c43.262,0,80.366-26.86,95.521-64.779c0.26,0.173,0.527,0.333,0.799,0.486
	c-3.782-2.12-6.357-6.166-6.357-10.788v-18.667c-22.361,0.107-22.424,20.6-44.902,20.6c-22.537,0-22.537-20.605-45.074-20.605
	c-22.536,0-22.536,20.605-45.072,20.605s-22.536-20.605-45.071-20.605c-4.92,0-8.766,0.983-12.007,2.519
	C159.631,345.338,203.241,385.312,256.018,385.312z"/>
<path style="fill:#51C6E5;" d="M256.018,385.312c43.262,0,80.366-26.86,95.521-64.779c0.26,0.173,0.527,0.333,0.799,0.486
	c-3.782-2.12-6.357-6.166-6.357-10.788v-18.667c-22.361,0.107-22.424,20.6-44.902,20.6c-22.537,0-22.537-20.605-45.074-20.605
	c-22.536,0-22.536,20.605-45.072,20.605s-22.536-20.605-45.071-20.605c-4.92,0-8.766,0.983-12.007,2.519
	C159.631,345.338,203.241,385.312,256.018,385.312z"/>
<path style="fill:#34B3D1;" d="M218.516,311.25c-2.227,0.58-4.721,0.914-7.582,0.914c-22.536,0-22.536-20.605-45.071-20.605
	c-4.888,0-8.713,0.971-11.94,2.489c1.544,13.603,5.84,27.119,13.122,39.732c28.37,49.139,91.204,65.975,140.343,37.605
	c8.349-4.82,15.762-10.637,22.183-17.211C288.003,364.789,242.984,348.325,218.516,311.25z"/>
<path style="fill:#F7AB31;" d="M393.599,159.584h-32.507c-4.267,0-7.727-3.459-7.727-7.727s3.46-7.727,7.727-7.727h32.507
	c4.267,0,7.727,3.459,7.727,7.727C401.326,156.125,397.866,159.584,393.599,159.584z"/>
<circle style="fill:#CCCCCC;" cx="125.387" cy="43.781" r="14.407"/>
<path style="fill:#B7B7B7;" d="M125.383,43.781c-2.665-4.616-2.473-10.087,0.006-14.396c-2.451-0.004-4.935,0.606-7.21,1.919
	c-6.891,3.978-9.252,12.79-5.273,19.681c3.978,6.891,12.79,9.252,19.681,5.273c2.275-1.314,4.045-3.16,5.267-5.285
	C132.881,50.966,128.047,48.396,125.383,43.781z"/>
<path style="fill:#CCCCCC;" d="M436.311,36.054H279.96c-4.267,0-7.727,3.459-7.727,7.727s3.46,7.727,7.727,7.727h156.351
	L436.311,36.054L436.311,36.054z"/>
<path id="SVGCleanerId_0" style="fill:#CCCCCC;" d="M384.445,322.595h-26.1c-6.8,0-12.363-5.563-12.363-12.363v-55.478
	c0-6.8,5.563-12.363,12.363-12.363h26.1c6.8,0,12.363,5.563,12.363,12.363v55.478C396.808,317.031,391.244,322.595,384.445,322.595z
	"/>
<g>
	<path id="SVGCleanerId_0_1_" style="fill:#CCCCCC;" d="M384.445,322.595h-26.1c-6.8,0-12.363-5.563-12.363-12.363v-55.478
		c0-6.8,5.563-12.363,12.363-12.363h26.1c6.8,0,12.363,5.563,12.363,12.363v55.478C396.808,317.031,391.244,322.595,384.445,322.595
		z"/>
</g>
<path style="fill:#B7B7B7;" d="M384.445,287.644h-26.1c-6.8,0-12.363-5.563-12.363-12.363v34.951
	c0,6.799,5.563,12.363,12.363,12.363h26.1c6.8,0,12.363-5.563,12.363-12.363v-34.951
	C396.808,282.08,391.244,287.644,384.445,287.644z"/>
<g>
	<path style="fill:#E6E6E6;" d="M371.405,277.341c-4.267,0-7.732-3.459-7.732-7.727s3.455-7.727,7.722-7.727h0.01
		c4.268,0,7.727,3.459,7.727,7.727S375.673,277.341,371.405,277.341z"/>
	<path style="fill:#E6E6E6;" d="M371.405,303.098c-4.267,0-7.732-3.459-7.732-7.727c0-4.268,3.455-7.727,7.722-7.727h0.01
		c4.268,0,7.727,3.459,7.727,7.727C379.132,299.639,375.673,303.098,371.405,303.098z"/>
</g>
<circle style="fill:#CCCCCC;" cx="180.567" cy="43.781" r="14.407"/>
<path style="fill:#B7B7B7;" d="M180.563,43.781c-2.665-4.616-2.473-10.087,0.006-14.396c-2.451-0.004-4.935,0.606-7.21,1.919
	c-6.891,3.978-9.252,12.79-5.273,19.681c3.978,6.891,12.79,9.252,19.681,5.273c2.275-1.314,4.045-3.16,5.267-5.285
	C188.062,50.966,183.228,48.396,180.563,43.781z"/>
<circle style="fill:#CCCCCC;" cx="235.747" cy="43.781" r="14.407"/>
<path style="fill:#B7B7B7;" d="M235.744,43.781c-2.665-4.616-2.473-10.087,0.006-14.396c-2.451-0.004-4.935,0.606-7.21,1.919
	c-6.891,3.978-9.252,12.79-5.273,19.681c3.978,6.891,12.79,9.252,19.681,5.273c2.275-1.314,4.045-3.16,5.267-5.285
	C243.243,50.966,238.409,48.396,235.744,43.781z"/>
<g>
</g>
<g>
</g>
<g>
</g>
<g>
</g>
<g>
</g>
<g>
</g>
<g>
</g>
<g>
</g>
<g>
</g>
<g>
</g>
<g>
</g>
<g>
</g>
<g>
</g>
<g>
</g>
<g>
</g>
</svg>
