<svg id="Capa_1" enable-background="new 0 0 512 512" height="512" viewBox="0 0 512 512" width="512" xmlns="http://www.w3.org/2000/svg"><g><path d="m387.976 360.911c-4.2 0-261.352 0-263.952 0-3.048 0-5.988-.482-8.753-1.367v48.885c0 14.389 11.773 26.162 26.162 26.162h229.133c14.389 0 26.162-11.773 26.162-26.162v-48.885c-2.764.885-5.704 1.367-8.752 1.367z" fill="#4f67d2"/><g><g><g><path d="m156.648 408.43v-47.519c-19.439 0-32.058 0-32.624 0-3.048 0-5.988-.482-8.753-1.367v48.885c0 14.389 11.773 26.162 26.162 26.162h41.376c-14.388 0-26.161-11.772-26.161-26.161z" fill="#324ccc"/></g></g></g><path d="m100.472 43.51v284.045c.437-.09.89-.137 1.354-.137h308.348c.464 0 .917.047 1.354.137v-284.045z" fill="#dfebfa"/><g><path d="m141.848 43.51h-41.376v284.045c.437-.09.89-.137 1.354-.137h40.022z" fill="#b1dbfc"/></g><path d="m305.135 461.362h25.015c.516 0 1.02.057 1.508.161v-101.979h-28.031v101.979c.488-.104.992-.161 1.508-.161z" fill="#dfebfa"/><path d="m181.85 461.362h25.015c.516 0 1.02.057 1.508.161v-101.979h-28.031v101.979c.488-.104.992-.161 1.508-.161z" fill="#dfebfa"/><path d="m317.642 359.544h-14.016v101.978c.488-.104.992-.161 1.508-.161h12.507v-101.817z" fill="#b1dbfc"/><path d="m194.358 359.544h-14.016v101.978c.488-.104.992-.161 1.508-.161h12.507v-101.817z" fill="#b1dbfc"/><path d="m382.615 0h-253.23c-15.902 0-28.913 13.011-28.913 28.913v16.658h311.056v-16.658c0-15.902-13.011-28.913-28.913-28.913z" fill="#60b8fe"/><path d="m170.762 0h-41.376c-15.902 0-28.913 13.011-28.913 28.913v16.658h41.376v-16.658c-.001-15.902 13.01-28.913 28.913-28.913z" fill="#23a8fe"/><circle cx="256" cy="198.997" fill="#b1dbfc" r="50.838"/><path d="m232.205 198.997c0-23.393 15.806-43.083 37.316-49.006-4.307-1.186-8.837-1.832-13.521-1.832-28.077 0-50.838 22.761-50.838 50.838s22.761 50.838 50.838 50.838c4.684 0 9.214-.646 13.521-1.832-21.511-5.923-37.316-25.613-37.316-49.006z" fill="#8bcaff"/><circle cx="340.466" cy="265.65" fill="#8bcaff" r="15.816"/><circle cx="171.534" cy="265.65" fill="#ff656f" r="15.816"/><path d="m340.344 265.65c0-5.876 3.212-10.993 7.969-13.72-2.314-1.327-4.988-2.096-7.847-2.096-8.735 0-15.816 7.081-15.816 15.816s7.081 15.816 15.816 15.816c2.858 0 5.533-.77 7.847-2.096-4.757-2.727-7.969-7.844-7.969-13.72z" fill="#60b8fe"/><path d="m171.412 265.65c0-5.876 3.212-10.993 7.969-13.72-2.314-1.327-4.988-2.096-7.847-2.096-8.735 0-15.816 7.081-15.816 15.816s7.081 15.816 15.816 15.816c2.859 0 5.533-.77 7.847-2.096-4.757-2.727-7.969-7.844-7.969-13.72z" fill="#ff4756"/><g><path d="m256 196.422c-4.267 0-7.726-3.459-7.726-7.726v-18.382c0-4.268 3.459-7.726 7.726-7.726s7.726 3.459 7.726 7.726v18.382c0 4.268-3.459 7.726-7.726 7.726z" fill="#dfebfa"/></g><circle cx="256" cy="198.997" fill="#4f67d2" r="13.667"/><path d="m330.15 458.387h-25.015c-4.285 0-7.759 3.474-7.759 7.759v38.095c0 4.285 3.474 7.759 7.759 7.759h25.015c4.285 0 7.759-3.474 7.759-7.759v-38.095c-.001-4.285-3.475-7.759-7.759-7.759z" fill="#b1dbfc"/><path d="m206.865 458.387h-25.015c-4.285 0-7.758 3.474-7.758 7.759v38.095c0 4.285 3.474 7.759 7.758 7.759h25.015c4.285 0 7.758-3.474 7.758-7.759v-38.095c.001-4.285-3.473-7.759-7.758-7.759z" fill="#b1dbfc"/><path d="m317.642 504.241v-38.095c0-4.285 3.474-7.759 7.758-7.759h-20.266c-4.285 0-7.759 3.474-7.759 7.759v38.095c0 4.285 3.474 7.759 7.759 7.759h20.266c-4.284 0-7.758-3.474-7.758-7.759z" fill="#8bcaff"/><path d="m194.358 504.241v-38.095c0-4.285 3.474-7.759 7.759-7.759h-20.267c-4.285 0-7.759 3.474-7.759 7.759v38.095c0 4.285 3.474 7.759 7.759 7.759h20.266c-4.285 0-7.758-3.474-7.758-7.759z" fill="#8bcaff"/><path d="m410.174 324.328h-308.348c-3.709 0-6.715 3.007-6.715 6.715v4.045c0 15.902 13.011 28.913 28.913 28.913h263.952c15.902 0 28.913-13.011 28.913-28.913v-4.045c0-3.708-3.006-6.715-6.715-6.715z" fill="#60b8fe"/><path d="m136.487 335.088v-4.045c0-3.709 3.007-6.715 6.715-6.715h-41.376c-3.709 0-6.715 3.007-6.715 6.715v4.045c0 15.902 13.011 28.913 28.913 28.913h41.376c-15.902.001-28.913-13.01-28.913-28.913z" fill="#23a8fe"/></g></svg>