<svg id="Capa_1" enable-background="new 0 0 512 512" height="512" viewBox="0 0 512 512" width="512" xmlns="http://www.w3.org/2000/svg"><g><path d="m208.107 235.463-42.922-15.622c-29.133-10.603-61.345 4.417-71.948 33.55l-21.281 58.471c-8.006 21.997-5.617 45.236 4.641 64.359-12.465 22.322-33.444 46.619-59.304 68.169-11.763 9.802-13.353 27.284-3.551 39.046 9.816 11.78 27.3 13.34 39.047 3.551 24.658-20.549 49.167-46.496 66.408-73.891 40.974 14.888 86.266-6.242 101.179-47.214l21.281-58.471c10.603-29.132-4.417-61.345-33.55-71.948z" fill="#f6b88e"/><path d="m178.856 287.196c22.587 0 44.492-4.252 64.58-12.32-4.317-17.582-17.039-32.757-35.329-39.414l-42.922-15.622c-29.133-10.603-61.345 4.417-71.948 33.55l-3.363 9.24c26.099 15.967 56.851 24.566 88.982 24.566z" fill="#f3a977"/><path d="m76.596 376.221c-12.465 22.322-33.444 46.619-59.304 68.169-11.763 9.802-13.353 27.284-3.551 39.046 9.816 11.781 27.3 13.34 39.047 3.551 24.658-20.549 49.167-46.496 66.408-73.891 40.974 14.888 86.266-6.242 101.179-47.214l-148.42-54.021c-8.006 21.997-5.617 45.236 4.641 64.36z" fill="#8daee1"/><path d="m32.418 430.94c-4.824 4.569-9.867 9.068-15.125 13.449-11.763 9.802-13.353 27.284-3.551 39.046 9.816 11.781 27.3 13.34 39.047 3.551 6.297-5.248 12.582-10.851 18.741-16.737z" fill="#6e768f"/><ellipse cx="178.856" cy="142.347" fill="#ffd3bd" rx="128.596" ry="113.944"/><path d="m175.712 28.438c-69.569 1.48-125.452 51.911-125.452 113.909 0 14.972 3.265 29.266 9.188 42.362 28.995 1.963 70.726-2.58 119.408-37.968z" fill="#e7889d"/><path d="m122.872 467.595v-423.19c0-24.524 19.881-44.405 44.405-44.405h293.002c24.524 0 44.405 19.881 44.405 44.405v423.189c0 24.524-19.881 44.405-44.405 44.405h-293.002c-24.524.001-44.405-19.88-44.405-44.404z" fill="#daa985"/><path d="m211.441 0h-44.165c-24.524 0-44.405 19.881-44.405 44.405v423.189c0 24.524 19.881 44.405 44.405 44.405h133.195c-78.498-88.031-102.535-300.968-89.03-511.999z" fill="#d1986f"/><path d="m460.327 226.777v-160.07c0-12.343-10.006-22.349-22.349-22.349h-248.4c-12.343 0-22.349 10.006-22.349 22.349v160.07c0 12.343 10.006 22.349 22.349 22.349h248.4c12.343 0 22.349-10.006 22.349-22.349z" fill="#fbf1cf"/><g><g><path d="m366.286 177.588c-19.432 0-35.241-15.81-35.241-35.241 0-19.432 15.81-35.24 35.241-35.24 7.061 0 13.875 2.083 19.708 6.023 3.433 2.319 4.335 6.981 2.017 10.413-2.318 3.433-6.98 4.335-10.413 2.017-3.344-2.259-7.256-3.453-11.312-3.453-11.161 0-20.241 9.08-20.241 20.24 0 11.161 9.08 20.241 20.241 20.241 4.104 0 7.547-1.215 10.236-3.609.522-.465 1.025-.985 1.496-1.546 2.664-3.172 7.395-3.583 10.567-.919 3.171 2.665 3.583 7.395.919 10.567-.935 1.112-1.946 2.154-3.006 3.099-5.44 4.846-12.43 7.408-20.212 7.408z" fill="#6e768f"/></g><path d="m304.785 107.354c-4.065-.815-8.011 1.829-8.819 5.892l-5.993 30.11-9.536-30.957c-1.22-3.96-5.419-6.179-9.376-4.96-2.672.823-4.546 3.004-5.111 5.551l-9.401 30.373-5.976-30.211c-.804-4.063-4.746-6.71-8.813-5.902-4.064.804-6.706 4.749-5.902 8.813l10.81 54.649c.071.359.168.712.291 1.057 1.239 3.488 4.548 5.821 8.246 5.821.021 0 .041-.001.062-.001 3.723-.025 7.028-2.411 8.226-5.936.021-.064.043-.129.064-.194l9.713-31.378 9.668 31.385c.032.102.065.203.102.304 1.239 3.488 4.548 5.821 8.246 5.821.021 0 .041-.001.061-.001 3.723-.025 7.028-2.411 8.226-5.936.105-.31.19-.627.254-.948l10.853-54.529c.805-4.067-1.832-8.015-5.895-8.823z" fill="#6e768f"/></g><path d="m167.229 315.833v129.46c0 12.343 10.006 22.349 22.349 22.349h248.4c12.343 0 22.349-10.006 22.349-22.349v-129.46c0-12.343-10.006-22.349-22.349-22.349h-248.4c-12.343 0-22.349 10.006-22.349 22.349z" fill="#fbf1cf"/><path d="m167.229 315.833v129.46c0 12.343 10.006 22.349 22.349 22.349h248.4c12.343 0 22.349-10.006 22.349-22.349v-129.46c0-12.343-10.006-22.349-22.349-22.349h-248.4c-12.343 0-22.349 10.006-22.349 22.349z" fill="#fbf1cf"/><path d="m189.578 293.484c-12.343 0-22.349 10.006-22.349 22.349v129.46c0 12.343 10.006 22.349 22.349 22.349h80.874c-23.784-45.251-40.257-105.523-50.305-174.158z" fill="#f7dfb7"/><path d="m209.156 44.358h-19.578c-12.343 0-22.349 10.006-22.349 22.349v160.07c0 12.343 10.006 22.349 22.349 22.349h25.067c-6.607-64.287-8.224-134.135-5.489-204.768z" fill="#f7dfb7"/><ellipse cx="196.565" cy="271.305" fill="#f6ee86" rx="38.446" ry="38.446" transform="matrix(.707 -.707 .707 .707 -134.269 218.456)"/><path d="m196.565 281.634c-4.143 0-7.5-3.357-7.5-7.5v-5.658c0-4.143 3.357-7.5 7.5-7.5s7.5 3.357 7.5 7.5v5.658c0 4.142-3.357 7.5-7.5 7.5z" fill="#6e768f"/><path d="m345.186 388.063h-62.817c-4.143 0-7.5-3.357-7.5-7.5s3.357-7.5 7.5-7.5h62.817c4.143 0 7.5 3.357 7.5 7.5s-3.357 7.5-7.5 7.5z" fill="#daa985"/></g></svg>