<svg id="Capa_1" enable-background="new 0 0 512 512" height="512" viewBox="0 0 512 512" width="512" xmlns="http://www.w3.org/2000/svg"><path d="m58.107 79.373h395.787v353.254h-395.787z" fill="#5ce9ff" transform="matrix(-1 0 0 -1 512 512)"/><path d="m435.313 79.373h18.581v353.254h-18.581z" fill="#00e3f9"/><path d="m481.697 512h-451.394c-2.845 0-5.151-2.306-5.151-5.151v-27.787h461.696v27.787c0 2.845-2.306 5.151-5.151 5.151z" fill="#d56723"/><path d="m468.267 479.062v32.938h13.429c2.845 0 5.151-2.306 5.151-5.151v-27.787z" fill="#b6591e"/><path d="m303.271 375.258h89.721l-9.291 57.369h-71.14z" fill="#ffa549"/><path d="m374.411 375.258-9.29 57.369h18.58l9.291-57.369z" fill="#ff9200"/><path d="m506.849 479.062h-501.698c-2.845 0-5.151-2.306-5.151-5.151v-20.639c0-11.402 9.243-20.645 20.645-20.645h470.71c11.402 0 20.645 9.243 20.645 20.645v20.639c0 2.845-2.306 5.151-5.151 5.151z" fill="#eb966d"/><path d="m491.355 46.435h-470.71c-11.402 0-20.645-9.243-20.645-20.645v-20.639c0-2.845 2.306-5.151 5.151-5.151h501.698c2.845 0 5.151 2.306 5.151 5.151v20.639c0 11.402-9.243 20.645-20.645 20.645z" fill="#eb966d"/><path d="m493.419 0v25.79c0 11.402-9.243 20.645-20.645 20.645h18.581c11.402 0 20.645-9.243 20.645-20.645v-20.639c0-2.845-2.306-5.151-5.151-5.151z" fill="#e8834d"/><path d="m89.63 432.627h35.174l189.566-189.566h-35.173z" fill="#a4f9ff"/><path d="m58.107 402.693v29.934h31.523l189.567-189.566h-61.458z" fill="#80f2f5"/><path d="m58.107 79.373v163.688h395.786v-163.688" fill="#eaeff9"/><path d="m435.313 79.373h18.581v163.688h-18.581z" fill="#dbe0ea"/><path d="m25.152 46.435v32.938 353.254h32.955v-353.254h395.786v353.254h32.955v-353.254-32.938z" fill="#a95118"/><path d="m39.526 432.627h18.581v-353.254h-13.42c-2.851 0-5.161 2.311-5.161 5.161z" fill="#994916"/><path d="m468.267 46.435v32.938 353.254h18.581v-353.254-32.938z" fill="#994916"/><path d="m491.355 432.627h-18.581c11.402 0 20.645 9.243 20.645 20.645v25.79h13.429c2.845 0 5.151-2.306 5.151-5.151v-20.639c.001-11.402-9.242-20.645-20.644-20.645z" fill="#e8834d"/><path d="m91.061 79.373h329.878v130.75h-329.878z" fill="#5ce9ff" transform="matrix(-1 0 0 -1 512 289.496)"/><path d="m126.269 210.123 130.75-130.75h-35.174l-130.75 130.75z" fill="#a4f9ff"/><path d="m160.388 79.373-69.327 69.326v61.424h.034l130.75-130.75z" fill="#80f2f5"/><path d="m402.358 79.373h18.581v130.75h-18.581z" fill="#00e3f9"/><path d="m217.921 210.123h76.157v-19.663c0-5.025-4.074-9.099-9.099-9.099h-57.959c-5.025 0-9.099 4.074-9.099 9.099z" fill="#ffe2cb"/><path d="m284.979 181.361h-18.581c5.025 0 9.099 4.074 9.099 9.099v19.663h18.581v-19.663c0-5.026-4.073-9.099-9.099-9.099z" fill="#efc89d"/><path d="m324.077 280.257c16.961 6.29 24.055 29.319 24.055 29.319s-20.405 12.832-37.366 6.542-24.054-29.319-24.054-29.319 20.404-12.831 37.365-6.542z" fill="#98d72a"/><path d="m372.186 280.257c-16.961 6.29-24.054 29.319-24.054 29.319s20.405 12.832 37.366 6.542 24.054-29.319 24.054-29.319-20.406-12.831-37.366-6.542z" fill="#98d72a"/><path d="m402.259 283.097c-3.872 5.799-9.382 11.705-16.762 14.441-10.629 3.941-22.609.374-30.073-2.839-1.801 2.697-3.242 5.365-4.357 7.687-.954-.421-2.006-.659-3.116-.659-.995 0-1.942.195-2.816.537-1.107-2.293-2.527-4.914-4.297-7.564-7.465 3.213-19.445 6.781-30.074 2.839-7.38-2.736-12.889-8.642-16.762-14.441-4.447 1.914-7.293 3.703-7.293 3.703s7.093 23.029 24.054 29.319c10.345 3.836 21.963.559 29.46-2.581v33.15c0 4.267 3.459 7.727 7.727 7.727s7.727-3.46 7.727-7.727v-33.301c7.48 3.184 19.309 6.63 29.819 2.732 16.961-6.29 24.055-29.319 24.055-29.319s-2.845-1.79-7.292-3.704z" fill="#8bc727"/><path d="m402.704 375.258h-109.146c-2.48 0-4.491-2.011-4.491-4.491v-19.41c0-2.48 2.011-4.491 4.491-4.491h109.146c2.48 0 4.491 2.011 4.491 4.491v19.41c0 2.48-2.011 4.491-4.491 4.491z" fill="#ffe2cb"/><path d="m402.704 346.866h-18.581c2.48 0 4.491 2.01 4.491 4.491v19.41c0 2.48-2.011 4.491-4.491 4.491h18.581c2.48 0 4.491-2.011 4.491-4.491v-19.41c0-2.481-2.011-4.491-4.491-4.491z" fill="#efc89d"/></svg>