<svg width="8" height="8" viewBox="0 0 8 8" fill="none" xmlns="http://www.w3.org/2000/svg">
<path d="M7.6998 6.72228C7.6998 6.82441 7.68241 6.92554 7.64861 7.0199C7.61481 7.11426 7.56528 7.19999 7.50283 7.27221C7.44038 7.34443 7.36624 7.40171 7.28464 7.4408C7.20305 7.47988 7.11559 7.5 7.02728 7.5H0.972334C0.793968 7.5 0.622908 7.41806 0.496784 7.27221C0.37066 7.12636 0.299805 6.92854 0.299805 6.72228V2.44355C0.300035 2.23746 0.370993 2.0399 0.497092 1.89427C0.62319 1.74863 0.794119 1.66683 0.972334 1.66683H1.64401C2.06065 1.66683 2.4456 1.4444 2.65366 1.08342V1.08342C2.86172 0.722438 3.24666 0.5 3.66331 0.5H4.33412C4.75077 0.5 5.13572 0.722438 5.34378 1.08342V1.08342C5.55183 1.4444 5.93678 1.66683 6.35343 1.66683H7.0251C7.1136 1.6665 7.20129 1.68638 7.28313 1.72531C7.36498 1.76425 7.43938 1.82148 7.50206 1.89373C7.56474 1.96598 7.61447 2.05183 7.6484 2.14635C7.68234 2.24087 7.69981 2.34221 7.6998 2.44456V6.72228Z" stroke="#333333" stroke-width="0.5" stroke-linecap="round" stroke-linejoin="round"/>
<path d="M5.5 4.31836C5.5 4.61503 5.41203 4.90504 5.2472 5.15171C5.08238 5.39839 4.84811 5.59065 4.57403 5.70418C4.29994 5.81771 3.99834 5.84741 3.70736 5.78954C3.41639 5.73166 3.14912 5.5888 2.93934 5.37902C2.72956 5.16924 2.5867 4.90197 2.52882 4.61099C2.47094 4.32002 2.50065 4.01842 2.61418 3.74433C2.72771 3.47024 2.91997 3.23598 3.16665 3.07115C3.41332 2.90633 3.70333 2.81836 4 2.81836C4.39783 2.81836 4.77936 2.97639 5.06066 3.2577C5.34196 3.539 5.5 3.92053 5.5 4.31836V4.31836Z" stroke="#333333" stroke-width="0.5" stroke-linecap="round" stroke-linejoin="round"/>
</svg>
