<svg width="17" height="17" viewBox="0 0 17 17" fill="none" xmlns="http://www.w3.org/2000/svg">
<path d="M8.49967 0.583984C4.13759 0.583984 0.583008 4.13857 0.583008 8.50065C0.583008 12.8627 4.13759 16.4173 8.49967 16.4173C12.8618 16.4173 16.4163 12.8627 16.4163 8.50065C16.4163 4.13857 12.8618 0.583984 8.49967 0.583984ZM11.1597 10.3215C11.3893 10.5511 11.3893 10.9311 11.1597 11.1607C11.0409 11.2794 10.8905 11.3348 10.7401 11.3348C10.5897 11.3348 10.4393 11.2794 10.3205 11.1607L8.49967 9.33982L6.67884 11.1607C6.56009 11.2794 6.40967 11.3348 6.25926 11.3348C6.10884 11.3348 5.95842 11.2794 5.83967 11.1607C5.61009 10.9311 5.61009 10.5511 5.83967 10.3215L7.66051 8.50065L5.83967 6.67982C5.61009 6.45023 5.61009 6.07023 5.83967 5.84065C6.06926 5.61107 6.44926 5.61107 6.67884 5.84065L8.49967 7.66148L10.3205 5.84065C10.5501 5.61107 10.9301 5.61107 11.1597 5.84065C11.3893 6.07023 11.3893 6.45023 11.1597 6.67982L9.33884 8.50065L11.1597 10.3215Z" fill="#E81515"/>
</svg>
