<svg width="16" height="15" viewBox="0 0 16 15" fill="none" xmlns="http://www.w3.org/2000/svg">
<path fill-rule="evenodd" clip-rule="evenodd" d="M10.857 1.30273C11.2774 0.89933 11.9591 0.899056 12.3798 1.30211L14.2378 3.0822C14.6587 3.48543 14.659 4.13958 14.2385 4.54315L5.4672 12.9604C5.3172 13.1044 5.12621 13.2026 4.91821 13.2428L1 14L1.79092 10.2464C1.83287 10.0473 1.93509 9.86452 2.08479 9.72086L10.857 1.30273Z" fill="#8E8E8E"/>
<path d="M9.61536 14H15M1 14L4.91821 13.2428C5.12621 13.2026 5.3172 13.1044 5.4672 12.9604L14.2385 4.54315C14.659 4.13958 14.6587 3.48543 14.2378 3.0822L12.3798 1.30211C11.9591 0.899056 11.2774 0.89933 10.857 1.30273L2.08479 9.72086C1.93509 9.86452 1.83287 10.0473 1.79092 10.2464L1 14Z" stroke="#8E8E8E" stroke-linecap="round" stroke-linejoin="round"/>
</svg>
