<svg width="55" height="55" viewBox="0 0 55 55" fill="none" xmlns="http://www.w3.org/2000/svg">
<path d="M47.8775 44.3245C50.6558 40.9847 52.588 37.0256 53.5109 32.7819C54.4338 28.5382 54.3201 24.1349 53.1794 19.9444C52.0388 15.7539 49.9048 11.8995 46.958 8.70734C44.0111 5.51514 40.3381 3.07904 36.2496 1.60511C32.1612 0.131185 27.7775 -0.337211 23.4696 0.239549C19.1616 0.81631 15.0561 2.42126 11.5002 4.91863C7.94435 7.416 5.04282 10.7323 3.04106 14.587C1.0393 18.4418 -0.00379668 22.7215 1.03838e-05 27.0642C0.00147129 33.3772 2.22809 39.4881 6.28915 44.3245L6.25046 44.3573C6.38587 44.5197 6.54064 44.6589 6.67992 44.8193C6.85403 45.0184 7.04168 45.2059 7.22159 45.3991C7.76325 45.9867 8.3204 46.5511 8.90462 47.0807C9.0826 47.2431 9.26638 47.3938 9.44629 47.5485C10.0653 48.0819 10.7018 48.5883 11.3615 49.06C11.4466 49.1179 11.524 49.1933 11.6091 49.2532V49.23C16.1399 52.4157 21.545 54.1254 27.0853 54.1254C32.6256 54.1254 38.0306 52.4157 42.5615 49.23V49.2532C42.6466 49.1933 42.722 49.1179 42.8091 49.06C43.4668 48.5864 44.1052 48.0819 44.7243 47.5485C44.9042 47.3938 45.088 47.2411 45.2659 47.0807C45.8502 46.5492 46.4073 45.9867 46.949 45.3991C47.1289 45.2059 47.3146 45.0184 47.4906 44.8193C47.628 44.6589 47.7847 44.5197 47.9201 44.3554L47.8775 44.3245ZM27.0833 11.6014C28.8051 11.6014 30.4882 12.1115 31.9198 13.0673C33.3514 14.023 34.4672 15.3814 35.126 16.9707C35.7849 18.56 35.9573 20.3089 35.6214 21.9961C35.2855 23.6833 34.4564 25.2331 33.239 26.4495C32.0215 27.6659 30.4704 28.4943 28.7817 28.8299C27.093 29.1655 25.3426 28.9933 23.7519 28.3349C22.1613 27.6766 20.8017 26.5618 19.8451 25.1315C18.8885 23.7011 18.378 22.0195 18.378 20.2992C18.378 17.9924 19.2952 15.7801 20.9277 14.149C22.5603 12.5178 24.7745 11.6014 27.0833 11.6014ZM11.6207 44.3245C11.6543 41.7866 12.6865 39.364 14.4942 37.5807C16.3018 35.7974 18.7395 34.7969 21.2798 34.7956H32.8869C35.4272 34.7969 37.8649 35.7974 39.6725 37.5807C41.4802 39.364 42.5124 41.7866 42.546 44.3245C38.3033 48.1444 32.7946 50.2585 27.0833 50.2585C21.3721 50.2585 15.8634 48.1444 11.6207 44.3245Z" fill="#BFBFBF"/>
<circle cx="47" cy="47" r="7" fill="white"/>
<path d="M50.6998 49.7223C50.6998 49.8244 50.6824 49.9255 50.6486 50.0199C50.6148 50.1143 50.5653 50.2 50.5028 50.2722C50.4404 50.3444 50.3662 50.4017 50.2846 50.4408C50.203 50.4799 50.1156 50.5 50.0273 50.5H43.9723C43.794 50.5 43.6229 50.4181 43.4968 50.2722C43.3707 50.1264 43.2998 49.9285 43.2998 49.7223V45.4435C43.3 45.2375 43.371 45.0399 43.4971 44.8943C43.6232 44.7486 43.7941 44.6668 43.9723 44.6668H44.644C45.0607 44.6668 45.4456 44.4444 45.6537 44.0834V44.0834C45.8617 43.7224 46.2467 43.5 46.6633 43.5H47.3341C47.7508 43.5 48.1357 43.7224 48.3438 44.0834V44.0834C48.5518 44.4444 48.9368 44.6668 49.3534 44.6668H50.0251C50.1136 44.6665 50.2013 44.6864 50.2831 44.7253C50.365 44.7642 50.4394 44.8215 50.5021 44.8937C50.5647 44.966 50.6145 45.0518 50.6484 45.1464C50.6823 45.2409 50.6998 45.3422 50.6998 45.4446V49.7223Z" stroke="#333333" stroke-width="0.5" stroke-linecap="round" stroke-linejoin="round"/>
<path d="M48.5 47.3184C48.5 47.615 48.412 47.905 48.2472 48.1517C48.0824 48.3984 47.8481 48.5906 47.574 48.7042C47.2999 48.8177 46.9983 48.8474 46.7074 48.7895C46.4164 48.7317 46.1491 48.5888 45.9393 48.379C45.7296 48.1692 45.5867 47.902 45.5288 47.611C45.4709 47.32 45.5006 47.0184 45.6142 46.7443C45.7277 46.4702 45.92 46.236 46.1666 46.0712C46.4133 45.9063 46.7033 45.8184 47 45.8184C47.3978 45.8184 47.7794 45.9764 48.0607 46.2577C48.342 46.539 48.5 46.9205 48.5 47.3184V47.3184Z" stroke="#333333" stroke-width="0.5" stroke-linecap="round" stroke-linejoin="round"/>
</svg>
