<svg width="17" height="17" viewBox="0 0 17 17" fill="none" xmlns="http://www.w3.org/2000/svg">
<path d="M8.49967 0.583984C4.13759 0.583984 0.583008 4.13857 0.583008 8.50065C0.583008 12.8627 4.13759 16.4173 8.49967 16.4173C12.8618 16.4173 16.4163 12.8627 16.4163 8.50065C16.4163 4.13857 12.8618 0.583984 8.49967 0.583984ZM12.2838 6.67982L7.79509 11.1686C7.68426 11.2794 7.53384 11.3427 7.37551 11.3427C7.21717 11.3427 7.06676 11.2794 6.95592 11.1686L4.71551 8.92815C4.48592 8.69857 4.48592 8.31857 4.71551 8.08898C4.94509 7.8594 5.32509 7.8594 5.55467 8.08898L7.37551 9.90982L11.4447 5.84065C11.6743 5.61107 12.0543 5.61107 12.2838 5.84065C12.5134 6.07023 12.5134 6.44232 12.2838 6.67982Z" fill="#2BB047"/>
</svg>
