<svg id="Capa_1" enable-background="new 0 0 512 512" height="512" viewBox="0 0 512 512" width="512" xmlns="http://www.w3.org/2000/svg"><g><g><path d="m279.53 359.257h-146.4c-10.055 0-16.761-10.374-12.63-19.543l9.21-20.408 2.503-5.553c2.246-4.965 7.18-8.159 12.63-8.159l56.269-25.868 66.715 25.868c5.439 0 10.384 3.194 12.63 8.159l2.503 5.553 9.2 20.408c4.141 9.169-2.565 19.543-12.63 19.543z" fill="#017297"/><path d="m155.206 339.714c-4.14 9.163 2.574 19.547 12.631 19.547h-34.704c-10.066 0-16.771-10.383-12.631-19.547l11.709-25.963c2.238-4.956 7.185-8.155 12.631-8.155h34.704c-5.446 0-10.393 3.199-12.631 8.155z" fill="#025f80"/><path d="m282.96 319.306h-153.25l2.503-5.553c2.246-4.965 7.18-8.159 12.63-8.159l56.269-25.868 66.715 25.868c5.439 0 10.384 3.194 12.63 8.159z" fill="#025f80"/><path d="m365.249 21.364h-317.83c-26.189 0-47.419 21.23-47.419 47.419v189.398c0 26.189 21.23 47.419 47.419 47.419h317.83c26.189 0 47.418-21.23 47.418-47.419v-189.398c0-26.189-21.23-47.419-47.418-47.419z" fill="#017297"/><path d="m47.419 276.783c-10.257 0-18.603-8.345-18.603-18.602v-189.398c0-10.257 8.346-18.602 18.603-18.602h317.83c10.257 0 18.603 8.345 18.603 18.602v189.398c0 10.257-8.346 18.602-18.603 18.602z" fill="#f9f7f8"/><path d="m77.121 276.776h-29.7c-10.258 0-18.605-8.347-18.605-18.596v-189.398c0-10.259 8.347-18.606 18.605-18.606h29.7c-10.259 0-18.596 8.347-18.596 18.606v189.398c0 10.249 8.337 18.596 18.596 18.596z" fill="#f3dced"/><g><path d="m223.838 178.128-8.283-4.78c.474-3.224.721-6.511.721-9.869 0-3.348-.247-6.645-.721-9.859l8.283-4.79c6.191-3.575 8.314-11.486 4.739-17.678l-11.723-20.305c-3.575-6.191-11.487-8.314-17.678-4.739l-8.303 4.79c-5.13-4.08-10.879-7.417-17.07-9.869v-9.57c0-7.139-5.79-12.939-12.939-12.939h-23.457c-7.139 0-12.939 5.8-12.939 12.939v9.57c-6.191 2.452-11.93 5.79-17.07 9.869l-8.293-4.79c-6.191-3.575-14.114-1.453-17.678 4.739l-11.734 20.305c-3.564 6.191-1.453 14.103 4.739 17.678l8.293 4.79c-.484 3.214-.731 6.511-.731 9.859 0 3.358.247 6.645.731 9.869l-8.293 4.78c-6.191 3.575-8.303 11.487-4.739 17.678l11.734 20.305c3.564 6.191 11.487 8.314 17.678 4.739l8.293-4.79c5.141 4.08 10.879 7.417 17.07 9.869v9.57c0 7.149 5.8 12.939 12.939 12.939h23.457c7.149 0 12.939-5.79 12.939-12.939v-9.57c6.191-2.452 11.94-5.79 17.07-9.869l8.303 4.79c6.191 3.575 14.103 1.453 17.678-4.739l11.723-20.305c3.575-6.191 1.452-14.103-4.739-17.678zm-74.698 19.481c-18.852 0-34.13-15.278-34.13-34.13 0-18.842 15.278-34.12 34.13-34.12 18.842 0 34.12 15.278 34.12 34.12-.001 18.852-15.278 34.13-34.12 34.13z" fill="#025f80"/></g></g><g><path d="m495.703 448.316v42.32h-202.297v-42.32c0-53.271 41.176-96.92 93.427-100.855 2.545-.196 5.12-.299 7.716-.299 2.606 0 5.182.103 7.737.299 52.251 3.946 93.417 47.595 93.417 100.855z" fill="#99e6fc"/><path d="m402.286 347.163v143.474h-15.453v-143.474c0-4.265 3.461-7.726 7.726-7.726 4.266-.001 7.727 3.461 7.727 7.726z" fill="#f9f7f8"/><path d="m415.394 349.313c-45.873 9.603-80.328 50.265-80.328 98.996v42.325h-41.656v-42.325c0-55.863 45.288-101.139 101.15-101.139 7.144 0 14.112.738 20.834 2.143z" fill="#62dbfb"/><path d="m394.56 362.102-40.897 42.066-15.973-20.671c-13.096-16.948-9.903-41.315 7.116-54.316l49.749-38.005" fill="#f3dced"/><path d="m394.56 362.102 40.897 42.066 15.973-20.671c13.096-16.948 9.903-41.315-7.116-54.316l-49.749-38.005" fill="#f9f7f8"/><path d="m479.506 216.283h-1.999v-80.835h-165.905v80.835h-1.999c-17.946 0-32.495 14.548-32.495 32.495 0 17.946 14.548 32.495 32.495 32.495h2.052c1.127 44.832 37.796 80.835 82.899 80.835 45.103 0 81.772-36.003 82.899-80.835h2.052c17.946 0 32.495-14.548 32.495-32.495 0-17.946-14.548-32.495-32.494-32.495z" fill="#ffdfcf"/><path d="m412.667 360.117c-5.832 1.312-11.887 1.991-18.106 1.991-45.112 0-81.78-36-82.904-80.831h-2.049c-8.971 0-17.098-3.642-22.978-9.521-5.879-5.879-9.521-14.007-9.521-22.978 0-17.942 14.545-32.487 32.499-32.487h1.991v-80.831h36.223v80.831l.059 64.986c.972 38.647 28.353 70.736 64.786 78.84z" fill="#ffcebf"/><path d="m318.767 82.873c-11.529 0-20.875 9.346-20.875 20.875v60.118c0 11.529 9.346 20.875 20.875 20.875 11.529 0 20.875-9.346 20.875-20.875v-60.118c.001-11.529-9.346-20.875-20.875-20.875z" fill="#aa6a51"/><path d="m496.998 69.434h-116.829c-22.382 0-40.527 18.144-40.527 40.527v34.254c0 22.382 18.144 40.527 40.527 40.527h37.965c43.556 0 78.864-35.309 78.864-78.864z" fill="#bc7c63"/><path d="m412.885 184.749h-32.71c-22.38 0-40.533-18.152-40.533-40.533l-4.035-15.874 4.035-18.381c0-22.38 18.152-40.521 40.533-40.521h32.71c-22.38 0-40.521 18.141-40.521 40.521v34.256c0 22.38 18.141 40.532 40.521 40.532z" fill="#aa6a51"/><g fill="#024c67"><path d="m419.869 243.68c-4.267 0-7.726-3.459-7.726-7.726v-19.472c0-4.267 3.459-7.726 7.726-7.726s7.726 3.459 7.726 7.726v19.472c0 4.267-3.459 7.726-7.726 7.726z"/><path d="m369.241 243.68c-4.267 0-7.726-3.459-7.726-7.726v-19.472c0-4.267 3.459-7.726 7.726-7.726s7.726 3.459 7.726 7.726v19.472c0 4.267-3.459 7.726-7.726 7.726z"/></g><path d="m394.555 303.9c-11.18 0-21.69-4.353-29.595-12.258-3.018-3.017-3.018-7.909 0-10.927 3.017-3.018 7.909-3.017 10.927 0 4.986 4.986 11.616 7.733 18.668 7.733s13.681-2.746 18.668-7.732c3.017-3.018 7.909-3.017 10.927 0s3.018 7.909 0 10.927c-7.906 7.903-18.416 12.257-29.595 12.257z" fill="#fe5694"/></g><path d="m424.569 434.28h42.137v28.777h-42.137z" fill="#f9f7f8"/></g></svg>