<svg id="Layer_2" height="512" viewBox="0 0 24 24" width="512" xmlns="http://www.w3.org/2000/svg" xmlns:xlink="http://www.w3.org/1999/xlink" data-name="Layer 2"><linearGradient id="Orange_Yellow" gradientUnits="userSpaceOnUse" x1="-3.824" x2="21.292" y1="26.331" y2="3.585"><stop offset="0" stop-color="#fff33b"/><stop offset=".04" stop-color="#fee72e"/><stop offset=".117" stop-color="#fed51b"/><stop offset=".196" stop-color="#fdca10"/><stop offset=".281" stop-color="#fdc70c"/><stop offset=".669" stop-color="#f3903f"/><stop offset=".888" stop-color="#ed683c"/><stop offset="1" stop-color="#e93e3a"/></linearGradient><linearGradient id="Orange_Yellow-2" x1="-4.819" x2="20.297" xlink:href="#Orange_Yellow" y1="25.232" y2="2.486"/><linearGradient id="Orange_Yellow-3" x1="-1.336" x2="23.779" xlink:href="#Orange_Yellow" y1="29.078" y2="6.332"/><path d="m12 1a11 11 0 1 0 11 11 11.013 11.013 0 0 0 -11-11zm0 20a9 9 0 1 1 9-9 9.01 9.01 0 0 1 -9 9z" fill="url(#Orange_Yellow)"/><path d="m12 5a1 1 0 0 0 -1 1v8a1 1 0 0 0 2 0v-8a1 1 0 0 0 -1-1z" fill="url(#Orange_Yellow-2)"/><circle cx="12" cy="17" fill="url(#Orange_Yellow-3)" r="1"/></svg>