<svg id="Layer_1" height="512" viewBox="0 0 512 512" width="512" xmlns="http://www.w3.org/2000/svg" data-name="Layer 1"><path d="m316.0127 146.6529q-14.0863 0-33.2432 6.5694-19.1568 6.5727-27.6086 6.5761-6.574 0-26.5756-5.8242t-34.0882-5.8242q-33.0547 0-54.7473 27.8018-21.6922 27.7882-21.6922 71.9282a169.5371 169.5371 0 0 0 7.1367 48.084 228.3646 228.3646 0 0 0 21.2231 48.8291q14.2734 24.9785 28.7357 37.4678 14.4606 12.4891 29.1108 12.4891 9.7656 0 25.4485-6.4805t27.5147-6.48q11.8317 0 29.0168 6.2 17.1843 6.2036 26.9515 6.2 12.3957 0 24.7906-9.3926t24.7913-28.3623a229.3648 229.3648 0 0 0 14.18-24.6026 159.3 159.3 0 0 0 9.4849-23.666q-17.0919-5.0653-30.4259-24.2265a73.5106 73.5106 0 0 1 -13.3352-43.0049 70.8158 70.8158 0 0 1 6.8556-30.1465q6.8547-14.7451 27.7018-32.3955-13.334-16.5292-28.1709-24.1377a71.3717 71.3717 0 0 0 -33.0552-7.6016zm-3.1927-72.4951q-33.6188 7.6905-48.1746 28.5469-14.5554 20.8461-14.93 49.39 14.6488-.7485 23.4771-4.6963a58.4929 58.4929 0 0 0 17.2779-12.3935 77.8942 77.8942 0 0 0 17.8426-26.4824q5.6346-14.2735 5.6345-26.291c0-1.251-.0632-2.502-.188-3.76a22.5252 22.5252 0 0 0 -.939-4.3135zm-56.82-65.5771c136.8563 0 247.8 110.94 247.8 247.8027 0 136.8555-110.9439 247.7959-247.8 247.7959s-247.8-110.9404-247.8-247.7959c0-136.8623 110.9437-247.8027 247.8-247.8027z" fill-rule="evenodd"/></svg>