<svg height="512" viewBox="0 0 64 64" width="512" xmlns="http://www.w3.org/2000/svg"><g id="Cash-Finance-Loan-Money-Income"><path d="m49 3a3 3 0 0 1 0 6h-32a3 3 0 0 1 0-6z" fill="#898890"/><path d="m29 37h-9v-9a9 9 0 0 1 9 9z" fill="#00b39d"/><path d="m46 28v9h-9a9 9 0 0 1 9-9z" fill="#00b39d"/><path d="m46 3v25a9 9 0 0 0 -9 9h-8a9 9 0 0 0 -9-9v-25z" fill="#00ccb3"/><path d="m31 53v8h-18v-8h2 14z" fill="#3d9ae2"/><path d="m24 37v-8a3 3 0 0 1 6 0v7l.4 1 .88 2.21a9.853 9.853 0 0 1 .72 3.72v1.3a9.973 9.973 0 0 1 -1.43 5.15l-1.57 2.62v1h-14v-4l-1.42-12.78a15.968 15.968 0 0 1 2.05-9.77l4.37-7.57v18.12z" fill="#ffc477"/><path d="m14 21-5 6-5-6h3v-19h4v19z" fill="#ffa733"/><path d="m60 35-5 6-5-6h3v-19h4v19z" fill="#ffa733"/><circle cx="33" cy="13" fill="#ffd422" r="6"/><path d="m20 3h26v2h-26z" fill="#00b39d"/><rect fill="#ffb655" height="3" rx="1" width="2" x="22" y="37"/></g></svg>