<svg id="Layer_1" enable-background="new 0 0 491.5 491.5" height="512" viewBox="0 0 491.5 491.5" width="512" xmlns="http://www.w3.org/2000/svg"><path clip-rule="evenodd" d="m345.8 277.9c-29.1 5.7-47.8 29.1-50.9 58.3-66.7-25.9-113.7-73-139.5-139.5 29.2-3.1 52.7-21.8 58.3-50.9 6.5-33.4-81.4-121.2-114.7-114.7-21.4 4.2-50.3 32-59.2 51.4-19.9 43.4-3.5 92.1 18.6 131.3 43.8 77.6 141.9 175.7 219.5 219.5 39.2 22.1 87.9 38.5 131.3 18.6 19.4-8.9 47.2-37.8 51.4-59.2 6.4-33.5-81.5-121.3-114.8-114.8z" fill="#03a8dd" fill-rule="evenodd"/></svg>