<svg id="Capa_1" enable-background="new 0 0 512 512" height="512" viewBox="0 0 512 512" width="512" xmlns="http://www.w3.org/2000/svg"><g><path d="m512 256c0 109.67-68.96 203.23-165.89 239.68l-62.934-13.532-80.356 24.312c-115.86-24.47-202.82-127.32-202.82-250.46 0-141.38 114.62-256 256-256s256 114.62 256 256z" fill="#dd636e"/><g><g><path d="m498.118 54.857-41.002 187.685c-.664 3.07-1.575 6.036-2.688 8.904-8.11 20.881-27.421 35.798-50.251 37.936-22.588 2.111-42.052 16.802-50.257 37.952l-18.696 48.114-38.459-14.937-23.926-9.292 18.696-48.115c4.111-10.585 5.049-21.856 3.055-32.597-1.982-10.746-6.909-20.929-14.538-29.334-17.511-19.317-20.52-47.733-7.431-70.286l49.196-84.775c.15-.266.311-.537.46-.804l46.77-80.581c2.336-4.034 7.259-5.775 11.609-4.086l2.82 1.095c4.866 1.89 7.285 7.381 5.389 12.263l-50.412 129.823c-1.339 3.448-1.156 7.107.23 10.222 1.368 3.137 3.945 5.741 7.393 7.08 6.509 2.528 13.863-.364 16.889-6.652l62.165-129.029c1.077-2.224 2.913-3.847 5.072-4.705 2.142-.837 4.592-.914 6.896-.02 4.608 1.79 7.071 6.835 5.642 11.564l-41.205 137.172c-1.005 3.327-.648 6.776.78 9.713 1.433 2.921 3.921 5.324 7.181 6.599 6.891 2.667 14.631-.742 17.314-7.627l50.412-129.823c1.896-4.882 7.388-7.301 12.253-5.411l2.82 1.095c4.35 1.69 6.822 6.304 5.823 10.857z" fill="#f1f4f6"/><path d="m320.159 231.839c15.565 35.332-1.343 73.016-23.394 128.672l-23.926-9.292 18.696-48.115c4.111-10.585 5.049-21.856 3.055-32.597-1.982-10.746-6.909-20.929-14.538-29.334-17.511-19.317-20.52-47.733-7.431-70.286l49.196-84.775c-38.134 66.32-18.301 107.946-1.658 145.727z" fill="#dfeaef"/><path d="m335.34 398.36c-13.19 37.26-27.14 74.23-41.83 110.9-2.58.38-5.19.72-7.8 1.02-8.57 1-17.27 1.57-26.08 1.69h-.01c-1.21.021-2.41.03-3.62.03-18.24 0-36.03-1.91-53.18-5.54 16.98-46.6 35.14-92.74 54.48-138.41 6.67-15.75 24.11-24.13 40.51-19.28 7.11 2.1 13.99 4.77 20.65 8.02 15.37 7.49 22.59 25.45 16.88 41.57z" fill="#ffd064"/><path d="m302.84 350.37c-8.71 3.55-16.04 10.44-19.96 19.67-19.62 46.35-38.13 93.14-55.51 140.37-8.31-.92-16.5-2.24-24.55-3.95 16.98-46.6 35.14-92.73 54.48-138.41 6.67-15.75 24.1-24.13 40.51-19.27 1.69.5 3.37 1.03 5.03 1.59z" fill="#e7a52e"/></g><path d="m248.48 296.99 24.31 55.2-34.92 15.38-26.32 11.6-24.32-55.2c-7.45-16.9-24.24-28-42.7-27.6-47.63 1.03-91.29-23.31-115.79-78.92-30.7-69.68-12.96-146.81 38.8-184.66 0-.01.01-.02.01-.02 6.84-5.02 14.29-9.34 22.3-12.87 68.5-30.17 152.23 9.34 186.99 88.26 24.5 55.61 13 104.25-19.91 138.69-6.69 6.99-10.72 15.77-12 24.98-1.14 8.38 0 17.11 3.55 25.16z" fill="#f1f4f6"/><path d="m237.87 367.57-26.32 11.6-24.32-55.2c-7.45-16.9-24.24-28-42.7-27.6 21.41 0 49.4-26.87 93.34 71.2z" fill="#dfeaef"/><path d="m192.435 81.943c31.276-31.276 81.509 77.551 45.02 141.369s-114.605 51.005-132.923 32.688 72.072-3.022 86.208-61.53-18.504-92.328 1.695-112.527z" fill="#dfeaef"/><path d="m346.11 495.68c-26.96 10.15-56.08 15.87-86.49 16.29-16.47-36.3-32.2-72.94-47.17-109.91-6.42-15.85-.01-34.11 15.02-42.28 6.5-3.54 13.26-6.51 20.27-8.93 16.17-5.57 33.96 2.02 41.33 17.46 20.04 42 39.05 84.46 57.04 127.37z" fill="#5490f9"/><path d="m285.71 510.28c-8.57 1-17.27 1.57-26.08 1.69h-.01c-16.47-36.3-32.19-72.94-47.17-109.91-6.42-15.85-.01-34.11 15.02-42.28 1.55-.84 3.11-1.65 4.68-2.43-3.65 8.67-3.95 18.73-.2 28.03 17.02 42.03 34.94 83.66 53.76 124.9z" fill="#428d99"/></g></g></svg>