<svg id="Layer_2" height="512" viewBox="0 0 24 24" width="512" xmlns="http://www.w3.org/2000/svg" xmlns:xlink="http://www.w3.org/1999/xlink" data-name="Layer 2"><linearGradient id="Orange_Yellow" gradientUnits="userSpaceOnUse" x1="-3.023" x2="20.67" y1="28.741" y2="7.89"><stop offset="0" stop-color="#fff33b"/><stop offset=".04" stop-color="#fee72e"/><stop offset=".117" stop-color="#fed51b"/><stop offset=".196" stop-color="#fdca10"/><stop offset=".281" stop-color="#fdc70c"/><stop offset=".669" stop-color="#f3903f"/><stop offset=".888" stop-color="#ed683c"/><stop offset="1" stop-color="#e93e3a"/></linearGradient><path d="m22.707 11.293-2-2-8-8a1 1 0 0 0 -1.414 0l-8 8-2 2a1 1 0 0 0 1.414 1.414l.293-.293v9.586a1 1 0 0 0 1 1h16a1 1 0 0 0 1-1v-9.586l.293.293a1 1 0 0 0 1.414-1.414zm-3.707 9.707h-14v-10.586l7-7 7 7z" fill="url(#Orange_Yellow)"/></svg>