<svg id="Layer_1" enable-background="new 0 0 512 512" height="512" viewBox="0 0 512 512" width="512" xmlns="http://www.w3.org/2000/svg"><g><g><g><g><g><g id="XMLID_2237_"><g id="XMLID_2238_"><g id="XMLID_2239_"><g id="XMLID_2253_"><g id="XMLID_2254_"><g id="XMLID_2255_"><g id="XMLID_2256_"><g id="XMLID_2257_"><g id="XMLID_2258_"><g id="XMLID_2259_"><g id="XMLID_2260_"><g id="XMLID_2261_"><g id="XMLID_2262_"><g id="XMLID_2263_"><g><path d="m512 256c0 104.58-62.71 194.51-152.58 234.24l-308.34-80.78c-32.07-42.76-51.08-95.89-51.08-153.46 0-141.39 114.62-256 256-256s256 114.61 256 256z" fill="#a772f2"/></g></g></g></g></g></g></g></g></g></g></g></g></g></g></g></g></g></g></g><path d="m512 256c0-20.759-2.488-40.933-7.152-60.259l-70.885-70.885-16.363-2.26-28.952-28.952-63.779 40.648-57.954-57.954-18.915 43.27-116.277 63.438 61.614 61.614-26.463 60.538 53.66 148.657 138.886 36.385c89.87-39.73 152.58-129.66 152.58-234.24z" fill="#7c56d8"/><g><path d="m169.315 283.209v-62.3h37.724l10.379 37.005-10.38 37.007z" fill="#ffc1a6"/><g><path d="m244.759 220.909h-37.72v47.283l18.86 7.265 18.86-7.265z" fill="#f9a991"/></g><path d="m207.23 268.192h-37.724l-4.43 62.3 42.152 11.712 13.727-40.373z" fill="#ffdcc0"/><g><path d="m244.759 268.192h-37.72v74.011l43.745-11.711z" fill="#ffc1a6"/></g></g><g><path d="m207.037 72.27c-30.496 0-66.536 16.466-69.471 61.021-7.886 1.525-13.488 11.869-12.606 20.232l1.352 19.032c.925 8.782 8.645 15.194 17.153 14.24l1.467-.159c5.956 15.975 13.062 27.07 20.529 34.855 14.398 15.02 30.149 17.753 41.577 19.559 11.427-1.807 30.495-168.78-.001-168.78z" fill="#ffdcc0"/><g><path d="m248.614 221.49c7.467-7.785 14.572-18.88 20.528-34.855l1.467.159c8.508.955 16.228-5.457 17.153-14.24l1.352-19.032c.882-8.363-4.72-18.707-12.606-20.232-2.934-44.554-38.973-61.02-69.469-61.021v168.78c11.428-1.806 27.177-4.539 41.575-19.559z" fill="#ffc1a6"/></g><g><ellipse cx="180.402" cy="162.796" fill="#595959" rx="11.689" ry="11.689" transform="matrix(.882 -.472 .472 .882 -55.458 104.335)"/><ellipse cx="233.673" cy="162.796" fill="#3f3f3f" rx="11.689" ry="11.689" transform="matrix(.229 -.974 .974 .229 21.769 353.064)"/></g></g><path d="m343.528 315.453v42.784c-27.893 29.32-65.137 49.656-106.943 56.249-9.624 1.516-19.498 2.303-29.548 2.303s-19.924-.787-29.548-2.303c-41.806-6.592-79.05-26.929-106.942-56.249v-42.784c0-26.105 21.16-47.265 47.265-47.265h64.077l25.148 26.733 25.148-26.733h64.077c26.105 0 47.266 21.161 47.266 47.265z" fill="#fff"/><path d="m296.265 268.188h-64.077l-25.148 26.733v121.868c10.051 0 19.924-.787 29.548-2.303 41.806-6.592 79.05-26.929 106.943-56.249v-42.784c-.001-26.104-21.162-47.265-47.266-47.265z" fill="#e2e2e2"/><path d="m168.173 250.91-33.317 17.282 36.091 58.642 36.091-31.913z" fill="#e2e2e2"/><path d="m245.903 250.91 33.317 17.282-36.09 58.642-36.091-31.913z" fill="#c4c4c4"/><path d="m219.773 53.838h-25.473c-12.807 0-25.285 4.055-35.645 11.585-19.617 14.257-28.852 38.832-23.479 62.481l6.319 27.808 13.569 13.113 7.609-54.116c17.787 2.911 36.532 3.099 44.364 3.027 7.832.072 26.577-.117 44.364-3.027l7.609 54.116 13.569-13.113 6.319-27.808c5.373-23.648-3.862-48.224-23.479-62.481-10.36-7.53-22.839-11.585-35.646-11.585z" fill="#595959"/><g><path d="m251.401 114.708 7.609 54.116 13.569-13.113 6.319-27.809c5.373-23.648-3.862-48.223-23.479-62.481-10.36-7.529-22.838-11.584-35.645-11.584h-12.734v63.898c7.832.073 26.575-.116 44.361-3.027z" fill="#3f3f3f"/></g><path d="m367.27 312.98-7.85 177.26c-31.63 13.99-66.62 21.76-103.42 21.76-83.81 0-158.22-40.28-204.92-102.54l-4.27-96.48z" fill="#595959"/><path d="m359.42 490.24 7.85-177.26h-160.231v194.338c15.848 3.07 32.216 4.682 48.961 4.682 36.8 0 71.79-7.77 103.42-21.76z" fill="#3f3f3f"/><circle cx="207.037" cy="398.865" fill="#e2e2e2" r="23.209"/><path d="m207.039 375.656v46.418c12.817-.001 23.207-10.392 23.207-23.209s-10.39-23.208-23.207-23.209z" fill="#c4c4c4"/><g><ellipse cx="373.629" cy="163.95" fill="none" rx="26.26" ry="26.26" transform="matrix(.993 -.122 .122 .993 -17.233 46.88)"/><path d="m443.935 178.969v-30.038h-15.315c-1.276-4.682-3.134-9.12-5.491-13.24l10.835-10.835-21.24-21.24-10.835 10.835c-4.12-2.357-8.558-4.215-13.24-5.492v-15.316h-30.038v15.316c-4.682 1.276-9.12 3.134-13.24 5.492l-10.835-10.835-21.24 21.24 10.835 10.835c-2.357 4.12-4.215 8.558-5.491 13.24h-15.316v30.038h15.316c1.276 4.682 3.134 9.12 5.491 13.24l-10.835 10.835 21.24 21.24 10.835-10.835c4.12 2.357 8.558 4.215 13.24 5.491v15.316h30.038v-15.316c4.682-1.276 9.121-3.134 13.24-5.491l10.835 10.835 21.24-21.24-10.835-10.835c2.357-4.12 4.215-8.558 5.491-13.24zm-70.306 11.241c-14.503 0-26.26-11.757-26.26-26.26s11.757-26.26 26.26-26.26 26.26 11.757 26.26 26.26-11.757 26.26-26.26 26.26z" fill="#fff"/></g><g><g><path d="m488.652 294.122v-22.044h-11.24c-.936-3.436-2.3-6.693-4.03-9.716l7.951-7.951-15.587-15.587-7.951 7.951c-3.023-1.73-6.28-3.093-9.716-4.03v-11.24h-22.044v11.24c-3.436.936-6.693 2.3-9.716 4.03l-7.951-7.951-15.587 15.587 7.951 7.951c-1.73 3.023-3.093 6.28-4.03 9.716h-11.24v22.044h11.24c.936 3.436 2.3 6.693 4.03 9.716l-7.951 7.951 15.587 15.587 7.951-7.951c3.023 1.73 6.28 3.093 9.716 4.03v11.24h22.044v-11.24c3.436-.936 6.693-2.3 9.716-4.03l7.951 7.951 15.587-15.587-7.951-7.951c1.73-3.023 3.094-6.28 4.03-9.716zm-51.594 6.589c-9.726 0-17.61-7.884-17.61-17.611 0-9.726 7.884-17.61 17.61-17.61s17.611 7.884 17.611 17.61c-.001 9.727-7.885 17.611-17.611 17.611z" fill="#e2e2e2"/></g></g><g><path d="m443.935 178.969v-30.038h-15.315c-1.276-4.682-3.134-9.12-5.491-13.24l10.835-10.835-21.24-21.241-10.835 10.835c-4.12-2.357-8.558-4.215-13.24-5.492v-15.315h-15.019v44.047c14.503 0 26.26 11.757 26.26 26.26s-11.757 26.26-26.26 26.26v44.047h15.019v-15.316c4.682-1.276 9.121-3.134 13.24-5.491l10.835 10.835 21.24-21.24-10.835-10.835c2.357-4.12 4.215-8.558 5.491-13.24h15.315z" fill="#e2e2e2"/></g><g><g><path d="m488.652 294.122v-22.043h-11.24c-.936-3.436-2.3-6.693-4.03-9.716l7.951-7.951-15.587-15.587-7.951 7.951c-3.023-1.73-6.28-3.094-9.716-4.03v-11.24h-11.022v33.984c9.726 0 17.611 7.885 17.611 17.611s-7.885 17.611-17.611 17.611v33.984h11.022v-11.24c3.436-.936 6.693-2.3 9.716-4.03l7.951 7.951 15.587-15.587-7.951-7.951c1.73-3.023 3.094-6.28 4.03-9.716h11.24z" fill="#c4c4c4"/></g></g></g></svg>