<svg id="Layer_1" enable-background="new 0 0 68 68" height="512" viewBox="0 0 68 68" width="512" xmlns="http://www.w3.org/2000/svg"><g><g><g><path d="m63.5445633 31.8166447-29.5445633 17.1604671-29.5445619-17.1604671 29.5445619-24.927651z" fill="#ffab02"/></g></g><g><g><g><g><path d="m58.4045334 4.7753682v48.4856448h-48.8090668v-39.015625h9.4562435c1.5203915 0 2.7529125-1.2325201 2.7529125-2.7529116v-9.4700198h33.8470001c1.5203896 0 2.7529107 1.2325204 2.7529107 2.7529116z" fill="#e9edf4"/></g></g><g><g><path d="m21.8046227 2.0224566v9.4700222c0 1.5203915-1.2325211 2.7529116-2.7529125 2.7529116h-9.4562436z" fill="#d2dbea"/></g></g></g></g><g><g><path d="m63.5445633 31.8166447v29.2368069c0 1.3048782-.5046883 2.474369-1.317131 3.3483429-.8986969.9725571-2.178936 1.5757523-3.6069641 1.5757523h-49.2409363c-1.4279542 0-2.7081914-.6031952-3.6068897-1.5757523-.8124423-.8739738-1.317204-2.0434647-1.317204-3.3483429v-29.2368069l29.5445618 17.1604671z" fill="#ffc90d"/></g></g><g><g><path d="m62.2274323 64.4017944c-.8986969.9725571-2.178936 1.5757523-3.6069641 1.5757523h-49.2409363c-1.4279542 0-2.7081914-.6031952-3.6068897-1.5757523l24.9209403-22.5820884c1.8763943-1.7002907 4.7364445-1.7002945 6.6128407-.0000038z" fill="#ffab02"/></g></g><g fill="#f14f4a"><g><path d="m17.8058109 28.8791256c-.1269531-.0527344-.2324219-.1401367-.3173828-.2617188s-.1269531-.2514648-.1269531-.3891602c0-.1796875.0605469-.3354492.1826172-.4682617.1220703-.1323242.2783203-.1982422.46875-.1982422.1054688 0 .2060547.0214844.3017578.0634766.9736328.434082 2.015625.6508789 3.1269531.6508789 1.8525391 0 2.7782993-.6083984 2.7782993-1.8256836 0-.3173828-.1191196-.5820313-.3574009-.7939453-.2382813-.2114258-.53125-.378418-.8808594-.5s-.8466797-.2670898-1.4921875-.4365234c-.8574219-.222168-1.5507813-.4365234-2.0800781-.6430664s-.984375-.5161133-1.3652344-.9287109-.5712891-.9628906-.5712891-1.6508789c0-.6035156.1582031-1.1513672.4765625-1.6435547.3173828-.4921875.7851563-.8833008 1.4042969-1.1748047.6191406-.2910156 1.3632813-.4365234 2.2304688-.4365234 1.1650391 0 2.2177734.1748047 3.1601563.5239258.2958984.105957.4443359.3173828.4443359.6352539 0 .1694336-.0585938.3227539-.1748047.4604492s-.2695313.2060547-.4609375.2060547c-.0634766 0-.1474609-.0209961-.2539063-.0634766-.8251953-.2856445-1.6777344-.4287109-2.5556641-.4287109-.8359375 0-1.5166016.1586914-2.0400391.4765625-.5234375.3173828-.7861328.7617188-.7861328 1.3334961 0 .3808594.125.6904297.3730469.9287109.2490234.2382813.5615234.4233398.9365234.5556641.3759766.1323242.8867188.2724609 1.5322266.4208984.8359165.2011719 1.5107422.4023438 2.0244141.6030273.5136719.2011719.9521484.5136719 1.3173828.9365234.3652344.4238281.5478516.9951172.5478516 1.7148438 0 .5927734-.1689453 1.1245117-.5078125 1.5957031-.3388672.4707031-.8154297.8388672-1.4287109 1.1030273-.6142578.2646484-1.3232422.3969727-2.1279297.3969727-1.34375 0-2.6035156-.2539062-3.7783203-.762207z"/><path d="m21.5841312 29.9411373c-1.3789063 0-2.6894531-.2641602-3.8964844-.7861328-.1777344-.074707-.3271484-.1977539-.4453125-.3657227-.1201172-.171875-.1806641-.3608398-.1806641-.5610352 0-.2563477.0878906-.4824219.2617188-.6713867.2724609-.2958984.7265625-.3740234 1.1113281-.206543.9316406.4155273 1.9433594.6259766 3.0068359.6259766 2.4785156 0 2.4785156-1.1484375 2.4785156-1.5258789 0-.2329102-.0820313-.4140625-.2568359-.5698242-.2089844-.1850586-.4707031-.3334961-.7802734-.440918-.3417969-.1186523-.8359375-.2631836-1.4697266-.4296875-.8642578-.2236328-1.5751953-.4438477-2.1132813-.6538086-.5693359-.222168-1.0664063-.5600586-1.4765625-1.0043945-.4316406-.4677734-.6503906-1.0917969-.6503906-1.8544922 0-.6606445.1767578-1.2680664.5244141-1.8066406.3466797-.5366211.8603516-.96875 1.5283203-1.2832031.6572266-.3085938 1.4501953-.4648438 2.3583984-.4648438 1.1943359 0 2.2929688.1821289 3.2646484.5424805.4111328.1474609.6396484.4731445.6396484.9165039 0 .2407227-.0820313.4609375-.2451172.6538086-.1728516.2045898-.4111328.3125-.6904297.3125-.1044922 0-.2197266-.0268555-.3652344-.0844727-.7773438-.269043-1.6035156-.4077148-2.4443359-.4077148-.7773438 0-1.4111328.1459961-1.8847656.4331055-.4316406.262207-.6416016.6142578-.6416016 1.0771484 0 .2978516.0917969.5307617.28125.7124023.2158203.206543.4951172.371582.828125.4892578.3623047.1274414.8671875.265625 1.5.4111328.8466797.2041016 1.5410156.4111328 2.0664063.6162109.5556641.2177734 1.0380859.5605469 1.4345703 1.0195313.4121094.4785156.6210938 1.1210938.6210938 1.9111328 0 .6542969-.1894531 1.2504883-.5644531 1.7709961-.3691406.5136719-.8925781.918457-1.5527344 1.203125-.6494139.2797853-1.4052733.4213868-2.2470702.4213868zm-3.571289-2.0795898c-.1064453 0-.1835938.0317383-.2480469.1020508-.0703125.0761719-.1035156.1606445-.1035156.2646484 0 .0761719.0244141.1469727.0732422.2172852.0517578.0751953.1132813.1259766.1865234.1567383.0009766.0004883.0029297.0009766.0039063.0014648 1.1308594.4892578 2.3623047.737793 3.6591797.737793.7597656 0 1.4355469-.1254883 2.0087891-.3725586.5605469-.2412109.9990234-.5786133 1.3046875-1.0029297.3037109-.4223633.4511719-.8867188.4511719-1.4204102 0-.6420898-.1601563-1.1533203-.4755859-1.519043-.3320313-.3842773-.7353516-.6713867-1.1992188-.8530273-.4990234-.1953125-1.1679688-.394043-1.9853516-.5908203-.6513672-.1499023-1.1777344-.2944336-1.5615234-.4291992-.4150391-.1464844-.765625-.355957-1.0439453-.6220703-.3095703-.296875-.4658203-.6821289-.4658203-1.1455078 0-.6806641.3125-1.2158203.9306641-1.5898438.5683594-.3452148 1.3066406-.5200195 2.1953125-.5200195.9072266 0 1.8007813.1494141 2.6533203.4448242.1162109.0463867.1542969.0473633.15625.0473633.1035156 0 .1728516-.0297852.2314453-.0996094.0712891-.0844727.1044922-.1689453.1044922-.2670898 0-.1904297-.0693359-.2895508-.2460938-.3530273-.9072266-.3359375-1.9355469-.5063477-3.0585938-.5063477-.8193359 0-1.5263672.1376953-2.1025391.4082031-.5644531.265625-.9951172.6245117-1.2802734 1.065918-.2880859.4462891-.4287109.9301758-.4287109 1.480957 0 .6157227.1611328 1.0888672.4921875 1.4472656.3476563.3769531.7695313.6640625 1.2539063.8530273.515625.2011719 1.2041016.4135742 2.0458984.6318359.6494141.1704102 1.1591797.3198242 1.515625.4438477.3837891.1333008.7138672.3212891.9814453.5585938.3037109.2705078.4580078.6132813.4580078 1.0185547 0 .9697266-.5341797 2.1254883-3.078125 2.1254883-1.1484375 0-2.2421875-.2275391-3.2490234-.6767578-.0566407-.0249024-.1162111-.0375977-.1796876-.0375977z"/></g><g><path d="m28.0772953 29.3556881c-.1376953-.1376953-.2060547-.3071289-.2060547-.5083008v-9.4775391c0-.2861328.1005859-.5322266.3017578-.7382813.2011719-.206543.4443359-.3095703.7304688-.3095703h.5234375c.2119141 0 .4052734.0634766.5791016.1904297.1748047.1269531.3046875.2856445.3896484.4760742l3.6035137 8.9858398 3.6035156-8.9858398c.0849609-.1904297.2148438-.3491211.3896484-.4760742s.3671875-.1904297.5791016-.1904297h.5244141c.2851563 0 .5283203.1030273.7294922.3095703.2011719.2060547.3017578.4521484.3017578.7382813v9.4775391c0 .2011719-.0683594.3706055-.2060547.5083008-.1376953.137207-.3076172.206543-.5078125.206543-.2011719 0-.3730469-.0693359-.5166016-.206543-.1425781-.1376953-.2138672-.3071289-.2138672-.5083008v-9.0170898l-3.6669921 9.0649414c-.0849609.2011719-.2207031.362793-.4052734.484375-.1855469.121582-.3886719.1826172-.6113281.1826172-.2216797 0-.4257813-.0610352-.6113281-.1826172s-.3203125-.2832031-.4042969-.484375l-3.6679668-9.0649414v9.0170898c0 .2011719-.0712891.3706055-.2138672.5083008-.1425781.137207-.3154297.206543-.5166016.206543s-.3701173-.069336-.5078126-.206543z"/><path d="m39.4132309 29.8620358c-.2792969 0-.5224609-.097168-.7236328-.2895508-.2011719-.1938477-.3066406-.4443359-.3066406-.7250977v-7.4755859l-3.0888672 7.6357422c-.109375.2597656-.2832031.4677734-.5185547.6225586-.4707031.3085938-1.0830078.3081055-1.5517578.0004883-.2363281-.1542969-.4101563-.362793-.5166016-.6196289l-3.091795-7.6396484v7.4760742c0 .2807617-.1054688.53125-.3056641.7241211-.3974609.3847656-1.0546875.3842773-1.4443359-.003418 0 0 0 0 0-.0004883-.1953125-.1948242-.2939453-.4370117-.2939453-.7202148v-9.4775391c0-.3657227.1298828-.6845703.3867188-.9477539.2587891-.265625.5771484-.3999023.9453125-.3999023h.5234375c.2763672 0 .5302734.0834961.7558594.2480469.2167969.1572266.3808594.3579102.4873047.5961914l3.3290997 8.3017578 3.3251953-8.2915039c.1103516-.2485352.2744141-.4492188.4912109-.6069336.2265625-.1645508.4804688-.2475586.7558594-.2475586h.5244141c.3681641 0 .6855469.1342773.9443359.3999023.2568359.2631836.3867188.5820313.3867188.9477539v9.4775391c0 .2832031-.0986328.5253906-.2939453.7202148-.1933595.1928711-.442383.2944336-.7197267.2944336zm-.7304688-10.331543c.0185547 0 .0380859.0014648.0576172.0053711.140625.0273438.2421875.1508789.2421875.2944336v9.0170898c0 .1206055.0380859.2109375.1220703.2924805.171875.1635742.4394531.1669922.6044922.003418.0800781-.0805664.1181641-.1743164.1181641-.2958984v-9.4775391c0-.206543-.0712891-.3793945-.2167969-.5288086s-.3085938-.2192383-.5146484-.2192383h-.5244141c-.1474609 0-.2792969.0439453-.4023438.1333008-.1328125.0966797-.2285156.2128906-.2919922.3554688l-3.5996094 8.9755859c-.0917969.2275391-.4648438.2275391-.5566406 0l-3.6035137-8.9858398c-.0595703-.1323242-.1552734-.2485352-.2880859-.3452148-.1220703-.0898438-.2539063-.1333008-.4023438-.1333008h-.5234375c-.2060547 0-.3701172.0698242-.515625.2192383s-.2167969.3222656-.2167969.5288086v9.4775391c0 .121582.0380859.215332.1181641.2963867.1650391.1625977.4326172.1611328.6044922-.0043945.0839844-.0810547.1220703-.1713867.1220703-.2919922v-9.0170898c0-.1435547.1015625-.2670898.2421875-.2944336.1474609-.0288086.2822266.0493164.3359375.1821289l3.6679668 9.0649414c.0595703.1430664.1552734.2568359.2900391.3457031.2753906.1796875.6191406.1796875.8945313 0 .1347656-.0893555.2314453-.2036133.2929688-.3500977l3.6650391-9.0605469c.0468749-.1152345.1582031-.1875001.2783202-.1875001z"/></g><g><path d="m42.9210434 28.8791256c-.1269531-.0527344-.2324219-.1401367-.3173828-.2617188s-.1269531-.2514648-.1269531-.3891602c0-.1796875.0605469-.3354492.1826172-.4682617.1220703-.1323242.2783203-.1982422.46875-.1982422.1054688 0 .2060547.0214844.3017578.0634766.9736328.434082 2.015625.6508789 3.1269531.6508789 1.8525391 0 2.7783203-.6083984 2.7783203-1.8256836 0-.3173828-.1191406-.5820313-.3574219-.7939453-.2382813-.2114258-.53125-.378418-.8808594-.5s-.8466797-.2670898-1.4921875-.4365234c-.8574219-.222168-1.5507813-.4365234-2.0800781-.6430664s-.984375-.5161133-1.3652344-.9287109-.5712891-.9628906-.5712891-1.6508789c0-.6035156.1582031-1.1513672.4765625-1.6435547.3173828-.4921875.7851563-.8833008 1.4042969-1.1748047.6191406-.2910156 1.3632813-.4365234 2.2304688-.4365234 1.1650391 0 2.2177734.1748047 3.1601563.5239258.2958984.105957.4443359.3173828.4443359.6352539 0 .1694336-.0585938.3227539-.1748047.4604492s-.2695313.2060547-.4609375.2060547c-.0634766 0-.1474609-.0209961-.2539063-.0634766-.8251953-.2856445-1.6777344-.4287109-2.5556641-.4287109-.8359375 0-1.5166016.1586914-2.0400391.4765625-.5234375.3173828-.7861328.7617188-.7861328 1.3334961 0 .3808594.125.6904297.3730469.9287109.2490234.2382813.5615234.4233398.9365234.5556641.3759766.1323242.8867188.2724609 1.5322266.4208984.8359375.2011719 1.5107422.4023438 2.0244141.6030273.5136719.2011719.9521484.5136719 1.3173828.9365234.3652344.4238281.5478516.9951172.5478516 1.7148438 0 .5927734-.1689644 1.1245117-.5078125 1.5957031-.3388672.4707031-.8154297.8388672-1.4287109 1.1030273-.6142578.2646484-1.3232422.3969727-2.1279297.3969727-1.34375 0-2.6035156-.2539062-3.7783203-.762207z"/><path d="m46.6993637 29.9411373c-1.3789063 0-2.6894531-.2641602-3.8964844-.7861328-.1777344-.074707-.3271484-.1977539-.4453125-.3657227-.1201172-.171875-.1806641-.3608398-.1806641-.5610352 0-.2563477.0878906-.4824219.2617188-.6713867.2734375-.2958984.7275391-.3740234 1.1113281-.206543.9316406.4155273 1.9433594.6259766 3.0068359.6259766 2.4785156 0 2.4785156-1.1484375 2.4785156-1.5258789 0-.2329102-.0820313-.4140625-.2568359-.5698242-.2089844-.1850586-.4707031-.3334961-.7802734-.440918-.3417969-.1186523-.8359375-.2631836-1.4697266-.4296875-.8642578-.2236328-1.5751953-.4438477-2.1132813-.6538086-.5693359-.222168-1.0664063-.5600586-1.4765625-1.0043945-.4316406-.4677734-.6503906-1.0917969-.6503906-1.8544922 0-.6606445.1767578-1.2680664.5244141-1.8066406.3466797-.5366211.8603516-.96875 1.5283203-1.2832031.6572266-.3085938 1.4501953-.4648438 2.3583984-.4648438 1.1943359 0 2.2929688.1821289 3.2646484.5424805.4111328.1474609.6396484.4731445.6396484.9165039 0 .2407227-.0820313.4609375-.2451172.6538086-.1728516.2045898-.4111328.3125-.6904297.3125-.1044922 0-.2197266-.0268555-.3652344-.0844727-.7773438-.269043-1.6035156-.4077148-2.4443359-.4077148-.7773438 0-1.4111328.1459961-1.8847656.4331055-.4316406.262207-.6416016.6142578-.6416016 1.0771484 0 .2978516.0917969.5307617.28125.7124023.2158203.206543.4951172.371582.828125.4892578.3623047.1274414.8671875.265625 1.5.4111328.8466797.2041016 1.5410156.4111328 2.0664063.6162109.5556641.2177734 1.0380859.5605469 1.4345703 1.0195313.4121094.4785156.6210938 1.1210938.6210938 1.9111328 0 .6542969-.1894531 1.2504883-.5644531 1.7709961-.3691406.5136719-.8925781.918457-1.5527344 1.203125-.6494139.2797853-1.4052733.4213868-2.2470702.4213868zm-3.5712891-2.0795898c-.1064453 0-.1835938.0317383-.2480469.1020508-.0703125.0761719-.1035156.1606445-.1035156.2646484 0 .0761719.0244141.1469727.0732422.2172852.0517578.0751953.1132813.1259766.1865234.1567383.0009766.0004883.0029297.0009766.0039063.0014648 1.1308594.4892578 2.3623047.737793 3.6591797.737793.7597656 0 1.4355469-.1254883 2.0087891-.3725586.5605469-.2412109.9990234-.5786133 1.3046875-1.0029297.3037109-.4223633.4511719-.8867188.4511719-1.4204102 0-.6420898-.1601563-1.1533203-.4755859-1.519043-.3320313-.3842773-.7353516-.6713867-1.1992188-.8530273-.4990234-.1953125-1.1679688-.394043-1.9853516-.5908203-.6513672-.1499023-1.1777344-.2944336-1.5615234-.4291992-.4150391-.1464844-.765625-.355957-1.0439453-.6220703-.3095703-.296875-.4658203-.6821289-.4658203-1.1455078 0-.6806641.3125-1.2158203.9306641-1.5898438.5683594-.3452148 1.3066216-.5200195 2.1953125-.5200195.9072266 0 1.8007813.1494141 2.6533203.4448242.1162109.0463867.1542969.0473633.15625.0473633.1035156 0 .1728516-.0297852.2314453-.0996094.0712891-.0844727.1044922-.1689453.1044922-.2670898 0-.1904297-.0693359-.2895508-.2460938-.3530273-.9072266-.3359375-1.9355469-.5063477-3.0585938-.5063477-.8193359 0-1.5263672.1376953-2.1025391.4082031-.5644531.265625-.9951172.6245117-1.2802734 1.065918-.2880859.4462891-.4287109.9301758-.4287109 1.480957 0 .6157227.1611328 1.0888672.4921875 1.4472656.3476563.3769531.7695313.6640625 1.2539063.8530273.515625.2011719 1.2041016.4135742 2.0458984.6318359.6494141.1704102 1.1591797.3198242 1.515625.4438477.3837891.1333008.7138672.3212891.9814453.5585938.3037109.2705078.4580078.6132813.4580078 1.0185547 0 .9697266-.5341797 2.1254883-3.078125 2.1254883-1.1484375 0-2.2421875-.2275391-3.2490234-.6767578-.0566407-.0249024-.116211-.0375977-.1796876-.0375977z"/></g></g></g></svg>