<svg id="Layer_1" height="512" viewBox="0 0 64 64" width="512" xmlns="http://www.w3.org/2000/svg"><g><g><path d="m36.3 47.5c-.9 0-1.6-.7-1.6-1.6v-13.2h3.2v13.2c0 .9-.7 1.6-1.6 1.6z" fill="#c9d8ef"/></g><g><path d="m37.9 43.1c-.5 0-.9-.4-.9-.9v-8.6h-1.3v5.8c0 .5-.4.9-.9.9s-.9-.4-.9-.9v-6.7c0-.5.4-.9.9-.9h3.2c.5 0 .9.4.9.9v9.5c-.1.5-.5.9-1 .9z" fill="#2b3c65"/></g><g><path d="m36.3 24.6c-3.1 0-5.6 2.5-5.6 5.6s2.5 5.6 5.6 5.6 5.6-2.5 5.6-5.6c0-3-2.5-5.6-5.6-5.6zm0 6.8c-1.2 0-2.1-.9-2.1-2.1s.9-2.1 2.1-2.1 2.1.9 2.1 2.1c0 1.1-1 2.1-2.1 2.1z" fill="#45c8f5"/></g><g><path d="m36.3 36.8c-3.2 0-5.9-2.3-6.4-5.4-.1-.5.3-.9.7-1 .5-.1.9.3 1 .7.3 2.3 2.3 4 4.6 4 2.6 0 4.7-2.1 4.7-4.7 0-1.2-.5-2.1-.9-2.7-.3-.4-.2-.9.2-1.2s.9-.2 1.2.2c.8 1.1 1.1 2.4 1.1 3.7.3 3.5-2.6 6.4-6.2 6.4zm-.1-4.5c-1.7 0-3-1.3-3-3 0-.2 0-.6.2-1s.7-.6 1.2-.4c.4.2.6.7.4 1.2v.2c0 .7.5 1.2 1.2 1.2s1.2-.5 1.2-1.2c0-.4-.1-.6-.1-.7-.3-.3-.3-.9 0-1.2s.9-.3 1.2 0c.4.4.7 1.1.7 1.9 0 1.7-1.3 3-3 3z" fill="#2b3c65"/></g><g><path d="m61.1 1v15.5h-3.6c-1.6 0-2.8-1.3-2.8-2.8v-9.9c0-1.6 1.3-2.8 2.8-2.8z" fill="#af8bbf"/><path d="m61.1 17.4h-3.6c-2.1 0-3.7-1.7-3.7-3.7v-9.9c0-2.1 1.7-3.7 3.7-3.7h3.6c.5 0 .9.4.9.9v15.5c0 .5-.4.9-.9.9zm-3.6-15.5c-1 0-1.9.8-1.9 1.9v9.9c0 1 .8 1.9 1.9 1.9h2.7v-13.7z" fill="#2b3c65"/></g><g><path d="m26.7 27.2 2.5-10.4c2-8 9.1-13.6 17.4-13.6h8.1v11.1c-1.9.4-3.8 1.2-5.6 2.5-3.3 3.6-6.7 6.3-10.4 7-.9.2-1.7.5-2.5.9-1.9 1.1-3.9-1.2-2.6-2.9.1-.1.3-.3.4-.4l4.5-3c.4-.3.7-.6.7-1.1.2-1.6-1.8-2.5-2.9-1.4-1.3 1.3-2.2 2.8-2.8 4.5-.5 1.4-1.4 3.6-2.2 5.3-.7 1.5-2.2 2.5-3.8 2.5-.6-.1-.9-.5-.8-1z" fill="#ffd880"/></g><g><path d="m54.7 3.2v3.5h-4.6c-8.2 0-15.4 5.6-17.4 13.6l-1 4.3c-.1.4-.3.7-.5 1-.7 1.5-2.2 2.5-3.8 2.5-.5 0-.9-.5-.7-.9l2.5-10.4c1.9-8 9.1-13.6 17.4-13.6 0 0 8.1 0 8.1 0z" fill="#fecb4d"/></g><g><path d="m27.5 29.1c-.1 0-.1 0-.2 0-.6-.1-1-.4-1.3-.8s-.4-.9-.3-1.3l2.5-10.4c2.1-8.4 9.6-14.3 18.3-14.3h8.1c.5 0 .9.4.9.9v11.1c0 .4-.3.8-.7.9-1.8.4-3.6 1.2-5.2 2.3-3.9 4.3-7.4 6.6-10.9 7.2-.8.2-1.5.4-2.3.8-.4.2-.9.4-1.4.4-.9 0-1.8-.5-2.4-1.3-.2.5-.4 1-.6 1.4-.7 1.9-2.5 3.1-4.5 3.1zm19.1-25c-7.8 0-14.6 5.3-16.5 12.9l-2.5 10.2c1.2-.1 2.3-.8 2.8-2 .8-1.8 1.7-4 2.2-5.2.7-1.9 1.7-3.5 3-4.8 1-1 2.9-.9 3.9.2.5.5.7 1.2.6 2 0 1-.8 1.6-1.1 1.8l-4.5 3-.3.3c-.3.4-.2.8-.1 1 .3.6.9.8 1.5.5 1-.5 1.8-.8 2.8-1 3.1-.6 6.2-2.7 9.9-6.7 0 0 .1-.1.1-.1 1.6-1.2 3.4-2 5.2-2.5v-9.6zm-9.1 12.3c-.2 0-.4.1-.5.2-.9.9-1.7 2-2.2 3.2l3.2-2.1c.3-.2.3-.3.3-.3v-.1c0-.2 0-.4-.2-.5-.1-.3-.4-.4-.6-.4z" fill="#2b3c65"/></g><g><g><path d="m49 45.3c0 .5-.2.9-.6 1.2-2.9 2.4-6.2 4.5-9.8 6.3-2.2 1.1-4.7 1.7-7.2 1.8l-10.5.4c-.8 0-1.6.3-2.2.8l-2.6 2-6.1-9.8c.9-3.3 3-5.4 6-7.3 2.8-1.8 6.4-1.4 8.8.9.8.8 1.8 1.2 2.9 1.2h4.4c1.5 0 2.7 1.2 2.7 2.7v.1c0 .7-.2 1.3-.6 1.7 3.5-.8 6.7-1.9 9.2-3.5 1.6-1 3.6-.8 4.9.4.5.3.7.7.7 1.1z" fill="#ffd880"/></g><g><path d="m49 45.3c0 .5-.2.9-.6 1.2-2.9 2.4-6.2 4.5-9.8 6.3-2.2 1.1-4.7 1.7-7.2 1.8l-10.5.4c-.8 0-1.6.3-2.2.8l-2.6 2-2-3.3 1.9-1.5c.6-.5 1.4-.7 2.2-.8l10.5-.3c2.5-.1 4.9-.7 7.2-1.8 3.6-1.8 6.9-3.9 9.8-6.3.2-.2.4-.4.5-.7.8.1 1.6.4 2.3 1 .3.4.5.8.5 1.2z" fill="#fecb4d"/></g><g><path d="m34.3 48.1c-.2 0-.5-.1-.7-.3-.4-.4-.4-1 0-1.3.2-.2.3-.6.3-1 0-1.1-.8-1.9-1.8-1.9h-4.4c-1.4 0-2.6-.5-3.6-1.5-2.1-2-5.2-2.3-7.6-.8-1.6 1-2.9 2.1-4 3.4-.3.4-.9.5-1.3.2s-.5-.9-.2-1.3c1.2-1.5 2.7-2.8 4.5-3.8 3.1-2 7.2-1.6 9.9 1 .6.6 1.4.9 2.3.9h4.4c2 0 3.6 1.6 3.6 3.6 0 1.1-.3 1.9-.9 2.5 0 .2-.3.3-.5.3z" fill="#2b3c65"/></g><g><path d="m20.2 56c-.4 0-.8-.2-.9-.6-.2-.5.1-1 .6-1.2.4-.1.8-.1 1.1-.1l10.5-.3c2.4-.1 4.6-.7 6.8-1.7 3.6-1.8 6.8-3.9 9.6-6.2.2-.1.3-.3.3-.5 0-.1 0-.2-.3-.6-1.1-.9-2.6-1-3.7-.3-2.7 1.7-6 2.7-9.2 3.6-.7.8-1.7 1.2-2.7 1.2h-5.3c-.5 0-.9-.4-.9-.9s.4-.9.9-.9h5.3c.6 0 1.2-.4 1.5-.8.1-.1.3-.3.5-.3 3.1-.8 6.4-1.8 8.9-3.4 1.8-1.2 4.3-1 6 .5.1 0 .1.1.1.1.5.6.7 1.2.7 1.8 0 .8-.4 1.5-1 1.9-2.9 2.4-6.2 4.5-9.9 6.4-2.4 1.2-5 1.8-7.6 1.9l-10.5.3c-.3 0-.4 0-.5.1-.1 0-.2 0-.3 0z" fill="#2b3c65"/></g><g><path d="m17 60.3-3.6 2.7-10.5-14 3.6-2.7c1.2-.9 2.9-.7 3.8.6l7.2 9.6c1 1.2.7 2.9-.5 3.8z" fill="#77c9ae"/></g><g><path d="m13.4 63.9h-.1c-.2 0-.5-.2-.6-.4l-10.5-14c-.3-.4-.2-1 .2-1.3l3.6-2.7c.6-.5 1.4-.7 2.2-.7 1.2 0 2.3.6 2.9 1.6l7.2 9.6c.6.7.9 1.7.8 2.6-.1 1-.6 1.9-1.5 2.5l-3.6 2.7c-.2.1-.4.1-.6.1zm-9.2-14.7 9.4 12.5 2.9-2.1c.4-.3.7-.7.7-1.2 0-.3 0-.8-.4-1.2l-7.2-9.6c-.6-.9-1.7-1-2.5-.4z" fill="#2b3c65"/></g></g></g></svg>