<svg id="Capa_1" enable-background="new 0 0 512 512" height="512" viewBox="0 0 512 512" width="512" xmlns="http://www.w3.org/2000/svg"><g><path d="m458.559 31.978c-61.308 35.044-125.96 36.049-187.559 3.753-2.514-1.318-5.056-2.324-7.559-3.754-73.55-42.026-151.304-42.056-224.883 0v271l14.883 26.045c63.809-36.475 131.279-36.475 195.117 0 7.432 4.248 14.932 7.758 22.441 11.147 29.652 13.381 59.808 20.376 90 20.376 37.822 0 75.659-10.503 112.441-31.523l7.559-4.321v-305.555z" fill="#fabe2c"/><path d="m473.441 329.022 7.559-4.321v-305.555l-22.441 12.832c-61.308 35.044-125.96 36.049-187.559 3.753v304.439c29.652 13.381 59.808 20.376 90 20.376 37.822 0 75.659-10.503 112.441-31.524z" fill="#ff9100"/><path d="m31 0h30v512h-30z" fill="#474f54"/></g></svg>