<svg id="Icon" height="512" viewBox="0 0 64 64" width="512" xmlns="http://www.w3.org/2000/svg"><path d="m44.9507 59.5h-25.9014a4 4 0 0 1 -3.9814-4.3853l3.2259-33.3366a4 4 0 0 1 3.9814-3.6147h19.45a4 4 0 0 1 3.9814 3.6147l3.2259 33.3366a4 4 0 0 1 -3.9818 4.3853z" fill="#5e6bb2"/><path d="m32 4.5a7.9791 7.9791 0 0 0 -7.9707 7.97v12.6638a1 1 0 0 0 2 0v-12.6638a5.9707 5.9707 0 0 1 11.9414 0v12.6638a1 1 0 0 0 2 0v-12.6638a7.9791 7.9791 0 0 0 -7.9707-7.97z" fill="#a1a8d5"/><path d="m36 37.8315h-7v-4.5454h3.8a2.24 2.24 0 0 1 2.2 2.273 1 1 0 0 0 2 0 4.2359 4.2359 0 0 0 -4-4.2524v-1.4752a1 1 0 0 0 -2 0v1.4546h-3a1 1 0 0 0 -1 1v6.5454a1 1 0 0 0 1 1h7v4.5455h-3.8a2.24 2.24 0 0 1 -2.2-2.2725 1 1 0 0 0 -2 0 4.2355 4.2355 0 0 0 4 4.2519v1.4751a1 1 0 1 0 2 0v-1.4545h3a1 1 0 0 0 1-1v-6.5455a1 1 0 0 0 -1-1z" fill="#f2f8e9"/></svg>