<svg id="Layer_1" enable-background="new 0 0 512.387 512.387" height="512" viewBox="0 0 512.387 512.387" width="512" xmlns="http://www.w3.org/2000/svg"><g><g><path d="m174.019 245.486-74.356-74.356c-.903-.903-2.171-1.319-3.438-1.167-25.047 2.995-51.125-5.171-70.4-24.447-20.874-20.874-28.647-49.877-23.34-76.816 1.324-6.723 9.568-9.293 14.413-4.447l41.371 41.371c2.283 2.283 5.661 3.081 8.724 2.06l27.126-9.042c2.546-.849 4.543-2.846 5.392-5.392l9.042-27.126c1.021-3.063.224-6.441-2.06-8.724l-41.372-41.374c-4.845-4.845-2.275-13.087 4.447-14.411 26.94-5.307 55.944 2.466 76.82 23.341 19.205 19.205 27.314 45.292 24.36 70.322-.149 1.265.267 2.531 1.168 3.431l241.679 241.679c.903.903 2.171 1.319 3.438 1.167 25.047-2.995 51.125 5.171 70.4 24.447 20.874 20.875 28.646 49.877 23.34 76.816-1.324 6.723-9.568 9.293-14.413 4.447l-41.371-41.371c-2.283-2.283-5.661-3.081-8.724-2.06l-27.126 9.042c-2.546.848-4.543 2.846-5.392 5.391l-9.042 27.126c-1.021 3.063-.224 6.441 2.06 8.724l41.372 41.372c4.844 4.845 2.275 13.087-4.447 14.411-26.94 5.307-55.944-2.466-76.82-23.341-19.205-19.205-27.314-45.292-24.36-70.322.149-1.265-.267-2.531-1.168-3.431z" fill="#babdce"/><g><g><path d="m125.398 144.304c-1.976 0-3.951-.754-5.458-2.26-3.015-3.015-3.015-7.902 0-10.917l12.056-12.056c3.014-3.013 7.902-3.013 10.916 0 3.015 3.015 3.015 7.902 0 10.917l-12.056 12.056c-1.507 1.506-3.483 2.26-5.458 2.26z" fill="#9da3b3"/></g></g><g><g><g><path d="m375.803 394.708c-1.975 0-3.951-.754-5.459-2.26-3.014-3.015-3.014-7.902 0-10.917l12.056-12.056c3.015-3.013 7.902-3.013 10.917 0 3.014 3.015 3.014 7.902 0 10.917l-12.056 12.056c-1.507 1.506-3.483 2.26-5.458 2.26z" fill="#9da3b3"/></g></g></g><path d="m487.433 366.001c-19.275-19.276-45.353-27.442-70.4-24.447-1.267.152-2.536-.264-3.438-1.167l-241.679-241.678c-.901-.901-1.317-2.166-1.168-3.431 2.953-25.03-5.155-51.117-24.36-70.322-19.66-19.659-46.527-27.694-72.091-24.131 17.713 2.47 34.797 10.509 48.419 24.131 19.205 19.205 27.313 45.292 24.361 70.322-.149 1.265.267 2.53 1.168 3.431l241.679 241.679c.902.903 2.171 1.319 3.438 1.167 25.047-2.995 51.125 5.171 70.4 24.447 19.815 19.816 27.815 46.955 24.037 72.702l8.561 8.561c4.845 4.845 13.089 2.275 14.413-4.447 5.306-26.94-2.467-55.942-23.34-76.817z" fill="#9da3b3"/></g><g><path d="m87.984 496.74-72.337-72.337-6.275 6.275c-12.497 12.497-12.497 32.758 0 45.255l27.082 27.082c12.497 12.497 32.758 12.497 45.255 0z" fill="#ff9259"/><path d="m73.901 482.657-20.121 19.697c-2.695 2.695-5.744 4.817-8.993 6.383 12.259 5.906 27.417 3.784 37.583-6.383l5.614-5.614z" fill="#ff7169"/><path d="m276.514 272.042-36.169-36.169 218.622-218.621c.853-.853 1.877-1.515 3.005-1.943l38.848-14.735c6.872-2.607 13.601 4.123 10.994 10.994l-14.735 38.848c-.428 1.128-1.09 2.152-1.943 3.005z" fill="#e6ebef"/><path d="m500.819.574-12.714 4.822c.748 1.851.858 4.003.036 6.172l-14.735 38.848c-.428 1.128-1.09 2.152-1.943 3.005l-206.785 206.785 11.836 11.836 218.621-218.622c.853-.853 1.515-1.877 1.943-3.005l14.735-38.848c2.607-6.871-4.122-13.6-10.994-10.993z" fill="#dae2ed"/><path d="m272.42 300.248-5.224 36.57c-.522 3.652-2.214 7.036-4.822 9.645l-33.327 33.327-60.281 36.169-37.346 61.458-24.112 24.112c-6.659 6.658-17.454 6.658-24.112 0l-72.337-72.337c-6.658-6.658-6.658-17.454 0-24.112l25.29-25.29 60.281-36.168 36.168-60.281 33.327-33.327c2.609-2.609 5.993-4.301 9.645-4.822l36.57-5.224 42.197 24.112z" fill="#ff7169"/><path d="m254.336 264.079-.712-.407-10.54 73.146c-.522 3.652-2.214 7.036-4.823 9.645l-155.066 155.067c6.658 6.658 17.454 6.658 24.112 0l24.11-24.11 37.348-61.46 60.28-36.168 33.328-33.328c2.609-2.609 4.301-5.993 4.822-9.645l5.224-36.57z" fill="#ff5178"/><path d="m179.495 244.63-3.926.561c-3.652.522-7.036 2.214-9.645 4.822l-1.44 1.44 96.449 96.45 1.44-1.44c2.609-2.609 4.301-5.993 4.822-9.645l.561-3.926z" fill="#ff5178"/><path d="m284.848 312.675-85.136-85.136c-3.124-3.124-3.124-8.19 0-11.314l12.799-12.799c3.124-3.124 8.189-3.124 11.314 0l85.136 85.136c3.124 3.124 3.124 8.189 0 11.314l-12.799 12.799c-3.125 3.124-8.19 3.124-11.314 0z" fill="#ff9259"/><path d="m308.795 288.398-84.805-84.805c-3.216-3.215-8.429-3.215-11.644 0l-6.029 6.029 78.777 78.777c3.215 3.215 3.215 8.429 0 11.644l-6.44 6.439 6.029 6.029c3.215 3.215 8.429 3.215 11.644 0l12.468-12.468c3.215-3.217 3.215-8.43 0-11.645z" fill="#ff7169"/><path d="m59.082 405.08c-6.658 6.658-17.454 6.658-24.112 0s-6.658-17.454 0-24.112l98.804-98.804c6.658-6.658 17.454-6.658 24.112 0 6.658 6.659 6.658 17.454 0 24.112z" fill="#ff9259"/><path d="m131.419 477.417c-6.659 6.658-17.454 6.658-24.112 0-6.659-6.659-6.659-17.454 0-24.112l98.804-98.805c6.659-6.659 17.454-6.659 24.112 0s6.658 17.454 0 24.112z" fill="#ff9259"/><g><g><path d="m83.195 436.912c-1.976 0-3.951-.754-5.458-2.26-3.015-3.015-3.015-7.902 0-10.917l98.804-98.804c3.014-3.013 7.902-3.013 10.916 0 3.015 3.015 3.015 7.902 0 10.917l-98.804 98.804c-1.507 1.506-3.483 2.26-5.458 2.26z" fill="#ff5178"/></g></g><path d="m230.224 354.501-122.917 122.916c6.658 6.658 17.453 6.658 24.112 0l98.805-98.805c6.658-6.658 6.658-17.453 0-24.111z" fill="#ff7169"/></g></g></svg>