<svg id="aaed28b2-aaa8-4ff5-816d-10be3277352b" enable-background="new 0 0 128 128" height="512" viewBox="0 0 128 128" width="512" xmlns="http://www.w3.org/2000/svg"><g><path d="m69.225 39.76c1.86 2.041 4.739 2.813 7.37 1.975 3.72-1.184 7.695.871 8.88 4.591.066.209.123.421.17.635.59 2.698 2.697 4.805 5.395 5.395 3.814.834 6.229 4.602 5.395 8.416-.047.214-.104.426-.17.634-.838 2.631-.067 5.51 1.975 7.37 2.886 2.629 3.094 7.1.464 9.986-.147.162-.302.317-.464.464-2.041 1.86-2.813 4.739-1.975 7.37 1.184 3.72-.871 7.695-4.591 8.88-.209.066-.421.123-.635.17-2.698.59-4.805 2.697-5.395 5.395-.834 3.814-4.602 6.229-8.416 5.395-.214-.047-.426-.104-.634-.17-2.631-.838-5.51-.067-7.37 1.975-2.629 2.886-7.1 3.094-9.986.464-.162-.147-.317-.302-.464-.464-1.86-2.041-4.739-2.813-7.37-1.975-3.72 1.184-7.695-.871-8.88-4.591-.066-.209-.123-.421-.17-.635-.59-2.698-2.697-4.805-5.395-5.395-3.814-.834-6.229-4.602-5.395-8.416.047-.214.104-.426.17-.634.838-2.631.067-5.51-1.975-7.37-2.886-2.629-3.094-7.1-.464-9.986.147-.162.302-.317.464-.464 2.041-1.86 2.813-4.739 1.975-7.37-1.184-3.72.871-7.695 4.591-8.88.209-.066.421-.123.635-.17 2.698-.59 4.805-2.697 5.395-5.395.834-3.814 4.602-6.229 8.416-5.395.214.047.426.104.634.17 2.631.838 5.51.067 7.37-1.975 2.629-2.886 7.1-3.094 9.986-.465.162.148.317.303.464.465z" fill="#fbbc05"/><path d="m96.265 61.405c1.184-3.72-.871-7.695-4.591-8.88-.209-.066-.421-.123-.635-.17-.843-.19-1.644-.533-2.362-1.013-5.98 12.791-23.344 44.187-49.95 44.956 1.851.967 3.179 2.703 3.627 4.743.834 3.814 4.602 6.229 8.416 5.395.214-.047.426-.104.634-.17 2.632-.838 5.51-.067 7.37 1.975 2.629 2.886 7.1 3.094 9.986.464.162-.147.317-.302.464-.464 1.86-2.042 4.738-2.813 7.37-1.975 3.72 1.184 7.696-.871 8.88-4.591.066-.209.123-.42.17-.634.59-2.698 2.697-4.805 5.395-5.395 3.814-.834 6.229-4.602 5.395-8.416-.047-.214-.104-.426-.17-.634-.838-2.632-.067-5.51 1.975-7.37 2.886-2.629 3.094-7.1.464-9.986-.147-.162-.302-.317-.464-.464-2.041-1.861-2.812-4.74-1.974-7.371z" fill="#f4950c"/><path d="m91.04 95.65c-2.698.585-4.805 2.692-5.39 5.39-.844 3.823-4.628 6.238-8.451 5.393-.205-.045-.408-.1-.609-.163-2.627-.84-5.503-.07-7.36 1.97-2.632 2.888-7.107 3.096-9.995.465-.162-.148-.317-.303-.465-.465-1.857-2.04-4.733-2.81-7.36-1.97-3.733 1.181-7.716-.888-8.897-4.621-.063-.2-.118-.403-.163-.609-.155-.719-.425-1.407-.8-2.04-.661-1.152-1.64-2.089-2.82-2.7 10.03-.29 18.75-4.94 26.04-11.3h31.19c.04.54.144 1.074.31 1.59 1.184 3.726-.876 7.708-4.603 8.892-.206.066-.415.122-.627.168z" fill="#f4950c"/><circle cx="64" cy="74" fill="#ffe161" r="29"/><path d="m44.644 95.59c11.922 10.692 30.254 9.695 40.946-2.226 9.516-10.611 9.91-26.564.929-37.631-1.519 23.267-20.519 40.267-41.875 39.857z" fill="#fbbc05"/><g fill="#fbbc05"><path d="m66 82c-1.105 0-2-.895-2-2v-16c0-1.105.895-2 2-2s2 .895 2 2v16c0 1.105-.895 2-2 2z"/><path d="m74 82c-1.105 0-2-.895-2-2v-16c0-1.105.895-2 2-2h6c3.314 0 6 2.686 6 6s-2.686 6-6 6h-4v6c0 1.105-.895 2-2 2zm2-12h4c1.105 0 2-.895 2-2s-.895-2-2-2h-4z"/><path d="m53 82c-.875 0-1.648-.568-1.909-1.403l-5-16c-.33-1.054.258-2.176 1.312-2.506s2.176.258 2.506 1.312l3.091 9.892 3.091-9.892c.33-1.054 1.451-1.642 2.506-1.313 1.054.33 1.642 1.451 1.312 2.506l-5 16c-.261.836-1.034 1.404-1.909 1.404z"/></g><g fill="#4c4372"><path d="m65 81c-1.105 0-2-.895-2-2v-16c0-1.105.895-2 2-2s2 .895 2 2v16c0 1.105-.895 2-2 2z"/><path d="m73 81c-1.105 0-2-.895-2-2v-16c0-1.105.895-2 2-2h6c3.314 0 6 2.686 6 6s-2.686 6-6 6h-4v6c0 1.105-.895 2-2 2zm2-12h4c1.105 0 2-.895 2-2s-.895-2-2-2h-4z"/><path d="m52 81c-.875 0-1.648-.568-1.909-1.403l-5-16c-.33-1.054.258-2.176 1.312-2.506s2.176.258 2.506 1.312l3.091 9.892 3.091-9.892c.33-1.054 1.451-1.642 2.506-1.312 1.054.33 1.642 1.451 1.312 2.506l-5 16c-.261.835-1.034 1.403-1.909 1.403z"/></g><path d="m64.754 15.508 2.648 4.684c.143.252.388.43.672.488l5.273 1.071c.541.11.891.638.781 1.179-.036.178-.12.343-.243.477l-3.637 3.966c-.196.214-.289.502-.257.789l.611 5.346c.063.549-.331 1.044-.88 1.107-.181.021-.363-.008-.529-.084l-4.896-2.233c-.264-.12-.566-.12-.83 0l-4.896 2.233c-.502.229-1.096.008-1.325-.495-.075-.165-.104-.348-.084-.529l.611-5.346c.033-.288-.061-.576-.257-.789l-3.637-3.966c-.373-.407-.346-1.04.061-1.413.134-.123.299-.207.477-.243l5.273-1.071c.284-.058.529-.236.672-.488l2.648-4.684c.272-.481.882-.65 1.363-.378.161.09.292.221.381.379z" fill="#ffe161"/><path d="m108.289 31.748-.355 2.787c-.037.287.053.577.246.793l1.872 2.095c.368.412.332 1.044-.079 1.412-.135.121-.301.203-.48.237l-2.761.524c-.285.054-.532.229-.678.479l-1.414 2.428c-.278.477-.89.639-1.367.361-.157-.091-.286-.224-.374-.383l-1.351-2.464c-.139-.254-.382-.435-.665-.496l-2.746-.595c-.54-.117-.883-.649-.766-1.189.038-.178.125-.341.249-.474l1.926-2.047c.199-.211.296-.498.267-.786l-.283-2.796c-.056-.549.345-1.04.894-1.096.181-.018.363.013.527.09l2.541 1.199c.262.124.565.128.83.011l2.571-1.133c.505-.223 1.096.006 1.318.512.074.167.101.35.078.531z" fill="#ffe161"/><path d="m27.941 31.748-.355 2.787c-.037.287.053.577.246.793l1.872 2.095c.368.412.332 1.044-.079 1.412-.135.121-.301.203-.48.237l-2.761.524c-.285.054-.532.229-.678.479l-1.414 2.428c-.278.477-.89.639-1.367.361-.157-.091-.286-.224-.373-.383l-1.351-2.464c-.139-.254-.382-.435-.665-.496l-2.746-.595c-.54-.117-.883-.649-.766-1.189.038-.178.125-.341.249-.474l1.926-2.047c.199-.211.296-.498.267-.786l-.283-2.796c-.056-.549.345-1.04.894-1.096.181-.018.363.013.527.09l2.541 1.199c.262.124.565.128.83.011l2.571-1.133c.505-.223 1.096.006 1.318.512.073.167.1.35.077.531z" fill="#ffe161"/><path d="m16 107h17c1.105 0 2-.895 2-2v-12h-19c-.552 0-1 .448-1 1 0 .239.085.47.241.651l3.469 4.048c.642.749.642 1.854 0 2.603l-3.469 4.048c-.359.419-.311 1.051.108 1.41.181.155.412.24.651.24z" fill="#ff1849"/><path d="m35 93v12c0 1.105-.895 2-2 2h-3l-4.219-2.812c-1.113-.742-1.781-1.991-1.781-3.328v-7.86z" fill="#e00e45"/><path d="m35 99v6c.004.548-.225 1.071-.63 1.44 0 0-4.37-2.44-6.37-3.44-.984-.492-2-.9-2-2 .003-1.103.897-1.997 2-2z" fill="#bf0640"/><path d="m28 99c-1.103.003-1.997.897-2 2v-2z" fill="#bf0640"/><path d="m112 107h-17c-1.105 0-2-.895-2-2v-12h19c.552 0 1 .448 1 1 0 .239-.085.47-.241.651l-3.469 4.048c-.642.749-.642 1.854 0 2.603l3.469 4.048c.359.419.311 1.051-.108 1.41-.181.155-.412.24-.651.24z" fill="#ff1849"/><path d="m93 93v12c0 1.105.895 2 2 2h16c-11-5-7-14-7-14z" fill="#e00e45"/><path d="m93 99v6c-.004.548.225 1.071.63 1.44 0 0 4.37-2.44 6.37-3.44.984-.492 2-.9 2-2-.003-1.103-.897-1.997-2-2z" fill="#bf0640"/><path d="m100 99c1.103.003 1.997.897 2 2v-2z" fill="#bf0640"/><path d="m100 85h-72c-1.105 0-2 .895-2 2v14c.003-1.103.897-1.997 2-2h72c1.103.003 1.997.897 2 2v-14c0-1.105-.895-2-2-2z" fill="#ff1849"/><path d="m67 99h33c1.103.003 1.997.897 2 2v-14c0-1.105-.895-2-2-2h-15c-2 4-6.792 10.263-18 14z" fill="#e00e45"/><g fill="#fbbc05"><path d="m70.603 33.509-.611-5.346c-.033-.288.061-.576.257-.789l3.637-3.966c.373-.407.346-1.04-.061-1.413-.134-.123-.299-.207-.477-.243l-4.279-.869c.081 1.937-1.089 5.137-4.069 8.117-2.273 2.027-4.941 3.562-7.836 4.509-.063.549.331 1.044.88 1.107.181.021.363-.008.529-.084l4.896-2.233c.264-.12.566-.12.83 0l4.896 2.233c.502.229 1.096.008 1.325-.495.075-.165.104-.348.083-.528z"/><path d="m110.053 37.423-1.873-2.095c-.193-.216-.283-.505-.246-.793l.355-2.788c.068-.545-.318-1.043-.863-1.111-.045-.006-.09-.008-.136-.008.431 1.87-.55 6.632-2.29 8.371-.839.948-2.106 1.399-3.355 1.194l1.256 2.287c.266.484.873.661 1.358.396.159-.087.292-.217.383-.374l1.414-2.428c.146-.25.393-.425.678-.479l2.761-.524c.543-.103.899-.626.796-1.169-.035-.178-.117-.343-.238-.479z"/><path d="m24.967 38.695c-2.727.782-6.354-.174-7.963-.687.025.448.347.824.786.918l2.746.595c.283.061.526.242.665.496l1.351 2.464c.266.484.873.661 1.358.396.159-.087.292-.217.383-.374l1.414-2.428c.146-.25.393-.425.678-.479l2.761-.524c.543-.103.899-.626.796-1.169-.034-.179-.116-.344-.237-.48l-1.149-1.286c-.878 1.23-2.141 2.13-3.589 2.558z"/></g></g></svg>