<svg height="512pt" viewBox="0 0 512 512" width="512pt" xmlns="http://www.w3.org/2000/svg"><path d="m299.84375 254.363281c-10.578125-3.171875-16.585938-14.320312-13.414062-24.898437 2.367187-7.898438 3.566406-16.128906 3.566406-24.464844 0-46.867188-38.128906-85-85-85-46.867188 0-85 38.132812-85 85s38.132812 85 85 85c7.941406 0 15.789062-1.089844 23.332031-3.234375 10.617187-3.03125 21.6875 3.132813 24.710937 13.757813 3.027344 10.621093-3.132812 21.6875-13.757812 24.710937-11.105469 3.160156-22.640625 4.765625-34.285156 4.765625-68.921875 0-125-56.074219-125-125s56.078125-125 125-125c68.925781 0 125 56.074219 125 125 0 12.230469-1.765625 24.324219-5.25 35.949219-3.171875 10.582031-14.320313 16.589843-24.902344 13.414062zm-34.910156 167.371094c-8.433594-7.136719-21.050782-6.085937-28.1875 2.34375-12.285156 14.515625-22.636719 27.824219-31.75 40.855469-21.394532-30.585938-45.683594-57.1875-69.285156-83.035156-51.320313-56.199219-95.640626-104.738282-95.710938-177.09375.105469-90.871094 74.121094-164.804688 164.996094-164.804688s164.894531 73.933594 165 164.761719c-.007813 5.800781-.300782 11.589843-.875 17.210937-1.117188 10.988282 6.882812 20.804688 17.871094 21.925782 10.984374 1.125 20.804687-6.878907 21.921874-17.871094.710938-6.945313 1.074219-14.085938 1.082032-21.269532-.0625-54.707031-21.417969-106.128906-60.121094-144.792968-38.710938-38.667969-90.160156-59.964844-144.878906-59.964844-54.714844 0-106.164063 21.296875-144.875 59.964844-38.707032 38.664062-60.058594 90.085937-60.121094 144.835937.0390625 39.855469 11.109375 77.25 33.839844 114.316407 19.6875 32.097656 45.261718 60.105468 72.335937 89.753906 26.542969 29.070312 53.996094 59.132812 75.917969 93.8125 3.664062 5.800781 10.046875 9.316406 16.902344 9.316406h12c6.859375 0 13.242187-3.515625 16.90625-9.3125 10.632812-16.820312 23.144531-33.589844 39.375-52.765625 7.136718-8.433594 6.085937-21.054687-2.34375-28.1875zm240.449218 85.125c-3.824218 3.445313-8.609374 5.140625-13.378906 5.140625-5.472656 0-10.917968-2.230469-14.867187-6.613281l-50.289063-55.816407c-12.984375 7.273438-27.941406 11.429688-43.851562 11.429688-49.628906 0-90-40.375-90-90s40.371094-90 90-90c49.625 0 90 40.375 90 90 0 19.265625-6.089844 37.132812-16.4375 51.789062l50.296875 55.824219c7.390625 8.207031 6.734375 20.851563-1.472657 28.246094zm-122.386718-85.859375c27.570312 0 50-22.429688 50-50s-22.429688-50-50-50c-27.570313 0-50 22.429688-50 50s22.429687 50 50 50zm0 0"/></svg>