<svg id="Capa_1" enable-background="new 0 0 512 512" height="512" viewBox="0 0 512 512" width="512" xmlns="http://www.w3.org/2000/svg"><g><path d="m361 122.211v-92.211h15c8.284 0 15-6.716 15-15s-6.716-15-15-15h-240c-8.284 0-15 6.716-15 15s6.716 15 15 15h15v92.211c-33.511 2.564-60 30.631-60 64.789v260c0 35.841 29.159 65 65 65h200c35.841 0 65-29.159 65-65v-260c0-34.157-26.489-62.224-60-64.789zm-180-92.211h150v92h-60v-30h15c8.284 0 15-6.716 15-15s-6.716-15-15-15h-60c-8.284 0-15 6.716-15 15s6.716 15 15 15h15v30h-60zm210 417c0 19.299-15.701 35-35 35h-200c-19.299 0-35-15.701-35-35v-5h270zm0-35h-270v-190h270zm0-220h-270v-5c0-19.299 15.701-35 35-35h200c19.299 0 35 15.701 35 35z"/><path d="m256 382c16.025 0 30.622-8.138 39.047-21.77s9.176-30.327 2.009-44.66l-27.64-55.278c-2.54-5.082-7.734-8.292-13.416-8.292s-10.875 3.21-13.417 8.292l-27.639 55.278c-7.167 14.333-6.416 31.028 2.009 44.66s23.022 21.77 39.047 21.77zm-14.223-53.013 14.223-28.446 14.224 28.446c2.52 5.039 2.266 10.678-.696 15.471s-7.893 7.542-13.528 7.542c-5.634 0-10.564-2.749-13.527-7.542-2.962-4.792-3.216-10.432-.696-15.471z"/></g></svg>