<svg fill="none" height="512" viewBox="0 0 128 128" width="512" xmlns="http://www.w3.org/2000/svg"><g fill="rgb(0,0,0)"><path d="m49.6858 74.0023c.0015-1.6569 1.3458-3.0012 3.0026-3.0026l8.3237-.0072.0072-8.2843c.0014-1.6568 1.3458-3.0011 3.0026-3.0026 1.6569-.0014 2.9988 1.3406 2.9974 2.9974l-.0072 8.2842 8.2841-.0072c1.6569-.0014 2.9989 1.3406 2.9974 2.9974-.0014 1.6569-1.3457 3.0012-3.0026 3.0026l-8.2841.0072-.0073 8.3236c-.0014 1.6569-1.3457 3.0012-3.0026 3.0026-1.6568.0014-2.9988-1.3405-2.9973-2.9974l.0072-8.3236-8.3237.0073c-1.6568.0014-2.9988-1.3406-2.9974-2.9974z"/><path clip-rule="evenodd" d="m67.2341 12.9464c-1.9716-1.2619-4.497-1.2619-6.4687 0l-50 32c-2.791 1.7862-3.60553 5.4969-1.81926 8.2879 1.78626 2.7911 5.49686 3.6056 8.28796 1.8193l4.7657-3.05v47.9964c0 8.837 7.1634 16 16 16h52c8.8365 0 16.0002-7.163 16.0002-16v-47.9964l4.765 3.05c2.791 1.7863 6.502.9718 8.288-1.8193 1.787-2.791.972-6.5017-1.819-8.2879zm18.7657 61.0536c0 12.1503-9.8498 22-22 22-12.1503 0-22-9.8497-22-22s9.8497-22 22-22c12.1502 0 22 9.8497 22 22z" fill-rule="evenodd"/></g></svg>