
<svg xmlns="http://www.w3.org/2000/svg" version="1.1" width="500px" height="500px" style="shape-rendering:geometricPrecision; text-rendering:geometricPrecision; image-rendering:optimizeQuality; fill-rule:evenodd; clip-rule:evenodd" xmlns:xlink="http://www.w3.org/1999/xlink">
<g><path style="opacity:0.975" fill="#e1643b" d="M 229.5,-0.5 C 243.5,-0.5 257.5,-0.5 271.5,-0.5C 360.606,10.468 427.439,54.8013 472,132.5C 486.604,160.609 495.771,190.275 499.5,221.5C 499.5,238.833 499.5,256.167 499.5,273.5C 489.203,362.603 444.87,428.77 366.5,472C 339.358,486.327 310.692,495.493 280.5,499.5C 261.833,499.5 243.167,499.5 224.5,499.5C 130.328,486.842 62.4949,437.842 21,352.5C 9.89925,326.424 2.73258,299.424 -0.5,271.5C -0.5,257.833 -0.5,244.167 -0.5,230.5C 10.8536,133.674 60.1869,63.8407 147.5,21C 173.882,9.7391 201.216,2.57243 229.5,-0.5 Z M 233.5,32.5 C 234.498,60.3284 234.831,88.3284 234.5,116.5C 212.823,116.833 191.156,116.5 169.5,115.5C 179.186,87.9424 194.52,64.1091 215.5,44C 221.395,39.8927 227.395,36.0593 233.5,32.5 Z M 265.5,33.5 C 272.194,35.3472 278.194,38.5138 283.5,43C 305.199,63.3866 320.866,87.7199 330.5,116C 308.836,116.5 287.169,116.667 265.5,116.5C 265.5,88.8333 265.5,61.1667 265.5,33.5 Z M 328.5,44.5 C 346.265,50.7153 362.598,59.5486 377.5,71C 394.942,83.6076 410.275,98.441 423.5,115.5C 403.842,116.666 384.175,116.833 364.5,116C 356.555,99.2728 348.721,82.4395 341,65.5C 336.58,58.5961 332.413,51.5961 328.5,44.5 Z M 169.5,45.5 C 170.239,45.369 170.906,45.5357 171.5,46C 166.607,52.5625 162.107,59.3958 158,66.5C 149.79,82.7484 142.29,99.2484 135.5,116C 115.5,116.667 95.5,116.667 75.5,116C 100.765,84.2118 132.099,60.7118 169.5,45.5 Z M 70.5,146.5 C 86.8367,146.333 103.17,146.5 119.5,147C 122.226,147.182 124.893,147.682 127.5,148.5C 121.59,176.87 117.924,205.536 116.5,234.5C 87.8333,234.5 59.1667,234.5 30.5,234.5C 32.4618,203.786 40.7951,174.953 55.5,148C 60.6835,147.826 65.6835,147.326 70.5,146.5 Z M 374.5,146.5 C 397.527,146.113 420.527,146.613 443.5,148C 450.13,158.43 455.297,169.597 459,181.5C 464.566,198.763 468.066,216.43 469.5,234.5C 441.167,234.5 412.833,234.5 384.5,234.5C 380.835,206.513 377.168,178.513 373.5,150.5C 373.623,149.075 373.957,147.742 374.5,146.5 Z M 159.5,147.5 C 184.5,147.5 209.5,147.5 234.5,147.5C 234.5,176.5 234.5,205.5 234.5,234.5C 205.5,234.5 176.5,234.5 147.5,234.5C 148.327,205.045 152.327,176.045 159.5,147.5 Z M 265.5,147.5 C 290.5,147.5 315.5,147.5 340.5,147.5C 347.487,176.076 351.487,205.076 352.5,234.5C 323.5,234.5 294.5,234.5 265.5,234.5C 265.5,205.5 265.5,176.5 265.5,147.5 Z M 30.5,265.5 C 58.8333,265.5 87.1667,265.5 115.5,265.5C 119.085,294.512 122.751,323.512 126.5,352.5C 102.788,352.823 79.1215,352.49 55.5,351.5C 40.9601,324.68 32.6268,296.014 30.5,265.5 Z M 147.5,265.5 C 176.5,265.5 205.5,265.5 234.5,265.5C 234.5,294.5 234.5,323.5 234.5,352.5C 209.491,352.833 184.491,352.5 159.5,351.5C 152.234,323.301 148.234,294.634 147.5,265.5 Z M 265.5,265.5 C 294.5,265.5 323.5,265.5 352.5,265.5C 351.487,294.924 347.487,323.924 340.5,352.5C 315.5,352.5 290.5,352.5 265.5,352.5C 265.5,323.5 265.5,294.5 265.5,265.5 Z M 384.5,265.5 C 412.833,265.5 441.167,265.5 469.5,265.5C 467.354,292.753 460.52,318.753 449,343.5C 447.789,346.759 445.956,349.592 443.5,352C 420.169,352.5 396.836,352.667 373.5,352.5C 376.921,323.464 380.588,294.464 384.5,265.5 Z M 75.5,384.5 C 95.3291,383.338 115.329,383.171 135.5,384C 142.29,400.752 149.79,417.252 158,433.5C 162.107,440.604 166.607,447.438 171.5,454C 146.628,445.396 124.294,432.396 104.5,415C 94.2362,405.24 84.5696,395.074 75.5,384.5 Z M 169.5,383.5 C 191.167,383.5 212.833,383.5 234.5,383.5C 234.5,411.167 234.5,438.833 234.5,466.5C 228.309,464.738 222.642,461.904 217.5,458C 195.113,437.42 179.113,412.586 169.5,383.5 Z M 265.5,383.5 C 287.177,383.167 308.844,383.5 330.5,384.5C 323.146,402.878 313.98,420.212 303,436.5C 293.056,449.785 280.723,460.118 266,467.5C 265.5,439.502 265.333,411.502 265.5,383.5 Z M 364.5,383.5 C 384.178,383.167 403.845,383.5 423.5,384.5C 397.997,417.062 365.997,440.562 327.5,455C 342.289,433.923 353.789,411.089 362,386.5C 362.698,385.309 363.531,384.309 364.5,383.5 Z"/></g>
</svg>
