<svg id="Layer_1" enable-background="new 0 0 450 450" height="512" viewBox="0 0 450 450" width="512" xmlns="http://www.w3.org/2000/svg"><g><g><g id="XMLID_1_"><path d="m367.6 239.5v8.1h-243.7v-8.1c0-4.5 3.6-8.1 8.1-8.1h227.5c4.5 0 8.1 3.6 8.1 8.1z"/><path d="m411.4 303.3c-10.7-11.2-24.6-19.3-40.2-22.9-5.8-1.3-11.9-2-18.1-2-19.5 0-37.4 7-51.4 18.5-17.9 14.8-29.4 37.3-29.4 62.3 0 20.1 7.4 38.5 19.6 52.7 14.8 17.2 36.8 28.1 61.2 28.1 44.6 0 80.8-36.3 80.8-80.8.1-21.7-8.5-41.4-22.5-55.9zm-9.3 104.1c-.1.2-.3.3-.4.4s-.3.3-.4.4c-12.4 12.2-29.4 19.8-48.2 19.8-37.9 0-68.7-30.8-68.7-68.7 0-18.7 7.5-35.8 19.8-48.2.1-.1.2-.3.4-.4l.4-.4c12.4-12.2 29.4-19.8 48.2-19.8 37.9 0 68.7 30.8 68.7 68.7 0 18.8-7.6 35.8-19.8 48.2z"/><path d="m411.6 359.2c0 14.3-5.1 27.4-13.7 37.5l-82.3-82.3c10.1-8.5 23.3-13.7 37.5-13.7 32.3 0 58.5 26.3 58.5 58.5z"/><path d="m410 106.3v181.8c-9.4-7.5-20.2-13.2-32.1-16.5v-32.1c0-10.1-8.2-18.3-18.3-18.3h-227.5c-10.1 0-18.3 8.2-18.3 18.3v8.1h-13.1v-63.8c0-14.5-11.8-26.2-26.2-26.2s-26.2 11.8-26.2 26.2v109.2c0 2.8 2.3 5.1 5.1 5.1h38.4v55.5c0 2.8 2.3 5.1 5.1 5.1h37.7c2.8 0 5.1-2.3 5.1-5.1v-55.5h146.2c-14.7 16.2-23.6 37.6-23.6 61.1 0 18.8 5.7 36.3 15.5 50.8h-213c-26.8 0-48.6-21.8-48.6-48.6v-255.1z"/><path d="m410 85.9v10.2h-394v-10.2c0-26.8 21.8-48.6 48.6-48.6h14.6v36.1c0 2.8 2.3 5.1 5.1 5.1h33.4c2.8 0 5.1-2.3 5.1-5.1v-36.1h31v36.1c0 2.8 2.3 5.1 5.1 5.1h33.4c2.8 0 5.1-2.3 5.1-5.1v-36.1h30.9v36.1c0 2.8 2.3 5.1 5.1 5.1h33.6c2.8 0 5.1-2.3 5.1-5.1v-36.1h31v36.1c0 2.8 2.3 5.1 5.1 5.1h33.4c2.8 0 5.1-2.3 5.1-5.1v-36.1h14.6c26.8 0 48.7 21.8 48.7 48.6z"/><path d="m308.4 321.7 82.3 82.3c-10.2 8.5-23.3 13.7-37.6 13.7-32.2 0-58.5-26.2-58.5-58.5.1-14.3 5.2-27.4 13.8-37.5z"/><path d="m367.6 257.8v11.5c-4.7-.8-9.6-1.2-14.5-1.2-21.3 0-40.9 7.4-56.4 19.7h-238.3v-30z"/><path d="m313.3 10h23.2v58.2h-23.2z"/><path d="m238.7 10h23.2v58.2h-23.2z"/><path d="m164.1 10h23.2v58.2h-23.2z"/><path d="m101.9 298.1h27.4v50.4h-27.4z"/><path d="m89.5 10h23.2v58.2h-23.2z"/><path d="m90.3 183.8v63.8h-32v-63.8c0-8.8 7.2-16 16-16s16 7.2 16 16z"/></g></g></g></svg>