<svg height="512" viewBox="0 0 64 64" width="512" xmlns="http://www.w3.org/2000/svg"><g id="error"><path d="m60 44c0 5.1056-5 10-10 10a10.0472 10.0472 0 0 1 -10-9h-34a2 2 0 0 1 -2-2v-31a2 2 0 0 1 2-2h42a2 2 0 0 1 2 2v22a10.2774 10.2774 0 0 1 10 10z" fill="#fafafa"/><path d="m44 18a4 4 0 1 1 -4-4 4 4 0 0 1 4 4z" fill="#e0e0e0"/><path d="m5.3189 43.3708 14.8882-18.3913a1 1 0 0 1 1.5666.0153l6.2263 8.0052 6.2547-6.2547a1 1 0 0 1 1.45.0381l8.2953 9.2166s-4 2-4 9h-34a.9694.9694 0 0 1 -.6811-1.6292z" fill="#e0e0e0"/><path d="m50 37a7 7 0 1 0 7 7 7.0082 7.0082 0 0 0 -7-7zm-5 7a4.992 4.992 0 0 1 7.7529-4.167l-6.92 6.92a4.9665 4.9665 0 0 1 -.8329-2.753zm5 5a4.9665 4.9665 0 0 1 -2.7529-.833l6.92-6.92a4.992 4.992 0 0 1 -4.1671 7.753zm1-15.9493v-21.0507a3.0033 3.0033 0 0 0 -3-3h-42a3.0033 3.0033 0 0 0 -3 3v31a3.0033 3.0033 0 0 0 3 3h33.1911a10.996 10.996 0 1 0 11.8089-12.9493zm-45-22.0507h42a1.001 1.001 0 0 1 1 1v21.0507a10.9108 10.9108 0 0 0 -4.8367 1.6425l-7.6848-8.446a2.0044 2.0044 0 0 0 -1.4512-.7472 1.9743 1.9743 0 0 0 -1.5244.5825l-5.501 5.501-5.42-7.0889a1.9826 1.9826 0 0 0 -1.5732-.8369 2.0153 2.0153 0 0 0 -1.6162.75l-14.3925 17.9912v-30.3989a1.001 1.001 0 0 1 1-1zm28.9763 33h-28.6941l14.6914-18.3164zm2.5185 0-8.2642-10.809 5.7274-5.6456 7.6109 8.3679a10.9607 10.9607 0 0 0 -3.5689 8.0867zm12.5052 9a9 9 0 1 1 9-9 9.01 9.01 0 0 1 -9 9zm-10-30a5 5 0 1 0 -5-5 5.0059 5.0059 0 0 0 5 5zm0-8a3 3 0 1 1 -3 3 3.0033 3.0033 0 0 1 3-3z" fill="#9e9e9e"/></g></svg>