<svg id="Icons" enable-background="new 0 0 32 32" height="512" viewBox="0 0 32 32" width="512" xmlns="http://www.w3.org/2000/svg"><g><path d="m16 12c-2.2 0-4 1.8-4 4s1.8 4 4 4 4-1.8 4-4-1.8-4-4-4z"/><path d="m16 7c-5 0-9 4-9 9 0 3.5 2 6.5 5 8 0 1.6 1.4 3 3 3 1.4 0 2.5-.9 2.9-2.2 4.1-.9 7.1-4.5 7.1-8.8 0-5-4-9-9-9zm1.7 15.8c-.5-1-1.5-1.8-2.7-1.8-.9 0-1.8.5-2.3 1.1-2.3-1.2-3.7-3.5-3.7-6.1 0-3.9 3.1-7 7-7s7 3.1 7 7c0 3.2-2.2 6-5.3 6.8z"/><path d="m27.7 8.3c.2-.4.3-.8.3-1.3 0-1.7-1.3-3-3-3-.5 0-.9.1-1.3.3-2.3-1.5-4.9-2.3-7.7-2.3-7.7 0-14 6.3-14 14s6.3 14 14 14 14-6.3 14-14c0-2.8-.8-5.4-2.3-7.7zm-11.7 19.7c-6.6 0-12-5.4-12-12s5.4-12 12-12c2.2 0 4.4.6 6.3 1.8-.2.3-.3.8-.3 1.2 0 1.7 1.3 3 3 3 .4 0 .9-.1 1.2-.3 1.2 1.9 1.8 4 1.8 6.3 0 6.6-5.4 12-12 12z"/></g></svg>